<svg width="35" height="35" viewBox="0 0 35 35" fill="none" xmlns="http://www.w3.org/2000/svg">
<path d="M7.67969 0.0136719C18.9654 0.167556 20.2506 9.91891 20.4727 14.002V28.8203H21.75V10.7715C21.7502 8.94744 23.2273 7.46998 25.0479 7.46973V21.875H25.4033L25.458 21.3301C25.6767 19.1466 27.558 17.7275 29.8213 17.7549C33.666 17.8098 35.002 20.4019 35.002 23.5957L35 23.5938V35H33.8145C32.6325 35 31.6738 34.0406 31.6738 32.8574V24.0576C31.6738 21.8743 30.6102 20.9727 28.9756 20.9453C26.6303 20.8632 25.0479 22.3922 25.0479 25.0938V28.8203H26.6416C27.9466 28.8203 29.0059 29.8812 29.0059 31.1875V32.0146H17.1719V14.002H17.1816C17.1788 13.975 17.173 13.9509 17.1719 13.9297C17.0045 10.8468 16.2597 3.65199 8.77148 2.96289C8.3974 4.9326 8.19092 9.16633 12.7021 11.0146C13.1377 8.74607 10.7711 5.62585 10.7695 5.57617C14.1321 7.59856 15.6921 10.4423 15.8711 14.0254H15.8789V14.2314C15.8851 14.4073 15.89 14.5853 15.8896 14.7646L15.8799 14.7627L15.9062 24.876L15.8789 32.1006V32.1016H12.584L12.5566 27.4121H12.2031L12.1758 27.7109C11.9042 30.5731 9.56065 32.3466 6.51172 32.3467C2.61714 32.3467 0.00195312 29.7284 0.00195312 25.04C0.00204911 20.3519 2.56255 17.543 6.51172 17.543C9.61701 17.5431 11.9589 19.3691 12.2305 22.6689L12.2578 22.9678H12.584V14.0488C2.79353 11.0936 6.28125 1.03095 6.29102 1L6.62402 0L7.67969 0.0136719ZM7.13672 20.7607C4.84958 20.7607 3.3243 22.26 3.29688 25.04C3.32421 27.8202 4.82218 29.1299 7.13672 29.1299C9.61518 29.1299 11.1953 27.5213 11.2227 24.8506C11.25 22.3697 9.61521 20.7608 7.13672 20.7607Z" fill="white"/>
</svg>
