<svg width="141" height="140" viewBox="0 0 141 140" fill="none" xmlns="http://www.w3.org/2000/svg">
<path d="M30.2734 2.05371C74.7715 2.66045 79.8364 41.1082 80.7119 57.207V115.636H85.75V44.4717C85.7501 37.2786 91.5756 31.4543 98.7549 31.4541V88.252H100.156L100.372 86.1016C101.234 77.4926 108.649 71.897 117.573 72.0049C132.733 72.2208 138 82.441 138 95.0342L137.993 95.0273V140H133.319C128.659 140 124.88 136.218 124.88 131.553V96.8535C124.88 88.245 120.684 84.6919 114.239 84.584C104.992 84.2604 98.7549 90.2878 98.7549 100.939V115.636H105.039C110.184 115.636 114.36 119.816 114.36 124.966V128.229H67.7002V57.207H67.7256C67.7144 57.1018 67.7047 57.0069 67.7002 56.9238C67.0402 44.7688 64.1034 16.4004 34.5771 13.6836C33.1023 21.4501 32.2877 38.1421 50.0742 45.4297C51.7972 36.4559 42.4024 24.1019 42.457 23.9844C55.7154 31.9585 61.8678 43.1728 62.5732 57.3008H62.6016L62.6025 58.0049C62.6295 58.7335 62.6439 59.47 62.6426 60.2139L62.6084 60.207L62.71 100.083L62.6016 128.566V128.573H49.6104L49.502 110.081H48.1084L48 111.261C46.9291 122.546 37.6889 129.537 25.667 129.537C10.3113 129.537 4.86308e-05 119.216 0 100.73C0 82.2451 10.0957 71.169 25.667 71.1689C37.9112 71.1689 47.145 78.3686 48.2158 91.3799L48.3232 92.5596H49.6104V57.3945C11.007 45.7426 24.7593 6.0654 24.7979 5.94336L26.1113 2L30.2734 2.05371ZM28.1318 83.8564C19.1138 83.8566 13.0999 89.7688 12.9922 100.73C13.1 111.692 19.0061 116.856 28.1318 116.856C37.9042 116.856 44.1343 110.513 44.2422 99.9824C44.3499 90.2004 37.9043 83.8564 28.1318 83.8564Z" fill="#59C207"/>
<path d="M18.7641 75C14.7641 77 6.4641 83.3 5.2641 92.5C4.2641 88.1667 5.5641 78.6 18.7641 75Z" fill="#C9FF9E"/>
<path d="M96 34C93.9657 35.0286 89.7446 38.2686 89.1343 43C88.6257 40.7714 89.2869 35.8514 96 34Z" fill="#C9FF9E"/>
<path d="M133.039 97.7773C133.366 93.3171 132.196 82.9628 124.903 77.227C129.139 78.5835 136.695 84.5928 133.039 97.7773Z" fill="#C9FF9E"/>
<path d="M52.1485 12.9621C48.8059 9.9911 39.8738 4.62472 30.8862 6.92757C34.5382 4.38964 43.9033 2.04346 52.1485 12.9621Z" fill="#C9FF9E"/>
<path d="M62.5 128.5H49.5C56.7 128.5 61.1667 120.167 62.5 116V128.5Z" fill="#C9FF9E" fill-opacity="0.3"/>
<path d="M68 128.5H81C73.8 128.5 69.3333 120.167 68 116V128.5Z" fill="#C9FF9E" fill-opacity="0.3"/>
</svg>
