<svg width="253" height="153" viewBox="0 0 253 153" fill="none" xmlns="http://www.w3.org/2000/svg">
<g clip-path="url(#clip0_914_54)">
<path opacity="0.9" d="M0.381719 101.987L18.4442 106.262L18.2302 107.283L0 103.797L0.381719 101.987ZM4.88684 86.2278L20.3905 91.6793L20.5247 91.308L5.12594 85.5696L4.89104 86.2278H4.88684ZM11.6361 70.5401L28.264 78.827L28.7422 77.903L12.4877 68.8987L11.6361 70.5401ZM21.0365 54.9367L34.5099 64.3797L34.7364 64.0591L21.4392 54.3671L21.0365 54.9367ZM31.7372 41.654L45.5378 54.1308L46.2467 53.3713L32.9998 40.3038L31.7414 41.654H31.7372ZM58.8141 19.27L68.7681 35.0211L69.6532 34.481L60.3871 18.3122L58.8141 19.27ZM125.98 18.6582H127.016L127.419 0H125.577L125.98 18.6582ZM108.626 1.24895L111.005 17.5949L111.395 17.5401L109.318 1.15612L108.631 1.25316L108.626 1.24895ZM74.8924 10.8228L81.5536 25.9198L81.9144 25.7637L75.5342 10.5443L74.8966 10.8228H74.8924ZM44.9631 29.173L55.4164 41.9114L55.7226 41.6624L45.5085 28.73L44.9673 29.1688L44.9631 29.173ZM122.662 0.0590717L123.174 13.8228L123.53 13.8143L123.295 0.0421941L122.662 0.0590717ZM119.151 0.21097L120.036 13.9578L120.392 13.9367L119.784 0.177215L119.151 0.21097ZM115.644 0.459916L116.898 14.1772L117.255 14.1477L116.277 0.409283L115.644 0.459916ZM112.146 0.805907L113.773 14.481L114.13 14.443L112.779 0.738397L112.146 0.805907ZM105.182 1.78059L107.548 15.346L107.901 15.2869L105.812 1.67511L105.182 1.78059ZM101.722 2.4135L104.453 15.9114L104.805 15.8439L102.347 2.29536L101.722 2.41772V2.4135ZM98.2822 3.13924L101.378 16.557L101.726 16.481L98.903 3.00422L98.2822 3.14346V3.13924ZM94.8593 3.95781L98.3157 17.2869L98.6639 17.1983L95.4759 3.80169L94.8593 3.95781ZM88.0932 5.87764L92.2669 18.9958L92.6067 18.8903L88.7014 5.68776L88.0932 5.87764ZM84.75 6.97468L89.2761 19.9747L89.6159 19.8608L85.354 6.77215L84.75 6.9789V6.97468ZM81.4404 8.16456L86.3146 21.0338L86.6502 20.9072L82.036 7.94093L81.4404 8.16456ZM78.1643 9.44304L83.3867 22.1772L83.7181 22.0422L78.7516 9.20675L78.1601 9.44304H78.1643ZM71.717 12.27L77.619 24.6962L77.942 24.5443L72.2917 12L71.717 12.27ZM68.5542 13.8143L74.7918 26.0759L75.1106 25.9156L69.1205 13.5274L68.55 13.8143H68.5542ZM65.4333 15.443L72.0023 27.5274L72.3169 27.3586L65.9954 15.1392L65.4333 15.4388V15.443ZM69.5609 28.8819L62.9123 16.8439L62.3586 17.1603L69.2505 29.0633L69.5609 28.8861V28.8819ZM56.356 20.8354L63.8813 32.3418L64.1833 32.1477L56.8929 20.4895L56.3602 20.8354H56.356ZM53.4281 22.7975L61.2638 34.0928L61.5574 33.8903L53.9524 22.4346L53.4281 22.7932V22.7975ZM50.5589 24.8397L58.6966 35.9156L58.9861 35.7046L51.0748 24.4641L50.5589 24.8397ZM47.7442 26.9578L56.1798 37.8101L56.465 37.5907L48.2518 26.5696L47.7484 26.9578H47.7442ZM42.2911 31.4219L51.3014 41.7932L51.574 41.5612L42.7777 31.0084L42.2953 31.4262L42.2911 31.4219ZM39.6568 33.7637L48.9439 43.8861L49.2082 43.6456L40.1266 33.3376L39.6568 33.7679V33.7637ZM37.0855 36.1772L46.641 46.0422L46.9011 45.7932L37.5469 35.7342L37.0855 36.1772ZM44.6527 48.0042L35.0301 38.2068L34.5812 38.6624L44.401 48.2616L44.6527 48.0042ZM29.7825 43.8312L40.1057 52.8776L40.3448 52.6076L30.2061 43.3502L29.7825 43.827V43.8312ZM27.488 46.5105L38.0544 55.27L38.2852 54.9958L27.899 46.0211L27.488 46.5105ZM25.269 49.2532L36.0662 57.7215L36.2885 57.4388L25.6633 48.7511L25.269 49.2532ZM34.3631 59.9367L23.5072 51.5443L23.1255 52.0549L34.1492 60.2236L34.3631 59.9367ZM19.065 57.8312L30.5165 65.384L30.7137 65.0844L19.4173 57.2996L19.065 57.8312ZM17.1564 60.7975L28.8051 68.0338L28.9981 67.73L17.4962 60.2574L17.1564 60.7975ZM27.3495 70.4262L15.6505 63.27L15.3275 63.8186L27.1692 70.7342L27.3537 70.4262H27.3495ZM25.7765 73.1603L13.8887 66.3291L13.5783 66.8861L25.6045 73.4768L25.7807 73.1646L25.7765 73.1603ZM10.3358 73.1646L22.6976 79.0844L22.8528 78.7595L10.6126 72.5865L10.3316 73.1603L10.3358 73.1646ZM8.84665 76.3629L21.3637 81.9409L21.5105 81.6118L9.10672 75.7764L8.84246 76.3586L8.84665 76.3629ZM20.2437 84.5105L7.68472 79.0169L7.43723 79.6076L20.1011 84.8439L20.2395 84.5105H20.2437ZM19.0566 87.4388L6.35499 82.2911L6.12428 82.8861L18.9265 87.7722L19.0566 87.4388ZM16.9173 93.384L3.95562 88.9409L3.75846 89.5485L16.8082 93.7257L16.9215 93.384H16.9173ZM15.9693 96.3966L2.89435 92.308L2.71398 92.9198L15.8686 96.7384L15.9693 96.3924V96.3966ZM15.1052 99.4346L1.92118 95.7089L1.75339 96.3249L15.0087 99.7806L15.101 99.4346H15.1052ZM14.3208 102.498L1.04448 99.1308L0.893474 99.7511L14.2369 102.844L14.3208 102.494V102.498ZM90.8827 5.03376L96.2603 22.8987L97.2586 22.6203L92.657 4.54008L90.8827 5.03797V5.03376ZM252.618 101.987L234.556 106.262L234.77 107.283L253 103.797L252.618 101.987ZM247.878 85.5696L232.479 91.308L232.614 91.6793L248.117 86.2278L247.882 85.5696H247.878ZM240.508 68.8987L224.254 77.903L224.732 78.827L241.36 70.5401L240.508 68.8987ZM231.557 54.3671L218.259 64.0591L218.486 64.3797L231.959 54.9367L231.557 54.3671ZM220.004 40.3038L206.757 53.3713L207.466 54.1308L221.263 41.654L220.004 40.3038ZM192.609 18.3122L183.343 34.481L184.228 35.0211L194.182 19.27L192.609 18.3122ZM141.605 17.5401L141.991 17.5949L144.369 1.24895L143.682 1.1519L141.605 17.5359V17.5401ZM177.466 10.5485L171.086 25.7679L171.446 25.924L178.108 10.827L177.47 10.5485H177.466ZM207.496 28.73L197.282 41.6624L197.588 41.9114L208.041 29.173L207.5 28.7342L207.496 28.73ZM129.466 13.8101L129.822 13.8186L130.334 0.0548523L129.701 0.0379747L129.466 13.8101ZM132.607 13.9367L132.964 13.9578L133.849 0.21097L133.216 0.177215L132.607 13.9367ZM135.745 14.1477L136.102 14.1772L137.356 0.459916L136.723 0.409283L135.745 14.1477ZM138.874 14.443L139.231 14.481L140.858 0.805907L140.225 0.738397L138.874 14.443ZM145.099 15.2911L145.452 15.3502L147.818 1.78481L147.188 1.67932L145.099 15.2911ZM150.653 2.29114L148.195 15.8397L148.547 15.9072L151.278 2.40928L150.653 2.28692V2.29114ZM154.097 3L151.274 16.4768L151.622 16.5527L154.718 3.13502L154.097 2.99578V3ZM157.52 3.80591L154.332 17.2025L154.68 17.2911L158.137 3.96203L157.52 3.80591ZM164.299 5.68776L160.393 18.8903L160.733 18.9958L164.907 5.87764L164.299 5.68776ZM167.646 6.77215L163.384 19.8608L163.724 19.9747L168.25 6.97468L167.646 6.76793V6.77215ZM170.964 7.94515L166.35 20.9114L166.685 21.038L171.56 8.16878L170.964 7.94515ZM174.248 9.20675L169.282 22.0422L169.613 22.1772L174.836 9.44304L174.244 9.20675H174.248ZM180.704 12L175.054 24.5443L175.377 24.6962L181.279 12.27L180.704 12ZM183.875 13.5274L177.885 25.9156L178.204 26.0759L184.442 13.8143L183.871 13.5274H183.875ZM187.005 15.1435L180.683 27.3629L180.998 27.5316L187.567 15.4473L187.005 15.1477V15.1435ZM183.749 29.0591L190.641 17.1561L190.088 16.8397L183.439 28.8776L183.749 29.0549V29.0591ZM196.111 20.4895L188.821 32.1477L189.123 32.3418L196.648 20.8354L196.115 20.4895H196.111ZM199.048 22.4388L191.443 33.8945L191.736 34.097L199.572 22.8017L199.048 22.443V22.4388ZM201.925 24.4641L194.014 35.7046L194.303 35.9156L202.441 24.8397L201.925 24.4641ZM204.752 26.5696L196.539 37.5907L196.824 37.8101L205.26 26.9578L204.757 26.5696H204.752ZM210.226 31.0042L201.43 41.557L201.703 41.789L210.713 31.4177L210.231 31L210.226 31.0042ZM212.873 33.3376L203.792 43.6456L204.056 43.8861L213.343 33.7637L212.873 33.3333V33.3376ZM215.453 35.7384L206.099 45.7975L206.359 46.0464L215.915 36.1814L215.453 35.7384ZM208.595 48.2616L218.415 38.6624L217.966 38.2068L208.343 48.0042L208.595 48.2616ZM222.794 43.3502L212.655 52.6076L212.894 52.8776L223.218 43.8312L222.794 43.3544V43.3502ZM225.101 46.0211L214.715 54.9958L214.946 55.27L225.512 46.5105L225.101 46.0211ZM227.333 48.7511L216.707 57.4388L216.93 57.7215L227.727 49.2532L227.333 48.7511ZM218.851 60.2236L229.875 52.0549L229.493 51.5443L218.637 59.9367L218.851 60.2236ZM233.578 57.2996L222.282 65.0844L222.479 65.384L233.931 57.8312L233.578 57.2996ZM235.504 60.2574L224.002 67.73L224.195 68.0338L235.844 60.7975L235.504 60.2574ZM225.831 70.7342L237.672 63.8186L237.35 63.27L225.65 70.4262L225.835 70.7342H225.831ZM227.395 73.4768L239.422 66.8861L239.111 66.3291L227.223 73.1603L227.4 73.4726L227.395 73.4768ZM242.383 72.5865L230.143 78.7595L230.298 79.0844L242.66 73.1646L242.379 72.5907L242.383 72.5865ZM243.889 75.7848L231.485 81.6203L231.632 81.9494L244.149 76.3713L243.885 75.789L243.889 75.7848ZM232.895 84.8397L245.559 79.6034L245.311 79.0127L232.752 84.5063L232.891 84.8397H232.895ZM234.073 87.7722L246.876 82.8861L246.645 82.2911L233.943 87.4388L234.073 87.7722ZM236.192 93.7257L249.242 89.5485L249.044 88.9409L236.083 93.384L236.196 93.7257H236.192ZM237.131 96.7426L250.286 92.924L250.106 92.3122L237.031 96.4008L237.131 96.7468V96.7426ZM237.987 99.7848L251.242 96.3291L251.075 95.7131L237.891 99.4388L237.983 99.7848H237.987ZM238.763 102.848L252.107 99.7553L251.956 99.135L238.679 102.502L238.763 102.852V102.848ZM160.343 4.53586L155.741 22.616L156.74 22.8945L162.117 5.02954L160.343 4.53165V4.53586Z" fill="url(#paint0_radial_914_54)"/>
<path d="M213.733 113.139V112.211C213.733 112.122 213.767 112.055 213.834 111.979C214.715 111.093 215.495 110.177 216.229 109.38C216.825 108.717 217.232 108.131 217.232 107.722C217.232 107.203 216.837 106.835 216.242 106.835C215.646 106.835 215.252 107.203 215.252 107.743V107.962C215.252 108.084 215.185 108.152 215.063 108.152H213.876C213.754 108.152 213.687 108.084 213.687 107.962V107.498C213.754 106.27 214.832 105.494 216.238 105.494C217.832 105.494 218.8 106.477 218.8 107.684C218.8 108.325 218.461 108.966 217.878 109.688C217.316 110.384 216.602 111.106 215.843 111.911C215.801 111.945 215.822 111.987 215.877 111.987H218.759C218.88 111.987 218.947 112.055 218.947 112.177V113.139C218.947 113.262 218.88 113.329 218.759 113.329H213.918C213.796 113.329 213.729 113.262 213.729 113.139H213.733Z" fill="#5E5E5E"/>
<path d="M219.904 110.916V107.996C219.904 106.46 220.906 105.498 222.521 105.498C224.136 105.498 225.147 106.46 225.147 107.996V110.916C225.147 112.477 224.136 113.447 222.521 113.447C220.906 113.447 219.904 112.473 219.904 110.916ZM223.595 110.992V107.949C223.595 107.266 223.176 106.831 222.517 106.831C221.858 106.831 221.452 107.262 221.452 107.949V110.992C221.452 111.679 221.871 112.11 222.517 112.11C223.163 112.11 223.595 111.679 223.595 110.992Z" fill="#5E5E5E"/>
<path d="M226.171 110.916V107.996C226.171 106.46 227.173 105.498 228.788 105.498C230.403 105.498 231.414 106.46 231.414 107.996V110.916C231.414 112.477 230.403 113.447 228.788 113.447C227.173 113.447 226.171 112.473 226.171 110.916ZM229.862 110.992V107.949C229.862 107.266 229.442 106.831 228.784 106.831C228.125 106.831 227.718 107.262 227.718 107.949V110.992C227.718 111.679 228.138 112.11 228.784 112.11C229.43 112.11 229.862 111.679 229.862 110.992Z" fill="#5E5E5E"/>
<path d="M208.477 79.5401H209.719C209.841 79.5401 209.908 79.6076 209.908 79.73V87.0971C209.908 87.2194 209.841 87.2869 209.719 87.2869H208.544C208.423 87.2869 208.356 87.2194 208.356 87.0971V81.0675C208.356 81.0211 208.322 80.9916 208.28 81L207.311 81.1983C207.19 81.2194 207.101 81.1519 207.101 81.0338V80.1941C207.101 80.0928 207.148 80.0169 207.244 79.9831L208.247 79.5865C208.322 79.5528 208.389 79.5443 208.477 79.5443V79.5401Z" fill="#5E5E5E"/>
<path d="M216.032 85.0295C216.032 85.5148 215.931 85.8608 215.78 86.1561C215.394 86.8987 214.572 87.3713 213.473 87.3713C212.45 87.3713 211.602 86.9494 211.187 86.1308C211.011 85.789 210.923 85.4346 210.923 85.0127C210.923 84.557 211.032 84.1603 211.174 83.8608C211.317 83.5949 211.506 83.384 211.737 83.2194C211.779 83.1857 211.779 83.1519 211.737 83.1308C211.527 82.9747 211.363 82.789 211.229 82.5781C211.065 82.2996 210.965 81.9705 210.965 81.5696C210.965 81.1055 211.095 80.6962 211.326 80.3629C211.753 79.7426 212.534 79.3882 213.482 79.3882C214.539 79.3882 215.352 79.7764 215.759 80.5696C215.881 80.8017 216.011 81.1688 216.011 81.5781C216.011 81.9536 215.91 82.2743 215.734 82.5527C215.592 82.7637 215.415 82.9494 215.206 83.1181C215.164 83.1392 215.164 83.173 215.206 83.2068C215.449 83.3629 215.646 83.5738 215.789 83.8692C215.944 84.1772 216.032 84.5527 216.032 85.0211V85.0295ZM212.504 81.7637C212.504 81.9831 212.559 82.1941 212.659 82.3502C212.823 82.6287 213.121 82.7722 213.486 82.7722C213.88 82.7722 214.178 82.616 214.342 82.3418C214.442 82.1772 214.484 81.9662 214.484 81.7553C214.484 81.557 214.451 81.3797 214.375 81.2363C214.211 80.9156 213.901 80.7384 213.486 80.7384C213.071 80.7384 212.773 80.9156 212.617 81.2152C212.542 81.3713 212.508 81.5696 212.508 81.7679L212.504 81.7637ZM214.484 84.8734C214.484 84.6624 214.438 84.4515 214.375 84.2996C214.22 83.9451 213.914 83.7468 213.486 83.7468C213.058 83.7468 212.794 83.9451 212.63 84.2869C212.555 84.4515 212.508 84.6751 212.508 84.8945C212.508 85.2025 212.576 85.4473 212.685 85.6371C212.848 85.903 213.125 86.0591 213.486 86.0591C213.847 86.0591 214.111 85.9156 214.279 85.6709C214.409 85.4726 214.488 85.2067 214.488 84.8734H214.484Z" fill="#5E5E5E"/>
<path d="M216.967 84.8734V81.9536C216.967 80.4177 217.97 79.4557 219.585 79.4557C221.2 79.4557 222.211 80.4177 222.211 81.9536V84.8734C222.211 86.4346 221.2 87.4051 219.585 87.4051C217.97 87.4051 216.967 86.4304 216.967 84.8734ZM220.659 84.9494V81.9072C220.659 81.2194 220.239 80.789 219.581 80.789C218.922 80.789 218.515 81.2194 218.515 81.9072V84.9494C218.515 85.6329 218.935 86.0675 219.581 86.0675C220.227 86.0675 220.659 85.6371 220.659 84.9494Z" fill="#5E5E5E"/>
<path d="M192.995 56.8524H194.236C194.358 56.8524 194.425 56.9199 194.425 57.0422V64.4093C194.425 64.5317 194.358 64.5992 194.236 64.5992H193.062C192.94 64.5992 192.873 64.5317 192.873 64.4093V58.3798C192.873 58.3376 192.839 58.3038 192.797 58.3123L191.828 58.5106C191.707 58.5317 191.619 58.4684 191.619 58.346V57.5064C191.619 57.4051 191.665 57.3291 191.761 57.2954L192.764 56.8988C192.839 56.865 192.907 56.8524 192.995 56.8524Z" fill="#5E5E5E"/>
<path d="M200.57 62.1182C200.57 62.5612 200.495 62.9494 200.361 63.2701C199.987 64.1308 199.152 64.6751 198.041 64.6751C196.929 64.6751 196.048 64.1224 195.688 63.1941C195.558 62.8734 195.49 62.4979 195.49 62.1097V58.7806C195.49 57.5654 196.501 56.7679 197.965 56.7679C199.429 56.7679 200.386 57.5654 200.386 58.7468V59C200.386 59.1224 200.319 59.1899 200.197 59.1899H199.018C198.897 59.1899 198.829 59.135 198.829 59.0675V58.9578C198.829 58.4726 198.477 58.1055 197.961 58.1055C197.445 58.1055 197.038 58.4726 197.038 58.9916V60.0085C197.038 60.0633 197.072 60.0844 197.114 60.0422C197.466 59.7553 197.881 59.6667 198.301 59.6667C199.169 59.6667 199.907 60.076 200.302 60.8523C200.491 61.2068 200.566 61.6371 200.566 62.1224L200.57 62.1182ZM199.018 62.1393C199.018 61.8861 198.964 61.6076 198.842 61.4093C198.666 61.1224 198.402 60.9663 198.041 60.9663C197.647 60.9663 197.37 61.1224 197.214 61.422C197.093 61.6329 197.051 61.9198 197.051 62.1646C197.051 62.4093 197.097 62.6498 197.194 62.8397C197.349 63.1477 197.621 63.3249 198.028 63.3249C198.435 63.3249 198.699 63.135 198.855 62.8397C198.964 62.6498 199.018 62.4093 199.018 62.1435V62.1393Z" fill="#5E5E5E"/>
<path d="M201.434 62.1815V59.2616C201.434 57.7258 202.437 56.7637 204.052 56.7637C205.667 56.7637 206.678 57.7258 206.678 59.2616V62.1815C206.678 63.7426 205.667 64.7131 204.052 64.7131C202.437 64.7131 201.434 63.7384 201.434 62.1815ZM205.13 62.2616V59.2194C205.13 58.5317 204.71 58.1013 204.052 58.1013C203.393 58.1013 202.986 58.5317 202.986 59.2194V62.2616C202.986 62.9494 203.406 63.3798 204.052 63.3798C204.698 63.3798 205.13 62.9494 205.13 62.2616Z" fill="#5E5E5E"/>
<path d="M172.625 39.751H173.867C173.988 39.751 174.055 39.8186 174.055 39.9409V47.308C174.055 47.4304 173.988 47.4979 173.867 47.4979H172.692C172.571 47.4979 172.503 47.4304 172.503 47.308V41.2785C172.503 41.2363 172.47 41.2025 172.428 41.211L171.459 41.4093C171.337 41.4304 171.249 41.3671 171.249 41.2447V40.405C171.249 40.3038 171.295 40.2278 171.392 40.1941L172.394 39.7975C172.47 39.7637 172.537 39.751 172.625 39.751Z" fill="#5E5E5E"/>
<path d="M180.792 44.308V45.3164C180.792 45.4388 180.725 45.5063 180.603 45.5063H180.209C180.167 45.5063 180.142 45.5274 180.142 45.5738V47.3122C180.142 47.4346 180.075 47.5021 179.953 47.5021H178.775C178.653 47.5021 178.586 47.4346 178.586 47.3122V45.5738C178.586 45.5316 178.565 45.5063 178.519 45.5063H175.196C175.075 45.5063 175.008 45.4388 175.008 45.3164V44.519C175.008 44.4304 175.02 44.3755 175.05 44.2869L177.009 39.8945C177.055 39.8059 177.13 39.751 177.227 39.751H178.481C178.624 39.751 178.678 39.8523 178.624 39.9704L176.82 44.0422C176.799 44.097 176.832 44.1181 176.874 44.1181H178.514C178.556 44.1181 178.582 44.097 178.582 44.0506V42.7468C178.582 42.6245 178.649 42.5569 178.77 42.5569H179.949C180.071 42.5569 180.138 42.6245 180.138 42.7468V44.0506C180.138 44.0844 180.159 44.1181 180.205 44.1181H180.599C180.721 44.1181 180.788 44.1856 180.788 44.308H180.792Z" fill="#5E5E5E"/>
<path d="M181.816 45.0802V42.1603C181.816 40.6245 182.818 39.6624 184.433 39.6624C186.048 39.6624 187.059 40.6245 187.059 42.1603V45.0802C187.059 46.6413 186.048 47.6118 184.433 47.6118C182.818 47.6118 181.816 46.6371 181.816 45.0802ZM185.511 45.1603V42.1181C185.511 41.4304 185.092 41 184.433 41C183.775 41 183.368 41.4304 183.368 42.1181V45.1603C183.368 45.8481 183.787 46.2785 184.433 46.2785C185.079 46.2785 185.511 45.8481 185.511 45.1603Z" fill="#5E5E5E"/>
<path d="M148.245 27.6498H149.487C149.609 27.6498 149.676 27.7173 149.676 27.8397V35.2067C149.676 35.3291 149.609 35.3966 149.487 35.3966H148.313C148.191 35.3966 148.124 35.3291 148.124 35.2067V29.1772C148.124 29.135 148.09 29.1013 148.048 29.1097L147.079 29.308C146.958 29.3291 146.87 29.2658 146.87 29.1435V28.3038C146.87 28.2025 146.916 28.1266 147.012 28.0928L148.015 27.6962C148.09 27.6624 148.157 27.654 148.245 27.654V27.6498Z" fill="#5E5E5E"/>
<path d="M150.775 35.2025V34.2742C150.775 34.1856 150.808 34.1181 150.875 34.0422C151.756 33.1561 152.537 32.2405 153.271 31.443C153.866 30.7806 154.273 30.1941 154.273 29.7848C154.273 29.2658 153.879 28.8987 153.283 28.8987C152.688 28.8987 152.293 29.2658 152.293 29.8059V30.0253C152.293 30.1477 152.226 30.2152 152.105 30.2152H150.917C150.796 30.2152 150.729 30.1477 150.729 30.0253V29.5612C150.796 28.3333 151.874 27.5569 153.279 27.5569C154.873 27.5569 155.842 28.5401 155.842 29.7468C155.842 30.3882 155.502 31.0295 154.919 31.751C154.357 32.4472 153.644 33.1688 152.885 33.9747C152.843 34.0084 152.864 34.0506 152.918 34.0506H155.8C155.922 34.0506 155.989 34.1181 155.989 34.2405V35.2025C155.989 35.3249 155.922 35.3924 155.8 35.3924H150.959C150.838 35.3924 150.771 35.3249 150.771 35.2025H150.775Z" fill="#5E5E5E"/>
<path d="M156.941 32.9789V30.059C156.941 28.5232 157.944 27.5612 159.559 27.5612C161.174 27.5612 162.184 28.5232 162.184 30.059V32.9789C162.184 34.5401 161.174 35.5105 159.559 35.5105C157.944 35.5105 156.941 34.5358 156.941 32.9789ZM160.637 33.0548V30.0126C160.637 29.3249 160.217 28.8945 159.559 28.8945C158.9 28.8945 158.493 29.3249 158.493 30.0126V33.0548C158.493 33.7426 158.913 34.173 159.559 34.173C160.205 34.173 160.637 33.7426 160.637 33.0548Z" fill="#5E5E5E"/>
<path d="M120.208 22.5105H121.45C121.571 22.5105 121.638 22.578 121.638 22.7004V30.0675C121.638 30.1899 121.571 30.2574 121.45 30.2574H120.275C120.153 30.2574 120.086 30.1899 120.086 30.0675V24.038C120.086 23.9958 120.053 23.962 120.011 23.9704L119.042 24.1688C118.92 24.1899 118.832 24.1266 118.832 24.0042V23.1645C118.832 23.0633 118.878 22.9873 118.975 22.9536L119.977 22.5569C120.053 22.5232 120.12 22.5147 120.208 22.5147V22.5105Z" fill="#5E5E5E"/>
<path d="M122.746 27.8439V24.924C122.746 23.3882 123.748 22.4261 125.363 22.4261C126.978 22.4261 127.989 23.3882 127.989 24.924V27.8439C127.989 29.405 126.978 30.3755 125.363 30.3755C123.748 30.3755 122.746 29.4008 122.746 27.8439ZM126.441 27.9198V24.8776C126.441 24.1899 126.022 23.7595 125.363 23.7595C124.705 23.7595 124.298 24.1899 124.298 24.8776V27.9198C124.298 28.6076 124.717 29.038 125.363 29.038C126.009 29.038 126.441 28.6076 126.441 27.9198Z" fill="#5E5E5E"/>
<path d="M129.013 27.8439V24.924C129.013 23.3882 130.015 22.4261 131.63 22.4261C133.245 22.4261 134.256 23.3882 134.256 24.924V27.8439C134.256 29.405 133.245 30.3755 131.63 30.3755C130.015 30.3755 129.013 29.4008 129.013 27.8439ZM132.708 27.9198V24.8776C132.708 24.1899 132.289 23.7595 131.63 23.7595C130.972 23.7595 130.565 24.1899 130.565 24.8776V27.9198C130.565 28.6076 130.984 29.038 131.63 29.038C132.276 29.038 132.708 28.6076 132.708 27.9198Z" fill="#5E5E5E"/>
<path d="M98.924 32.0549C98.924 32.5401 98.8233 32.8861 98.6723 33.1814C98.2864 33.9241 97.4642 34.3966 96.3652 34.3966C95.3417 34.3966 94.4943 33.9747 94.0791 33.1561C93.9029 32.8144 93.8148 32.4599 93.8148 32.038C93.8148 31.5865 93.9239 31.1857 94.0665 30.8861C94.2091 30.6203 94.3979 30.4093 94.6286 30.2447C94.6705 30.211 94.6705 30.1772 94.6286 30.1561C94.4188 30 94.2552 29.8144 94.121 29.6034C93.9574 29.3249 93.8567 28.9958 93.8567 28.5949C93.8567 28.1308 93.9868 27.7215 94.2175 27.3882C94.6453 26.7679 95.4256 26.4135 96.3736 26.4135C97.4306 26.4135 98.2444 26.8017 98.6513 27.5949C98.7729 27.827 98.903 28.1941 98.903 28.6034C98.903 28.9789 98.8023 29.2996 98.6261 29.5781C98.4835 29.789 98.3073 29.9747 98.0976 30.1435C98.0556 30.1646 98.0556 30.1983 98.0976 30.2321C98.3409 30.3882 98.538 30.5992 98.6807 30.8945C98.8359 31.2025 98.924 31.5823 98.924 32.0464V32.0549ZM95.3962 28.7933C95.3962 29.0127 95.4507 29.2236 95.5514 29.3798C95.715 29.6582 96.0128 29.8017 96.3778 29.8017C96.7721 29.8017 97.0699 29.6456 97.2335 29.3713C97.3342 29.2068 97.3761 28.9958 97.3761 28.7848C97.3761 28.5865 97.3425 28.4093 97.267 28.2658C97.1034 27.9452 96.793 27.7679 96.3778 27.7679C95.9625 27.7679 95.6647 27.9452 95.5095 28.2447C95.434 28.4009 95.4004 28.5992 95.4004 28.7975L95.3962 28.7933ZM97.3761 31.903C97.3761 31.692 97.33 31.481 97.267 31.3291C97.1118 30.9747 96.8056 30.7764 96.3778 30.7764C95.9499 30.7764 95.6856 30.9747 95.522 31.3165C95.4465 31.481 95.4004 31.7047 95.4004 31.9241C95.4004 32.2321 95.4675 32.4768 95.5766 32.6667C95.7402 32.9325 96.017 33.0886 96.3778 33.0886C96.7385 33.0886 97.0028 32.9452 97.1706 32.7004C97.3006 32.5021 97.3803 32.2363 97.3803 31.903H97.3761Z" fill="#5E5E5E"/>
<path d="M99.8594 31.903V28.9832C99.8594 27.4473 100.862 26.4853 102.477 26.4853C104.092 26.4853 105.103 27.4473 105.103 28.9832V31.903C105.103 33.4642 104.092 34.4346 102.477 34.4346C100.862 34.4346 99.8594 33.4599 99.8594 31.903ZM103.555 31.9789V28.9367C103.555 28.249 103.135 27.8186 102.477 27.8186C101.818 27.8186 101.411 28.249 101.411 28.9367V31.9789C101.411 32.6667 101.831 33.0971 102.477 33.0971C103.123 33.0971 103.555 32.6667 103.555 31.9789Z" fill="#5E5E5E"/>
<path d="M72.6189 44.1645C72.6189 44.6076 72.5434 44.9958 72.4092 45.3164C72.0358 46.1772 71.2011 46.7215 70.0895 46.7215C68.9779 46.7215 68.097 46.1688 67.7362 45.2405C67.6062 44.9198 67.5391 44.5443 67.5391 44.1561V40.827C67.5391 39.6118 68.55 38.8143 70.014 38.8143C71.4779 38.8143 72.4343 39.6118 72.4343 40.7932V41.0464C72.4343 41.1688 72.3672 41.2363 72.2456 41.2363H71.0668C70.9452 41.2363 70.8781 41.1814 70.8781 41.1139V41.0042C70.8781 40.519 70.5257 40.1519 70.0098 40.1519C69.4938 40.1519 69.0869 40.519 69.0869 41.038V42.0548C69.0869 42.1097 69.1205 42.1308 69.1625 42.0886C69.5148 41.8017 69.9343 41.7131 70.3496 41.7131C71.2179 41.7131 71.9561 42.1223 72.3504 42.8987C72.5392 43.2531 72.6147 43.6835 72.6147 44.1688L72.6189 44.1645ZM71.0668 44.1856C71.0668 43.9325 71.0123 43.654 70.8907 43.4557C70.7145 43.1688 70.4502 43.0126 70.0895 43.0126C69.6952 43.0126 69.4183 43.1688 69.2631 43.4683C69.1415 43.6793 69.0995 43.9662 69.0995 44.211C69.0995 44.4557 69.1457 44.6962 69.2422 44.8861C69.3974 45.1941 69.67 45.3713 70.0769 45.3713C70.4838 45.3713 70.7481 45.1814 70.9033 44.8861C71.0123 44.6962 71.0668 44.4557 71.0668 44.1899V44.1856Z" fill="#5E5E5E"/>
<path d="M73.4872 44.2321V41.3122C73.4872 39.7764 74.4897 38.8143 76.1047 38.8143C77.7197 38.8143 78.7306 39.7764 78.7306 41.3122V44.2321C78.7306 45.7932 77.7197 46.7637 76.1047 46.7637C74.4897 46.7637 73.4872 45.789 73.4872 44.2321ZM77.1786 44.308V41.2658C77.1786 40.578 76.7591 40.1477 76.1005 40.1477C75.4419 40.1477 75.0351 40.578 75.0351 41.2658V44.308C75.0351 44.9958 75.4545 45.4261 76.1005 45.4261C76.7465 45.4261 77.1786 44.9958 77.1786 44.308Z" fill="#5E5E5E"/>
<path d="M51.7082 60.9958V62.0042C51.7082 62.1266 51.6411 62.1941 51.5195 62.1941H51.1252C51.0832 62.1941 51.0581 62.2152 51.0581 62.2616V64C51.0581 64.1224 50.9909 64.1899 50.8693 64.1899H49.6906C49.5689 64.1899 49.5018 64.1224 49.5018 64V62.2616C49.5018 62.2194 49.4809 62.1941 49.4347 62.1941H46.1125C45.9909 62.1941 45.9237 62.1266 45.9237 62.0042V61.2067C45.9237 61.1181 45.9363 61.0633 45.9657 60.9747L47.9246 56.5823C47.9708 56.4937 48.0463 56.4388 48.1427 56.4388H49.397C49.5396 56.4388 49.5941 56.5401 49.5396 56.6582L47.7359 60.73C47.7149 60.7848 47.7484 60.8059 47.7904 60.8059H49.4305C49.4725 60.8059 49.4976 60.7848 49.4976 60.7384V59.4346C49.4976 59.3122 49.5647 59.2447 49.6864 59.2447H50.8651C50.9868 59.2447 51.0539 59.3122 51.0539 59.4346V60.7384C51.0539 60.7721 51.0748 60.8059 51.121 60.8059H51.5153C51.6369 60.8059 51.7041 60.8734 51.7041 60.9958H51.7082Z" fill="#5E5E5E"/>
<path d="M52.7276 61.7722V58.8523C52.7276 57.3165 53.7301 56.3544 55.3451 56.3544C56.96 56.3544 57.971 57.3165 57.971 58.8523V61.7722C57.971 63.3333 56.96 64.3038 55.3451 64.3038C53.7301 64.3038 52.7276 63.3291 52.7276 61.7722ZM56.4231 61.8481V58.8059C56.4231 58.1181 56.0036 57.6878 55.3451 57.6878C54.6865 57.6878 54.2796 58.1181 54.2796 58.8059V61.8481C54.2796 62.5359 54.6991 62.9662 55.3451 62.9662C55.9911 62.9662 56.4231 62.5359 56.4231 61.8481Z" fill="#5E5E5E"/>
<path d="M31.7456 85.7089V84.7806C31.7456 84.692 31.7792 84.6245 31.8463 84.5485C32.7272 83.6625 33.5074 82.7468 34.2415 81.9494C34.8371 81.2869 35.244 80.7004 35.244 80.2911C35.244 79.7722 34.8497 79.4051 34.254 79.4051C33.6584 79.4051 33.2641 79.7722 33.2641 80.3122V80.5317C33.2641 80.654 33.197 80.7215 33.0753 80.7215H31.8882C31.7666 80.7215 31.6995 80.654 31.6995 80.5317V80.0675C31.7666 78.8397 32.8446 78.0633 34.2498 78.0633C35.8438 78.0633 36.8128 79.0464 36.8128 80.2532C36.8128 80.8945 36.473 81.5359 35.89 82.2574C35.3279 82.9536 34.6148 83.6751 33.8555 84.481C33.8136 84.5148 33.8346 84.557 33.8891 84.557H36.7709C36.8925 84.557 36.9596 84.6245 36.9596 84.7468V85.7089C36.9596 85.8312 36.8925 85.8987 36.7709 85.8987H31.9302C31.8085 85.8987 31.7414 85.8312 31.7414 85.7089H31.7456Z" fill="#5E5E5E"/>
<path d="M37.916 83.4895V80.5696C37.916 79.0338 38.9186 78.0717 40.5335 78.0717C42.1485 78.0717 43.1594 79.0338 43.1594 80.5696V83.4895C43.1594 85.0506 42.1485 86.0211 40.5335 86.0211C38.9186 86.0211 37.916 85.0464 37.916 83.4895ZM41.6074 83.5654V80.5232C41.6074 79.8355 41.1879 79.4051 40.5293 79.4051C39.8708 79.4051 39.4639 79.8355 39.4639 80.5232V83.5654C39.4639 84.249 39.8833 84.6836 40.5293 84.6836C41.1753 84.6836 41.6074 84.2532 41.6074 83.5654Z" fill="#5E5E5E"/>
<path d="M22.5466 110.236V107.316C22.5466 105.781 23.5491 104.819 25.1641 104.819C26.7791 104.819 27.79 105.781 27.79 107.316V110.236C27.79 111.797 26.7791 112.768 25.1641 112.768C23.5491 112.768 22.5466 111.793 22.5466 110.236ZM26.2421 110.312V107.27C26.2421 106.587 25.8227 106.152 25.1641 106.152C24.5055 106.152 24.0986 106.582 24.0986 107.27V110.312C24.0986 111 24.5181 111.43 25.1641 111.43C25.8101 111.43 26.2421 111 26.2421 110.312Z" fill="#5E5E5E"/>
<path d="M126.496 153C125.573 152.954 124.633 152.958 123.723 152.823C122.393 152.62 121.101 152.388 119.814 151.992C117.364 151.245 115.065 150.127 112.985 148.62C108.87 145.641 105.816 141.376 104.323 136.502C102.75 131.363 103.052 125.89 104.994 120.899C106.764 116.342 110.132 112.363 114.268 109.802C117.045 108.08 120.086 107.042 123.291 106.544C127.331 105.916 131.592 106.511 135.355 108.076C139.856 109.945 143.858 113.283 146.328 117.527C149.009 122.131 150.25 127.494 149.5 132.814C148.782 137.92 146.421 142.692 142.759 146.304C140.947 148.089 138.845 149.603 136.551 150.7C135.447 151.228 134.302 151.658 133.132 152.013C131.84 152.405 130.54 152.633 129.21 152.835C128.321 152.97 127.402 152.958 126.504 153.004L126.496 153ZM126.496 153C127.549 152.945 128.597 152.911 129.642 152.751C131.03 152.536 132.373 152.232 133.707 151.789C136.328 150.916 138.732 149.561 140.863 147.797C145.166 144.228 147.985 139.135 148.828 133.595C149.235 130.924 149.126 128.16 148.581 125.519C148.006 122.73 146.823 120.165 145.33 117.759C142.981 113.983 139.285 111.165 135.296 109.35C132.779 108.207 130.003 107.726 127.263 107.591C124.935 107.477 122.653 107.827 120.405 108.405C116.345 109.443 112.582 111.937 109.776 115.017C106.105 119.042 103.916 124.536 103.903 130.008C103.89 135.447 105.77 140.878 109.302 145.021C111.068 147.093 113.224 148.882 115.602 150.194C118.06 151.553 120.741 152.346 123.501 152.776C124.491 152.932 125.493 152.949 126.496 153.004V153Z" fill="url(#paint1_linear_914_54)"/>
<path d="M137.091 140.54C142.939 134.658 142.939 125.12 137.091 119.237C131.243 113.355 121.761 113.355 115.913 119.237C110.065 125.12 110.065 134.658 115.913 140.54C121.761 146.423 131.243 146.423 137.091 140.54Z" fill="url(#paint2_radial_914_54)"/>
<g style="mix-blend-mode:multiply" opacity="0.9">
<path opacity="0.1" d="M123.399 163.324L124.135 144.617C124.384 138.233 121.41 137.478 121.445 132.51C121.478 127.359 124.606 126.527 124.797 120.414C124.797 120.414 128.064 3.11399 128.066 3.09689C128.274 0.121658 131.532 -0.856205 131.707 3.38577C131.708 3.4045 135.65 119.367 135.65 119.367C135.758 125.141 138.876 126.662 138.844 131.527C138.811 136.623 135.824 137.142 135.992 143.579L136.476 162.303C136.904 173.377 122.852 172.56 123.394 163.327L123.399 163.324Z" fill="white"/>
<path opacity="0.11" d="M123.392 163.353L124.125 144.554C124.375 138.188 121.411 137.433 121.443 132.491C121.477 127.372 124.592 126.539 124.785 120.441C124.785 120.441 128.03 3.36826 128.046 3.0793C128.193 0.128612 131.532 -0.833632 131.661 3.36611C131.669 3.66101 135.568 118.986 135.589 119.382C135.698 125.175 138.81 126.666 138.78 131.527C138.75 136.616 135.765 137.14 135.929 143.575C135.927 143.647 136.42 162.316 136.42 162.316C136.845 173.343 122.852 172.528 123.395 163.355L123.392 163.353Z" fill="#FDFDFD"/>
<path opacity="0.12" d="M123.38 163.38L124.112 144.485C124.361 138.137 121.411 137.379 121.44 132.467C121.473 127.38 124.575 126.546 124.766 120.464C124.766 120.464 127.988 3.6193 128.018 3.05849C128.161 0.138139 131.479 -0.805805 131.602 3.34159C131.62 3.90879 135.472 118.605 135.51 119.395C135.624 125.208 138.727 126.668 138.701 131.53C138.676 136.607 135.692 137.141 135.853 143.57C135.853 143.711 136.345 162.33 136.345 162.33C136.762 173.312 122.838 172.495 123.375 163.382L123.38 163.38Z" fill="#FBFBFB"/>
<path opacity="0.14" d="M123.369 163.407L124.104 144.418C124.354 138.088 121.414 137.33 121.444 132.446C121.478 127.391 124.568 126.552 124.76 120.489C124.76 120.489 127.96 3.87136 128.001 3.0332C128.145 0.144823 131.435 -0.787957 131.555 3.31259C131.582 4.15209 135.385 118.213 135.448 119.401C135.564 125.233 138.661 126.663 138.64 131.523C138.615 136.591 135.635 137.135 135.79 143.557C135.788 143.77 136.289 162.333 136.289 162.333C136.701 173.273 122.841 172.455 123.37 163.403L123.369 163.407Z" fill="#F8F8F8"/>
<path opacity="0.15" d="M123.361 163.436L124.094 144.354C124.341 138.042 121.41 137.283 121.443 132.427C121.477 127.404 124.554 126.564 124.743 120.519C124.743 120.519 127.921 4.12792 127.976 3.0179C128.116 0.159864 131.38 -0.756276 131.499 3.29356C131.533 4.40922 135.291 117.837 135.374 119.415C135.494 125.267 138.586 126.667 138.565 131.528C138.543 136.588 135.565 137.137 135.716 143.558C135.711 143.843 136.217 162.353 136.217 162.353C136.62 173.248 122.828 172.431 123.356 163.438L123.361 163.436Z" fill="#F6F6F6"/>
<path opacity="0.16" d="M123.35 163.463L124.082 144.285C124.33 137.992 121.41 137.228 121.443 132.405C121.479 127.41 124.541 126.572 124.734 120.542C124.734 120.542 127.887 4.38217 127.957 2.99643C128.094 0.168734 131.334 -0.734582 131.454 3.27004C131.493 4.65637 135.206 117.451 135.313 119.43C135.44 125.299 138.52 126.672 138.505 131.53C138.487 136.578 135.51 137.137 135.658 143.556C135.65 143.912 136.159 162.37 136.159 162.37C136.557 173.222 122.826 172.403 123.352 163.468L123.35 163.463Z" fill="#F4F4F4"/>
<path opacity="0.17" d="M123.339 163.49L124.073 144.218C124.321 137.938 121.413 137.179 121.443 132.382C121.476 127.417 124.53 126.577 124.718 120.567C124.718 120.567 127.85 4.6349 127.933 2.97731C128.07 0.181582 131.281 -0.70673 131.399 3.24718C131.446 4.90968 135.116 117.067 135.24 119.44C135.368 125.328 138.442 126.671 138.431 131.531C138.417 136.571 135.437 137.138 135.587 143.55C135.582 143.975 136.096 162.38 136.096 162.38C136.491 173.185 122.822 172.37 123.342 163.492L123.339 163.49Z" fill="#F2F2F2"/>
<path opacity="0.18" d="M123.333 163.515L124.065 144.151C124.31 137.888 121.417 137.126 121.444 132.359C121.477 127.427 124.518 126.585 124.709 120.59C124.709 120.59 127.818 4.88534 127.911 2.95426C128.044 0.18887 131.232 -0.686642 131.346 3.22042C131.403 5.15522 135.022 116.682 135.172 119.448C135.306 125.356 138.37 126.668 138.361 131.524C138.35 136.557 135.372 137.129 135.515 143.537C135.507 144.035 136.024 162.386 136.024 162.386C136.411 173.147 122.81 172.333 123.327 163.517L123.333 163.515Z" fill="#F0F0F0"/>
<path opacity="0.19" d="M123.321 163.542L124.053 144.082C124.299 137.838 121.415 137.075 121.444 132.337C121.477 127.436 124.507 126.59 124.699 120.614C124.699 120.614 127.785 5.13578 127.894 2.92898C128.027 0.195564 131.186 -0.664945 131.301 3.18754C131.366 5.39464 134.94 116.288 135.106 119.452C135.241 125.379 138.304 126.663 138.294 131.519C138.284 136.538 135.311 137.122 135.45 143.528C135.44 144.097 135.965 162.397 135.965 162.397C136.346 173.115 122.81 172.301 123.321 163.542Z" fill="#EDEDED"/>
<path opacity="0.21" d="M123.31 163.569L124.045 144.015C124.288 137.787 121.414 137.025 121.445 132.314C121.478 127.446 124.494 126.598 124.684 120.639C124.684 120.639 127.748 5.38841 127.87 2.90975C128.001 0.202811 131.135 -0.641034 131.246 3.16461C131.319 5.64787 134.846 115.903 135.033 119.463C135.173 125.41 138.225 126.666 138.222 131.516C138.215 136.527 135.243 137.12 135.38 143.521C135.37 144.164 135.897 162.405 135.897 162.405C136.27 173.078 122.798 172.264 123.308 163.564L123.31 163.569Z" fill="#EBEBEB"/>
<path opacity="0.22" d="M123.302 163.598L124.035 143.952C124.279 137.743 121.416 136.976 121.447 132.297C121.481 127.46 124.483 126.612 124.676 120.668C124.676 120.668 127.718 5.64438 127.85 2.89223C127.978 0.215628 131.086 -0.611575 131.2 3.14499C131.281 5.90055 134.762 115.526 134.97 119.482C135.112 125.448 138.157 126.674 138.159 131.525C138.157 136.525 135.185 137.128 135.318 143.527C135.307 144.237 135.84 162.431 135.84 162.431C136.208 173.061 122.801 172.247 123.309 163.605L123.302 163.598Z" fill="#E9E9E9"/>
<path opacity="0.23" d="M123.291 163.625L124.022 143.883C124.266 137.687 121.414 136.925 121.444 132.273C121.478 127.468 124.469 126.614 124.657 120.692C124.657 120.692 127.677 5.89539 127.822 2.87139C127.95 0.22676 131.031 -0.589281 131.141 3.12044C131.23 6.15216 134.664 115.139 134.894 119.49C135.04 125.477 138.076 126.671 138.083 131.521C138.084 136.513 135.114 137.121 135.241 143.513C135.228 144.295 135.765 162.436 135.765 162.436C136.126 173.018 122.785 172.208 123.285 163.627L123.291 163.625Z" fill="#E7E7E7"/>
<path opacity="0.24" d="M123.284 163.654L124.018 143.817C124.263 137.64 121.422 136.874 121.448 132.252C121.478 127.478 124.46 126.624 124.651 120.716C124.651 120.716 127.648 6.14749 127.808 2.85163C127.932 0.23734 130.987 -0.562034 131.096 3.09697C131.194 6.401 134.581 114.758 134.834 119.502C134.983 125.503 138.012 126.672 138.022 131.523C138.027 136.507 135.058 137.124 135.182 143.511C135.167 144.365 135.713 162.451 135.713 162.451C136.069 172.989 122.792 172.179 123.287 163.655L123.284 163.654Z" fill="#E4E4E4"/>
<path opacity="0.25" d="M123.272 163.681L124.004 143.752C124.246 137.592 121.415 136.825 121.447 132.233C121.477 127.491 124.447 126.633 124.634 120.746C124.634 120.746 127.609 6.40406 127.784 2.83248C127.908 0.250169 130.94 -0.53643 131.042 3.0741C131.144 6.65265 134.487 114.373 134.759 119.516C134.914 125.537 137.936 126.677 137.945 131.522C137.954 136.495 134.986 137.121 135.107 143.507C135.094 144.43 135.639 162.465 135.639 162.465C135.986 172.959 122.775 172.145 123.27 163.684L123.272 163.681Z" fill="#E2E2E2"/>
<path opacity="0.27" d="M123.262 163.704L123.993 143.679C124.233 137.537 121.415 136.771 121.445 132.205C121.476 127.495 124.432 126.636 124.622 120.763C124.622 120.763 127.579 6.6506 127.759 2.8039C127.88 0.251923 130.886 -0.517989 130.991 3.04346C131.101 6.89431 134.4 113.981 134.693 119.52C134.849 125.56 137.866 126.67 137.878 131.517C137.887 136.48 134.921 137.112 135.042 143.498C135.026 144.492 135.581 162.472 135.581 162.472C135.923 172.923 122.776 172.109 123.266 163.705L123.262 163.704Z" fill="#E0E0E0"/>
<path opacity="0.28" d="M123.255 163.733L123.989 143.614C124.23 137.49 121.423 136.719 121.453 132.186C121.486 127.503 124.427 126.647 124.615 120.792C124.615 120.792 127.547 6.91043 127.743 2.78801C127.864 0.268004 130.843 -0.490769 130.944 3.02384C131.064 7.14699 134.312 113.603 134.628 119.533C134.789 125.594 137.796 126.672 137.814 131.517C137.828 136.469 134.861 137.114 134.977 143.488C134.959 144.555 135.517 162.482 135.517 162.482C135.855 172.89 122.772 172.075 123.256 163.729L123.255 163.733Z" fill="#DEDEDE"/>
<path opacity="0.29" d="M123.243 163.76L123.977 143.545C124.215 137.438 121.421 136.668 121.451 132.158C121.484 127.507 124.414 126.646 124.603 120.81C124.603 120.81 127.513 7.15533 127.722 2.76105C127.842 0.26752 130.793 -0.470721 130.893 2.99317C131.02 7.39249 134.225 113.211 134.557 119.54C134.723 125.621 137.72 126.668 137.742 131.514C137.759 136.458 134.794 137.109 134.907 143.482C134.89 144.621 135.452 162.496 135.452 162.496C135.782 172.855 122.766 172.046 123.247 163.761L123.243 163.76Z" fill="#DCDCDC"/>
<path opacity="0.3" d="M123.232 163.787L123.963 143.48C124.204 137.388 121.42 136.618 121.446 132.137C121.479 127.519 124.396 126.657 124.582 120.837C124.582 120.837 127.47 7.41026 127.694 2.74026C127.814 0.2787 130.738 -0.4484 130.834 2.96865C130.971 7.64026 134.125 112.828 134.484 119.55C134.651 125.65 137.647 126.668 137.67 131.511C137.691 136.448 134.728 137.104 134.836 143.475C134.818 144.682 135.384 162.504 135.384 162.504C135.71 172.82 122.754 172.009 123.234 163.783L123.232 163.787Z" fill="#D9D9D9"/>
<path opacity="0.31" d="M123.225 163.815L123.954 143.413C124.193 137.338 121.418 136.567 121.45 132.116C121.48 127.528 124.389 126.663 124.576 120.862C124.576 120.862 127.442 7.66234 127.676 2.71885C127.792 0.287628 130.691 -0.422808 130.785 2.94353C130.929 7.89131 134.04 112.442 134.416 119.558C134.589 125.678 137.575 126.666 137.602 131.51C137.627 136.435 134.664 137.104 134.77 143.47C134.749 144.749 135.323 162.519 135.323 162.519C135.64 172.791 122.752 171.981 123.226 163.811L123.225 163.815Z" fill="#D7D7D7"/>
<path opacity="0.33" d="M123.213 163.842L123.946 143.346C124.186 137.29 121.421 136.518 121.45 132.094C121.48 127.538 124.376 126.671 124.561 120.888C124.561 120.888 127.404 7.91502 127.652 2.69968C127.764 0.298795 130.639 -0.398848 130.737 2.91841C130.889 8.13849 133.951 112.054 134.351 119.572C134.527 125.707 137.504 126.672 137.538 131.51C137.562 136.426 134.605 137.102 134.703 143.464C134.68 144.815 135.258 162.532 135.258 162.532C135.57 172.761 122.747 171.951 123.219 163.84L123.213 163.842Z" fill="#D5D5D5"/>
<path opacity="0.34" d="M123.202 163.869L123.932 143.281C124.169 137.242 121.419 136.467 121.449 132.075C121.479 127.551 124.362 126.683 124.549 120.915C124.549 120.915 127.37 8.16931 127.632 2.68211C127.745 0.313205 130.59 -0.369429 130.686 2.89712C130.844 8.38786 133.863 111.676 134.282 119.584C134.463 125.739 137.43 126.673 137.464 131.511C137.492 136.419 134.537 137.101 134.633 143.458C134.612 144.878 135.19 162.54 135.19 162.54C135.494 172.725 122.738 171.916 123.203 163.866L123.202 163.869Z" fill="#D3D3D3"/>
<path opacity="0.35" d="M123.194 163.898L123.924 143.213C124.158 137.191 121.421 136.418 121.449 132.052C121.48 127.56 124.351 126.688 124.534 120.94C124.534 120.94 127.333 8.42197 127.608 2.66291C127.717 0.324346 130.539 -0.34549 130.632 2.87421C130.797 8.64112 133.769 111.291 134.213 119.595C134.395 125.77 137.356 126.674 137.396 131.509C137.429 136.406 134.47 137.096 134.566 143.452C134.543 144.944 135.129 162.555 135.129 162.555C135.43 172.693 122.733 171.886 123.196 163.894L123.194 163.898Z" fill="#D1D1D1"/>
<path opacity="0.36" d="M123.185 163.921L123.917 143.142C124.153 137.139 121.423 136.36 121.451 132.026C121.482 127.566 124.344 126.694 124.526 120.96C124.526 120.96 127.306 8.67017 127.589 2.63212C127.698 0.325528 130.491 -0.329277 130.582 2.83971C130.757 8.87892 133.682 110.899 134.143 119.598C134.33 125.793 137.286 126.667 137.326 131.503C137.362 136.391 134.404 137.091 134.498 143.442C134.472 145.005 135.062 162.563 135.062 162.563C135.353 172.656 122.725 171.851 123.186 163.917L123.185 163.921Z" fill="#CECECE"/>
<path opacity="0.37" d="M123.177 163.95L123.907 143.079C124.142 137.089 121.424 136.315 121.454 132.009C121.485 127.581 124.335 126.704 124.513 120.99C124.513 120.99 127.271 8.92835 127.567 2.61846C127.674 0.338332 130.442 -0.299809 130.53 2.82233C130.712 9.13771 133.594 110.521 134.073 119.614C134.261 125.827 137.211 126.672 137.256 131.505C137.297 136.382 134.34 137.091 134.426 143.439C134.401 145.076 134.996 162.577 134.996 162.577C135.283 172.627 122.719 171.821 123.175 163.945L123.177 163.95Z" fill="#CCCCCC"/>
<path opacity="0.38" d="M123.166 163.977L123.895 143.01C124.131 137.039 121.422 136.264 121.45 131.985C121.48 127.583 124.318 126.711 124.499 121.012C124.499 121.012 127.235 9.17713 127.545 2.59538C127.652 0.347233 130.391 -0.275881 130.481 2.79719C130.672 9.38486 133.505 110.133 134.009 119.623C134.203 125.857 137.143 126.67 137.192 131.505C137.232 136.373 134.281 137.089 134.365 143.431C134.339 145.136 134.937 162.588 134.937 162.588C135.215 172.594 122.72 171.785 123.167 163.973L123.166 163.977Z" fill="#CACACA"/>
<path opacity="0.4" d="M123.154 164.004L123.887 142.943C124.12 136.989 121.426 136.211 121.455 131.964C121.484 127.594 124.31 126.721 124.488 121.039C124.488 121.039 127.201 9.43146 127.525 2.57786C127.629 0.360047 130.343 -0.250288 130.43 2.77593C130.625 9.63813 133.417 109.755 133.938 119.639C134.133 125.892 137.067 126.675 137.122 131.508C137.166 136.368 134.215 137.093 134.297 143.43C134.268 145.206 134.875 162.604 134.875 162.604C135.149 172.566 122.714 171.755 123.164 164.004L123.154 164.004Z" fill="#C8C8C8"/>
<path opacity="0.41" d="M123.147 164.033L123.877 142.879C124.111 136.944 121.427 136.166 121.453 131.945C121.483 127.607 124.297 126.729 124.477 121.066C124.477 121.066 127.171 9.68739 127.501 2.55866C127.601 0.371184 130.291 -0.222487 130.376 2.75302C130.58 9.88752 133.323 109.369 133.869 119.651C134.071 125.92 136.998 126.678 137.049 131.509C137.097 136.357 134.147 137.092 134.225 143.427C134.194 145.275 134.805 162.619 134.805 162.619C135.075 172.535 122.703 171.728 123.147 164.033Z" fill="#C6C6C6"/>
<path opacity="0.42" d="M123.135 164.06L123.864 142.811C124.097 136.892 121.423 136.109 121.45 131.921C121.48 127.615 124.28 126.736 124.457 121.09C124.457 121.09 127.13 9.93843 127.474 2.53398C127.575 0.378482 130.237 -0.204052 130.319 2.72461C130.53 10.1353 133.23 108.98 133.792 119.66C133.999 125.949 136.916 126.675 136.973 131.504C137.024 136.345 134.077 137.085 134.146 143.417C134.117 145.338 134.732 162.63 134.732 162.63C134.993 172.5 122.689 171.695 123.128 164.057L123.135 164.06Z" fill="#C3C3C3"/>
<path opacity="0.43" d="M123.124 164.087L123.856 142.743C124.086 136.842 121.425 136.06 121.454 131.9C121.485 127.626 124.273 126.742 124.451 121.115C124.451 121.115 127.102 10.1905 127.46 2.51421C127.557 0.389051 130.193 -0.176816 130.278 2.70277C130.498 10.3857 133.148 108.599 133.737 119.673C133.945 125.981 136.854 126.681 136.916 131.508C136.973 136.337 134.024 137.09 134.092 143.416C134.061 145.406 134.68 162.644 134.68 162.644C134.937 172.472 122.697 171.666 123.132 164.09L123.124 164.087Z" fill="#C1C1C1"/>
<path opacity="0.44" d="M123.118 164.112L123.848 142.676C124.08 136.79 121.428 136.011 121.454 131.877C121.485 127.635 124.26 126.75 124.436 121.14C124.436 121.14 127.064 10.4432 127.436 2.495C127.533 0.401817 130.142 -0.152893 130.225 2.67598C130.455 10.6312 133.059 108.212 133.665 119.679C133.878 126.007 136.778 126.676 136.846 131.501C136.902 136.321 133.955 137.079 134.025 143.402C133.991 145.463 134.618 162.65 134.618 162.65C134.866 172.433 122.694 171.629 123.124 164.11L123.118 164.112Z" fill="#BFBFBF"/>
<path opacity="0.46" d="M123.107 164.139L123.835 142.607C124.065 136.738 121.428 135.957 121.455 131.854C121.482 127.643 124.248 126.758 124.426 121.163C124.426 121.163 127.036 10.6953 127.413 2.47197C127.507 0.409119 130.091 -0.128948 130.172 2.64922C130.405 10.879 132.965 107.826 133.592 119.689C133.807 126.036 136.701 126.676 136.772 131.502C136.831 136.314 133.887 137.078 133.953 143.399C133.92 145.533 134.547 162.666 134.547 162.666C134.79 172.406 122.679 171.599 123.107 164.139Z" fill="#BDBDBD"/>
<path opacity="0.47" d="M123.095 164.166L123.827 142.54C124.058 136.69 121.426 135.906 121.455 131.832C121.483 127.652 124.237 126.763 124.411 121.189C124.411 121.189 126.998 10.948 127.389 2.45283C127.485 0.418087 130.04 -0.104952 130.118 2.62637C130.36 11.1285 132.874 107.442 133.523 119.701C133.743 126.069 136.631 126.678 136.704 131.501C136.768 136.301 133.823 137.078 133.882 143.392C133.849 145.594 134.484 162.675 134.484 162.675C134.72 172.367 122.675 171.566 123.097 164.162L123.095 164.166Z" fill="#BABABA"/>
<path opacity="0.48" d="M123.088 164.195L123.817 142.477C124.046 136.643 121.429 135.857 121.458 131.815C121.485 127.667 124.226 126.777 124.404 121.218C124.404 121.218 126.968 11.2039 127.375 2.43303C127.467 0.428626 129.996 -0.0777475 130.077 2.60449C130.326 11.3828 132.793 107.058 133.463 119.712C133.686 126.095 136.567 126.678 136.64 131.501C136.707 136.294 133.764 137.076 133.82 143.389C133.783 145.662 134.422 162.691 134.422 162.691C134.654 172.339 122.673 171.538 123.092 164.196L123.088 164.195Z" fill="#B8B8B8"/>
<path opacity="0.49" d="M123.077 164.222L123.805 142.408C124.035 136.593 121.427 135.806 121.454 131.79C121.482 127.675 124.21 126.783 124.385 121.241C124.385 121.241 126.931 11.4566 127.347 2.41222C127.436 0.438156 129.945 -0.0537815 130.018 2.57998C130.277 11.6305 132.698 106.676 133.389 119.727C133.617 126.129 136.488 126.682 136.566 131.502C136.637 136.287 133.696 137.075 133.749 143.382C133.71 145.727 134.357 162.704 134.357 162.704C134.58 172.308 122.667 171.508 123.08 164.223L123.077 164.222Z" fill="#B6B6B6"/>
<path opacity="0.5" d="M123.069 164.251L123.797 142.341C124.024 136.543 121.429 135.757 121.455 131.768C121.484 127.68 124.199 126.788 124.375 121.265C124.375 121.265 126.899 11.707 127.325 2.38917C127.414 0.447079 129.894 -0.0298303 129.965 2.55322C130.228 11.8783 132.605 106.287 133.318 119.733C133.547 126.155 136.412 126.677 136.494 131.499C136.57 136.272 133.628 137.074 133.679 143.375C133.641 145.794 134.29 162.712 134.29 162.712C134.507 172.273 122.655 171.471 123.067 164.245L123.069 164.251Z" fill="#B4B4B4"/>
<path opacity="0.51" d="M123.058 164.278L123.787 142.277C124.013 136.493 121.432 135.708 121.457 131.751C121.483 127.694 124.188 126.802 124.362 121.296C124.362 121.296 126.867 11.9668 127.303 2.37549C127.388 0.463734 129.845 -0.000398731 129.913 2.5358C130.185 12.1332 132.515 105.912 133.251 119.75C133.485 126.192 136.344 126.685 136.429 131.503C136.503 136.267 133.568 137.076 133.611 143.374C133.572 145.86 134.223 162.73 134.223 162.73C134.432 172.246 122.65 171.441 123.058 164.278Z" fill="#B2B2B2"/>
<path opacity="0.53" d="M123.046 164.305L123.774 142.208C124.002 136.443 121.426 135.656 121.454 131.727C121.48 127.701 124.174 126.804 124.348 121.317C124.348 121.317 126.831 12.2156 127.281 2.35244C127.366 0.472665 129.793 0.02356 129.86 2.50905C130.139 12.3826 132.423 105.523 133.178 119.761C133.413 126.221 136.267 126.684 136.355 131.504C136.434 136.256 133.496 137.073 133.539 143.371C133.497 145.929 134.158 162.743 134.158 162.743C134.364 172.213 122.644 171.412 123.046 164.305Z" fill="#AFAFAF"/>
<path opacity="0.54" d="M123.04 164.329L123.768 142.137C123.992 136.389 121.432 135.599 121.46 131.702C121.486 127.708 124.166 126.811 124.338 121.34C124.338 121.34 126.803 12.4677 127.264 2.32716C127.346 0.477724 129.749 0.0413944 129.817 2.48168C130.101 12.6259 132.343 105.135 133.12 119.768C133.36 126.249 136.204 126.681 136.298 131.498C136.381 136.243 133.443 137.069 133.483 143.361C133.443 145.992 134.103 162.752 134.103 162.752C134.305 172.179 122.649 171.377 123.044 164.331L123.04 164.329Z" fill="#ADADAD"/>
<path opacity="0.55" d="M123.029 164.357L123.758 142.074C123.984 136.344 121.433 135.554 121.458 131.683C121.485 127.722 124.152 126.823 124.327 121.367C124.327 121.367 126.769 12.722 127.24 2.30796C127.324 0.486625 129.696 0.0691933 129.763 2.45876C130.054 12.8791 132.248 104.753 133.047 119.778C133.292 126.28 136.125 126.684 136.22 131.497C136.306 136.234 133.371 137.066 133.409 143.352C133.368 146.052 134.034 162.764 134.034 162.764C134.227 172.146 122.635 171.344 123.033 164.358L123.029 164.357Z" fill="#ABABAB"/>
<path opacity="0.56" d="M123.018 164.384L123.745 142.005C123.969 136.293 121.431 135.503 121.455 131.659C121.482 127.729 124.137 126.826 124.308 121.391C124.308 121.391 126.733 12.9707 127.212 2.28709C127.292 0.496101 129.641 0.0914626 129.706 2.43032C130.006 13.123 132.155 104.364 132.97 119.787C133.219 126.303 136.044 126.681 136.144 131.493C136.235 136.218 133.3 137.059 133.331 143.342C133.287 146.113 133.959 162.769 133.959 162.769C134.147 172.108 122.62 171.306 123.012 164.376L123.018 164.384Z" fill="#A9A9A9"/>
<path opacity="0.57" d="M123.01 164.412L123.737 141.938C123.962 136.244 121.431 135.448 121.459 131.638C121.487 127.74 124.128 126.836 124.302 121.416C124.302 121.416 126.705 13.2229 127.197 2.26738C127.278 0.508363 129.598 0.118732 129.661 2.40688C129.965 13.3741 132.068 103.982 132.91 119.798C133.164 126.335 135.984 126.683 136.084 131.495C136.174 136.211 133.244 137.062 133.272 143.34C133.226 146.183 133.906 162.787 133.906 162.787C134.084 172.082 122.625 171.281 123.012 164.408L123.01 164.412Z" fill="#A7A7A7"/>
<path opacity="0.59" d="M122.999 164.439L123.727 141.875C123.951 136.194 121.432 135.403 121.458 131.619C121.482 127.752 124.116 126.844 124.285 121.445C124.285 121.445 126.67 13.481 127.168 2.25039C127.245 0.52171 129.541 0.144874 129.601 2.38617C129.914 13.6257 131.973 103.6 132.832 119.811C133.087 126.366 135.901 126.685 136.007 131.494C136.102 136.198 133.172 137.059 133.196 143.336C133.151 146.252 133.831 162.801 133.831 162.801C134.005 172.053 122.61 171.252 122.993 164.442L122.999 164.439Z" fill="#A4A4A4"/>
<path opacity="0.6" d="M122.987 164.466L123.715 141.806C123.936 136.142 121.432 135.349 121.458 131.596C121.482 127.761 124.103 126.852 124.275 121.468C124.275 121.468 126.642 13.7331 127.151 2.22511C127.224 0.526771 129.495 0.166603 129.557 2.35883C129.878 13.8745 131.893 103.212 132.772 119.822C133.032 126.398 135.836 126.685 135.946 131.496C136.045 136.192 133.117 137.059 133.139 143.33C133.093 146.314 133.781 162.812 133.781 162.812C133.948 172.015 122.615 171.218 122.997 164.466L122.987 164.466Z" fill="#A2A2A2"/>
<path opacity="0.61" d="M122.98 164.495L123.706 141.739C123.929 136.094 121.434 135.3 121.458 131.574C121.485 127.767 124.09 126.861 124.262 121.49C124.262 121.49 126.61 13.9836 127.129 2.20209C127.202 0.535717 129.446 0.186711 129.505 2.33209C129.83 14.1184 131.799 102.826 132.701 119.829C132.962 126.423 135.76 126.681 135.876 131.489C135.978 136.178 133.052 137.05 133.067 143.318C133.018 146.373 133.709 162.818 133.709 162.818C133.872 171.979 122.603 171.181 122.979 164.486L122.98 164.495Z" fill="#A0A0A0"/>
<path opacity="0.62" d="M122.97 164.518L123.7 141.667C123.92 136.04 121.438 135.247 121.46 131.547C121.487 127.772 124.081 126.861 124.252 121.513C124.252 121.513 126.578 14.234 127.11 2.18067C127.18 0.544637 129.398 0.212271 129.456 2.30694C129.789 14.3694 131.714 102.44 132.635 119.842C132.902 126.457 135.695 126.685 135.806 131.492C135.913 136.169 132.982 137.053 132.999 143.316C132.951 146.445 133.646 162.838 133.646 162.838C133.8 171.953 122.6 171.157 122.974 164.52L122.97 164.518Z" fill="#9E9E9E"/>
<path opacity="0.63" d="M122.963 164.547L123.69 141.604C123.911 135.995 121.437 135.196 121.463 131.53C121.49 127.787 124.071 126.875 124.241 121.54C124.241 121.54 126.549 14.4861 127.086 2.16146C127.158 0.553538 129.345 0.24007 129.401 2.28402C129.74 14.6172 131.62 102.055 132.562 119.852C132.83 126.486 135.617 126.684 135.734 131.489C135.84 136.156 132.916 137.047 132.928 143.309C132.878 146.51 133.579 162.846 133.579 162.846C133.728 171.918 122.592 171.121 122.959 164.545L122.963 164.547Z" fill="#9C9C9C"/>
<path opacity="0.64" d="M122.951 164.574L123.677 141.535C123.898 135.94 121.435 135.145 121.459 131.506C121.487 127.795 124.056 126.878 124.225 121.566C124.225 121.566 126.516 14.7404 127.062 2.14229C127.131 0.564709 129.294 0.264039 129.351 2.26278C129.696 14.8721 131.532 101.676 132.493 119.864C132.768 126.514 135.543 126.685 135.665 131.491C135.774 136.151 132.852 137.048 132.86 143.308C132.809 146.576 133.516 162.865 133.516 162.865C133.656 171.893 122.586 171.092 122.95 164.578L122.951 164.574Z" fill="#999999"/>
<path opacity="0.66" d="M122.94 164.601L123.669 141.468C123.887 135.89 121.439 135.092 121.464 131.485C121.487 127.804 124.047 126.888 124.215 121.589C124.215 121.589 126.487 14.9925 127.045 2.11703C127.114 0.571423 129.248 0.285758 129.303 2.23379C129.658 15.1154 131.445 101.285 132.43 119.874C132.706 126.543 135.475 126.684 135.602 131.488C135.716 136.136 132.793 137.046 132.797 143.295C132.743 146.635 133.456 162.867 133.456 162.867C133.592 171.848 122.585 171.05 122.947 164.595L122.94 164.601Z" fill="#979797"/>
<path opacity="0.67" d="M122.932 164.63L123.659 141.405C123.878 135.845 121.44 135.047 121.462 131.466C121.486 127.818 124.033 126.9 124.202 121.62C124.202 121.62 126.456 15.2523 127.024 2.10333C127.089 0.588059 129.199 0.315194 129.251 2.21638C129.61 15.3725 131.355 100.91 132.359 119.89C132.64 126.579 135.399 126.692 135.531 131.494C135.648 136.135 132.727 137.05 132.727 143.298C132.674 146.711 133.387 162.888 133.387 162.888C133.519 171.826 122.576 171.028 122.932 164.63Z" fill="#959595"/>
<path opacity="0.68" d="M122.921 164.657L123.647 141.336C123.863 135.793 121.434 134.995 121.459 131.442C121.483 127.825 124.018 126.903 124.185 121.64C124.185 121.64 126.42 15.5011 126.994 2.07705C127.055 0.592115 129.14 0.335893 129.191 2.18637C129.556 15.6187 131.255 100.518 132.284 119.894C132.57 126.604 135.323 126.688 135.456 131.486C135.579 136.115 132.659 137.039 132.655 143.285C132.6 146.767 133.32 162.896 133.32 162.896C133.443 171.789 122.568 170.993 122.917 164.655L122.921 164.657Z" fill="#939393"/>
<path opacity="0.69" d="M122.91 164.684L123.635 141.267C123.852 135.743 121.434 134.94 121.459 131.419C121.484 127.835 124.005 126.911 124.174 121.667C124.174 121.667 126.392 15.7532 126.974 2.05949C127.035 0.606528 129.093 0.361464 129.142 2.16122C129.513 15.8642 131.17 100.132 132.215 119.906C132.502 126.635 135.249 126.689 135.383 131.486C135.504 136.106 132.589 137.042 132.583 143.282C132.526 146.835 133.251 162.908 133.251 162.908C133.369 171.758 122.554 170.96 122.906 164.682L122.91 164.684Z" fill="#909090"/>
<path opacity="0.7" d="M122.902 164.713L123.629 141.205C123.843 135.698 121.439 134.897 121.462 131.402C121.487 127.85 123.996 126.921 124.162 121.694C124.162 121.694 126.362 16.0091 126.953 2.04189C127.012 0.619268 129.044 0.39087 129.095 2.14155C129.47 16.1191 131.082 99.7534 132.153 119.922C132.446 126.67 135.183 126.693 135.322 131.488C135.447 136.1 132.53 137.04 132.522 143.275C132.466 146.901 133.195 162.921 133.195 162.921C133.305 171.727 122.558 170.93 122.904 164.709L122.902 164.713Z" fill="#8E8E8E"/>
<path opacity="0.72" d="M122.892 164.736L123.618 141.132C123.836 135.641 121.44 134.838 121.464 131.376C121.489 127.855 123.985 126.925 124.152 121.717C124.152 121.717 126.334 16.2611 126.937 2.01662C126.997 0.622104 129 0.408734 129.048 2.11257C129.431 16.3624 130.999 99.3635 132.088 119.926C132.382 126.693 135.113 126.686 135.256 131.483C135.386 136.084 132.469 137.032 132.457 143.266C132.399 146.964 133.131 162.93 133.131 162.93C133.238 171.689 122.554 170.896 122.894 164.732L122.892 164.736Z" fill="#8C8C8C"/>
<path opacity="0.73" d="M122.881 164.763L123.606 141.064C123.821 135.589 121.439 134.787 121.46 131.352C121.483 127.857 123.969 126.932 124.135 121.737C124.135 121.737 126.303 16.5077 126.907 1.99033C126.963 0.626148 128.941 0.429445 128.987 2.08257C129.374 16.6069 130.897 98.9748 132.007 119.933C132.308 126.717 135.031 126.684 135.176 131.477C135.309 136.07 132.393 137.028 132.379 143.256C132.319 147.021 133.06 162.937 133.06 162.937C133.158 171.651 122.542 170.859 122.88 164.754L122.881 164.763Z" fill="#8A8A8A"/>
<path opacity="0.74" d="M122.874 164.792L123.6 141.002C123.812 135.544 121.44 134.742 121.463 131.334C121.486 127.872 123.96 126.942 124.126 121.77C124.126 121.77 126.276 16.7692 126.889 1.97829C126.945 0.646085 128.899 0.462179 128.939 2.06682C129.33 16.8657 130.813 98.5981 131.944 119.952C132.246 126.754 134.964 126.692 135.113 131.487C135.25 136.068 132.335 137.035 132.317 143.262C132.255 147.099 132.999 162.961 132.999 162.961C133.092 171.633 122.537 170.839 122.872 164.796L122.874 164.792Z" fill="#888888"/>
<path opacity="0.75" d="M122.862 164.819L123.587 140.933C123.801 135.494 121.44 134.688 121.463 131.312C121.487 127.882 123.951 126.952 124.112 121.791C124.112 121.791 126.245 17.0158 126.866 1.95523C126.919 0.65337 128.848 0.486106 128.89 2.04167C129.29 17.1129 130.724 98.2104 131.876 119.96C132.184 126.783 134.892 126.689 135.046 131.481C135.187 136.055 132.274 137.028 132.248 143.251C132.187 147.162 132.936 162.971 132.936 162.971C133.02 171.598 122.533 170.805 122.862 164.819Z" fill="#858585"/>
<path opacity="0.76" d="M122.855 164.847L123.579 140.866C123.79 135.444 121.442 134.639 121.464 131.289C121.487 127.891 123.94 126.957 124.101 121.818C124.101 121.818 126.219 17.2734 126.846 1.93771C126.9 0.667815 128.801 0.511712 128.839 2.02044C129.243 17.3661 130.636 97.8321 131.81 119.977C132.118 126.819 134.821 126.695 134.979 131.489C135.119 136.054 132.211 137.037 132.184 143.251C132.122 147.23 132.874 162.986 132.874 162.986C132.954 171.57 122.531 170.777 122.859 164.849L122.855 164.847Z" fill="#838383"/>
<path opacity="0.78" d="M122.843 164.874L123.569 140.803C123.782 135.399 121.444 134.589 121.466 131.272C121.49 127.906 123.93 126.97 124.089 121.845C124.089 121.845 126.195 17.527 126.824 1.91462C126.874 0.67507 128.75 0.53561 128.786 1.99362C129.193 17.6139 130.543 97.4427 131.738 119.984C132.052 126.846 134.745 126.69 134.904 131.481C135.05 136.033 132.142 137.027 132.111 143.239C132.047 147.289 132.807 162.994 132.807 162.994C132.879 171.53 122.524 170.738 122.845 164.871L122.843 164.874Z" fill="#818181"/>
<path opacity="0.79" d="M122.832 164.902L123.557 140.734C123.768 135.344 121.439 134.537 121.463 131.248C121.487 127.914 123.913 126.977 124.074 121.871C124.074 121.871 126.161 17.7813 126.8 1.89543C126.846 0.686217 128.698 0.559554 128.732 1.97072C129.143 17.8655 130.451 97.0627 131.669 119.995C131.984 126.876 134.673 126.697 134.835 131.483C134.983 136.028 132.078 137.027 132.043 143.238C131.98 147.361 132.742 163.008 132.742 163.008C132.809 171.5 122.515 170.707 122.832 164.902Z" fill="#7F7F7F"/>
<path opacity="0.8" d="M122.826 164.926L123.55 140.663C123.763 135.291 121.443 134.484 121.465 131.221C121.485 127.917 123.904 126.978 124.062 121.888C124.062 121.888 126.137 18.0257 126.779 1.86854C126.827 0.687429 128.649 0.57964 128.681 1.94009C129.097 18.1055 130.36 96.6696 131.598 120.002C131.918 126.903 134.598 126.692 134.764 131.477C134.916 136.014 132.007 137.02 131.97 143.225C131.904 147.42 132.674 163.016 132.674 163.016C132.737 171.465 122.507 170.671 122.822 164.925L122.826 164.926Z" fill="#7D7D7D"/>
<path opacity="0.81" d="M122.815 164.953L123.54 140.599C123.75 135.245 121.445 134.435 121.467 131.204C121.488 127.932 123.893 126.992 124.053 121.921C124.053 121.921 126.113 18.2888 126.761 1.85649C126.806 0.705724 128.604 0.610728 128.638 1.92211C129.057 18.3621 130.282 96.2906 131.537 120.017C131.864 126.935 134.532 126.696 134.702 131.482C134.859 136.008 131.951 137.024 131.912 143.223C131.845 147.486 132.617 163.033 132.617 163.033C132.671 171.437 122.508 170.645 122.819 164.955L122.815 164.953Z" fill="#7A7A7A"/>
<path opacity="0.82" d="M122.803 164.981L123.528 140.53C123.735 135.193 121.444 134.384 121.464 131.18C121.485 127.94 123.877 126.998 124.035 121.941C124.035 121.941 126.082 18.5353 126.731 1.83014C126.776 0.711347 128.545 0.631385 128.577 1.89205C129 18.6065 130.18 95.9019 131.46 120.026C131.788 126.962 134.45 126.694 134.627 131.478C134.783 135.994 131.881 137.017 131.837 143.215C131.768 147.549 132.549 163.041 132.549 163.041C132.599 171.402 122.5 170.61 122.805 164.977L122.803 164.981Z" fill="#787878"/>
<path opacity="0.83" d="M122.796 165.009L123.52 140.463C123.728 135.145 121.448 134.331 121.468 131.159C121.49 127.951 123.87 127.004 124.028 121.97C124.028 121.97 126.066 18.7923 126.717 1.81038C126.758 0.721922 128.503 0.654754 128.532 1.86857C128.959 18.8576 130.099 95.5174 131.396 120.035C131.73 126.992 134.386 126.694 134.562 131.478C134.723 135.983 131.82 137.019 131.775 143.211C131.706 147.619 132.488 163.056 132.488 163.056C132.53 171.369 122.495 170.58 122.8 165.011L122.796 165.009Z" fill="#767676"/>
<path opacity="0.85" d="M122.784 165.036L123.51 140.4C123.716 135.099 121.444 134.285 121.467 131.14C121.49 127.96 123.855 127.017 124.013 121.995C124.013 121.995 126.038 19.0444 126.693 1.79121C126.734 0.734732 128.45 0.682595 128.478 1.8457C128.904 19.1076 130.008 95.1336 131.327 120.047C131.662 127.023 134.313 126.695 134.49 131.475C134.655 135.972 131.754 137.014 131.701 143.203C131.629 147.682 132.415 163.066 132.415 163.066C132.453 171.336 122.481 170.547 122.781 165.035L122.784 165.036Z" fill="#747474"/>
<path opacity="0.86" d="M122.773 165.063L123.497 140.331C123.706 135.045 121.443 134.234 121.463 131.116C121.487 127.968 123.841 127.019 123.997 122.021C123.997 122.021 126.012 19.302 126.669 1.77201C126.707 0.745869 128.398 0.706531 128.427 1.82443C128.857 19.3609 129.916 94.7537 131.256 120.063C131.596 127.059 134.237 126.7 134.419 131.482C134.586 135.971 131.688 137.018 131.631 143.205C131.559 147.753 132.352 163.085 132.352 163.085C132.381 171.311 122.477 170.523 122.771 165.067L122.773 165.063Z" fill="#727272"/>
<path opacity="0.87" d="M122.766 165.092L123.489 140.264C123.695 134.995 121.447 134.181 121.467 131.095C121.488 127.977 123.832 127.029 123.988 122.044C123.988 122.044 125.989 19.5518 126.646 1.74896C126.681 0.753158 128.347 0.730464 128.374 1.79765C128.804 19.607 129.828 94.366 131.189 120.071C131.53 127.086 134.165 126.697 134.352 131.476C134.525 135.954 131.627 137.01 131.568 143.192C131.497 147.813 132.29 163.091 132.29 163.091C132.314 171.274 122.475 170.485 122.767 165.088L122.766 165.092Z" fill="#6F6F6F"/>
<path opacity="0.88" d="M122.754 165.119L123.479 140.2C123.687 134.95 121.448 134.136 121.466 131.076C121.487 127.991 123.817 127.041 123.975 122.075C123.975 122.075 125.967 19.811 126.625 1.73529C126.661 0.76759 128.298 0.759923 128.322 1.78026C128.751 19.8625 129.734 93.9899 131.118 120.087C131.466 127.118 134.094 126.703 134.281 131.483C134.453 135.951 131.556 137.017 131.498 143.195C131.424 147.887 132.226 163.114 132.226 163.114C132.241 171.252 122.466 170.463 122.755 165.129L122.754 165.119Z" fill="#6D6D6D"/>
<path opacity="0.89" d="M122.748 165.144L123.472 140.129C123.677 134.896 121.449 134.077 121.472 131.052C121.493 127.998 123.812 127.044 123.966 122.094C123.966 122.094 125.95 20.0587 126.609 1.70617C126.642 0.768806 128.254 0.77778 128.277 1.74741C128.709 20.1042 129.652 93.5961 131.056 120.093C131.405 127.143 134.027 126.698 134.22 131.475C134.397 135.932 131.5 137.007 131.435 143.182C131.36 147.942 132.165 163.116 132.165 163.116C132.177 171.207 122.465 170.422 122.748 165.144Z" fill="#6B6B6B"/>
<path opacity="0.91" d="M122.737 165.171L123.46 140.06C123.663 134.844 121.448 134.027 121.468 131.027C121.49 128.006 123.795 127.05 123.951 122.119C123.951 122.119 125.931 20.3101 126.582 1.68532C126.614 0.779936 128.199 0.800074 128.218 1.72286C128.645 20.3547 129.554 93.209 130.979 120.101C131.334 127.172 133.944 126.7 134.143 131.475C134.322 135.923 131.428 137.004 131.359 143.177C131.281 148.009 132.095 163.131 132.095 163.131C132.102 171.18 122.455 170.39 122.735 165.175L122.737 165.171Z" fill="#696969"/>
<path opacity="0.92" d="M122.725 165.198L123.448 139.992C123.652 134.794 121.446 133.976 121.465 131.003C121.486 128.013 123.781 127.053 123.934 122.139C123.934 122.139 125.908 20.56 126.555 1.66064C126.585 0.785593 128.144 0.822372 128.165 1.69608C128.592 20.6009 129.464 92.8251 130.908 120.108C131.264 127.197 133.869 126.695 134.068 131.466C134.251 135.907 131.358 136.997 131.286 143.165C131.21 148.07 132.025 163.134 132.025 163.134C132.023 171.138 122.445 170.35 122.719 165.191L122.725 165.198Z" fill="#666666"/>
<path opacity="0.93" d="M122.718 165.227L123.442 139.93C123.644 134.746 121.452 133.928 121.471 130.988C121.493 128.03 123.774 127.069 123.928 122.174C123.928 122.174 125.898 20.8241 126.541 1.65025C126.571 0.807176 128.103 0.855117 128.123 1.67811C128.543 20.858 129.381 92.4446 130.849 120.128C131.21 127.238 133.805 126.705 134.009 131.477C134.197 135.907 131.304 137.006 131.23 143.169C131.151 148.146 131.974 163.158 131.974 163.158C131.967 171.119 122.449 170.329 122.72 165.232L122.718 165.227Z" fill="#646464"/>
<path opacity="0.94" d="M122.707 165.254L123.429 139.861C123.634 134.695 121.451 133.878 121.468 130.963C121.486 128.036 123.757 127.075 123.915 122.195C123.915 122.195 125.881 21.0717 126.519 1.62716C126.545 0.814426 128.051 0.87903 128.07 1.65131C128.486 21.1025 129.291 92.0607 130.778 120.135C131.144 127.265 133.733 126.702 133.938 131.471C134.126 135.891 131.239 136.997 131.157 143.156C131.077 148.201 131.902 163.164 131.902 163.164C131.887 171.081 122.437 170.292 122.707 165.254Z" fill="#626262"/>
<path opacity="0.95" d="M122.695 165.281L123.417 139.792C123.619 134.644 121.447 133.821 121.468 130.941C121.488 128.041 123.746 127.08 123.9 122.221C123.9 122.221 125.86 21.327 126.493 1.60248C126.519 0.821714 127.998 0.89748 128.013 1.62292C128.424 21.3492 129.195 91.6698 130.706 120.141C131.073 127.29 133.657 126.697 133.866 131.468C134.057 135.88 131.171 136.996 131.087 143.149C131.008 148.267 131.839 163.174 131.839 163.174C131.821 171.043 122.433 170.258 122.697 165.277L122.695 165.281Z" fill="#606060"/>
<path opacity="0.96" d="M122.688 165.31L123.411 139.73C123.614 134.601 121.452 133.778 121.471 130.924C121.491 128.056 123.736 127.094 123.892 122.249C123.892 122.249 125.857 21.585 126.477 1.58654C126.501 0.832254 127.953 0.928552 127.97 1.60491C128.371 21.6047 129.116 91.2908 130.643 120.16C131.017 127.325 133.59 126.705 133.804 131.473C134 135.874 131.114 137 131.027 143.151C130.945 148.341 131.78 163.195 131.78 163.195C131.753 171.019 122.433 170.236 122.692 165.311L122.688 165.31Z" fill="#5E5E5E"/>
<path opacity="0.98" d="M122.676 165.337L123.399 139.662C123.599 134.549 121.45 133.727 121.467 130.899C121.488 128.064 123.721 127.097 123.873 122.273C123.873 122.273 125.838 21.8366 126.449 1.56576C126.469 0.84181 127.897 0.950908 127.912 1.58042C128.301 21.8576 129.016 90.9076 130.57 120.17C130.946 127.354 133.512 126.704 133.731 131.474C133.93 135.867 131.042 136.997 130.956 143.145C130.874 148.402 131.715 163.208 131.715 163.208C131.683 170.99 122.428 170.206 122.684 165.34L122.676 165.337Z" fill="#5B5B5B"/>
<path opacity="0.99" d="M122.667 165.36L123.388 139.589C123.587 134.49 121.452 133.669 121.469 130.873C121.49 128.07 123.71 127.101 123.865 122.292C123.865 122.292 125.863 22.0834 126.432 1.54047C126.453 0.848493 127.852 0.972595 127.865 1.5514C128.212 22.1022 128.933 90.5177 130.504 120.175C130.885 127.379 133.446 126.699 133.662 131.464C133.866 135.845 130.977 136.988 130.885 143.128C130.8 148.458 131.646 163.207 131.646 163.207C131.606 170.944 122.415 170.16 122.668 165.356L122.667 165.36Z" fill="#595959"/>
<path d="M122.659 165.389L123.382 139.527C123.583 134.447 121.452 133.624 121.472 130.856C121.493 128.084 123.7 127.115 123.853 122.319C123.853 122.319 125.833 22.3394 126.41 1.51746C126.427 0.855818 127.806 0.99433 127.812 1.52465C128.165 22.3461 128.839 90.1322 130.431 120.185C130.813 127.408 133.368 126.698 133.588 131.465C133.795 135.838 130.909 136.986 130.813 143.125C130.729 148.528 131.58 163.224 131.58 163.224C131.534 170.918 122.408 170.134 122.655 165.387L122.659 165.389Z" fill="#575757"/>
</g>
<path d="M133.274 132.073C133.373 128.374 130.441 125.283 126.727 125.17C123.012 125.056 119.921 127.963 119.822 131.662C119.724 135.361 122.655 138.451 126.37 138.565C130.085 138.678 133.176 135.772 133.274 132.073Z" fill="url(#paint3_radial_914_54)"/>
<path d="M133.813 131.909C133.814 130.395 133.433 128.983 132.77 127.771C131.412 125.298 130.579 122.522 130.511 119.636L128.162 0.625514C128.132 0.0120615 127.539 -0.492347 126.789 -0.516396C126.003 -0.54193 125.348 -0.0393945 125.313 0.6102L122.638 119.592C122.562 122.473 121.723 125.241 120.358 127.703C119.688 128.904 119.304 130.318 119.301 131.827C119.301 133.297 119.659 134.676 120.292 135.861C121.628 138.366 122.195 141.272 122.094 144.169L121.45 163.169C121.444 163.294 121.444 163.435 121.441 163.561C121.473 166.838 123.823 169.468 126.684 169.37C129.545 169.272 131.736 166.489 131.585 163.222L130.991 144.215C130.9 141.319 131.475 138.416 132.815 135.927C133.449 134.746 133.816 133.371 133.817 131.902L133.813 131.909Z" fill="url(#paint4_linear_914_54)"/>
<path style="mix-blend-mode:multiply" opacity="0.6" d="M133.813 131.909C133.814 130.395 133.433 128.983 132.77 127.771C131.412 125.298 130.579 122.522 130.511 119.636L128.162 0.625494C128.132 0.0120414 127.539 -0.492368 126.789 -0.516417C126.003 -0.541951 125.348 -0.0394084 125.313 0.610186L122.638 119.592C122.562 122.473 121.723 125.241 120.358 127.703C119.688 128.904 119.304 130.318 119.301 131.827C119.301 133.297 119.659 134.676 120.292 135.861C121.628 138.366 122.195 141.272 122.094 144.169L121.45 163.169C121.444 163.294 121.444 163.435 121.441 163.561C121.473 166.838 123.823 169.468 126.684 169.37C129.545 169.272 131.736 166.489 131.585 163.222L130.991 144.215C130.9 141.319 131.475 138.416 132.815 135.927C133.449 134.746 133.816 133.371 133.817 131.902L133.813 131.909Z" fill="url(#paint5_linear_914_54)"/>
<path d="M130.121 133.374C130.946 131.414 130.016 129.152 128.044 128.323C126.072 127.493 123.805 128.41 122.98 130.371C122.156 132.331 123.086 134.593 125.058 135.422C127.03 136.251 129.297 135.334 130.121 133.374Z" fill="url(#paint6_radial_914_54)"/>
<g style="mix-blend-mode:multiply">
<path d="M123.424 130.557C124.217 128.67 126.345 127.758 128.26 128.428C128.188 128.393 128.118 128.354 128.044 128.323C126.072 127.493 123.805 128.41 122.98 130.371C122.156 132.331 123.086 134.593 125.058 135.422C125.132 135.453 125.209 135.476 125.285 135.504C123.465 134.606 122.63 132.444 123.424 130.557Z" fill="#C2C2C2"/>
</g>
</g>
<defs>
<radialGradient id="paint0_radial_914_54" cx="0" cy="0" r="1" gradientUnits="userSpaceOnUse" gradientTransform="translate(126.5 130.371) scale(130.477 131.245)">
<stop offset="0.85" stop-color="#2E2E2E"/>
<stop offset="0.88" stop-color="#494949"/>
<stop offset="0.9" stop-color="#636363"/>
<stop offset="0.93" stop-color="#757575"/>
<stop offset="0.96" stop-color="#808080"/>
<stop offset="1" stop-color="#848484"/>
</radialGradient>
<linearGradient id="paint1_linear_914_54" x1="126.508" y1="152.312" x2="126.508" y2="104.211" gradientUnits="userSpaceOnUse">
<stop stop-color="#959595"/>
<stop offset="0.21" stop-color="#AAAAAA"/>
<stop offset="0.48" stop-color="#BFBFBF"/>
<stop offset="0.75" stop-color="#CCCCCC"/>
<stop offset="1" stop-color="#D1D1D1"/>
</linearGradient>
<radialGradient id="paint2_radial_914_54" cx="0" cy="0" r="1" gradientUnits="userSpaceOnUse" gradientTransform="translate(126.291 133.729) scale(18.0289 18.135)">
<stop offset="0.16" stop-color="#E9E9E9"/>
<stop offset="0.39" stop-color="#E5E5E5"/>
<stop offset="0.56" stop-color="#DBDBDB"/>
<stop offset="0.72" stop-color="#CBCBCB"/>
<stop offset="0.87" stop-color="#B4B4B4"/>
<stop offset="1" stop-color="#9A9A9A"/>
</radialGradient>
<radialGradient id="paint3_radial_914_54" cx="0" cy="0" r="1" gradientUnits="userSpaceOnUse" gradientTransform="translate(126.548 131.87) rotate(-67.1916) scale(6.69476 6.73417)">
<stop offset="0.32" stop-color="#9C0000"/>
<stop offset="0.65" stop-color="#9A0000"/>
<stop offset="0.77" stop-color="#930000"/>
<stop offset="0.85" stop-color="#870000"/>
<stop offset="0.92" stop-color="#760000"/>
<stop offset="0.98" stop-color="#600000"/>
<stop offset="1" stop-color="#590000"/>
</radialGradient>
<linearGradient id="paint4_linear_914_54" x1="126.696" y1="20.4211" x2="125.89" y2="165.795" gradientUnits="userSpaceOnUse">
<stop stop-color="#E53A3A"/>
<stop offset="0.03" stop-color="#E22020"/>
<stop offset="0.05" stop-color="#DF0E0E"/>
<stop offset="0.08" stop-color="#DE0303"/>
<stop offset="0.11" stop-color="#DE0000"/>
<stop offset="0.46" stop-color="#DB0000"/>
<stop offset="0.65" stop-color="#D30000"/>
<stop offset="0.79" stop-color="#C60000"/>
<stop offset="0.92" stop-color="#B30000"/>
<stop offset="1" stop-color="#A20000"/>
</linearGradient>
<linearGradient id="paint5_linear_914_54" x1="118.942" y1="84.4413" x2="130.982" y2="84.3753" gradientUnits="userSpaceOnUse">
<stop offset="0.63" stop-color="white"/>
<stop offset="0.65" stop-color="#F2E3E3"/>
<stop offset="0.71" stop-color="#D09D9D"/>
<stop offset="0.79" stop-color="#9C2E2E"/>
<stop offset="0.82" stop-color="#860000"/>
</linearGradient>
<radialGradient id="paint6_radial_914_54" cx="0" cy="0" r="1" gradientUnits="userSpaceOnUse" gradientTransform="translate(128.311 132.499) rotate(-67.1916) scale(4.76939 4.79746)">
<stop offset="0.45" stop-color="#EBEBEB"/>
<stop offset="0.58" stop-color="#E7E7E7"/>
<stop offset="0.68" stop-color="#DDDDDD"/>
<stop offset="0.77" stop-color="#CDCDCD"/>
<stop offset="0.86" stop-color="#B5B5B5"/>
<stop offset="0.94" stop-color="#979797"/>
<stop offset="1" stop-color="#7A7A7A"/>
</radialGradient>
<clipPath id="clip0_914_54">
<rect width="253" height="153" fill="white"/>
</clipPath>
</defs>
</svg>
