<svg width="131" height="130" viewBox="0 0 131 130" fill="none" xmlns="http://www.w3.org/2000/svg">
<g clip-path="url(#clip0_910_490)">
<path d="M62.1927 38.6598C62.6409 37.9513 63.7375 36.9328 63.9584 36.5997C67.5773 31.0814 75.6699 18.6362 63.7917 7.85047C60.6626 10.7583 54.9508 17.7779 60.2895 26.7418C63.9188 23.3848 63.8229 14.9334 63.8875 14.9081C67.2667 23.2267 65.8992 30.5057 60.9086 37.266L58.405 34.4678C41.4278 15.4774 61.9968 1.33266 62.0552 1.2926L63.8896 0L65.6678 1.37694C84.6859 16.11 73.8646 32.7134 69.072 40.0199L66.8394 43.2819L62.1907 38.6598H62.1927ZM53.9981 107.878C54.0106 103.964 53.3081 54.4156 8.82006 61.2665C9.1932 68.651 12.5766 89.6045 38.7136 92.7759C36.3913 84.9465 29.6642 75.308 22.7245 70.7217C34.2796 72.8915 44.0273 84.2317 46.2454 99.7492L42.5806 99.5826C1.66893e-06 97.6532 2.40149 58.5063 2.40775 58.3925L2.53491 55.8536L5.00311 55.3687C39.093 48.68 52.2011 69.0959 57.2376 86.4627C57.8255 76.5521 57.1751 66.5508 55.1217 57.5869C52.6368 46.7275 48.109 37.4558 41.2506 31.8932C36.8958 28.357 31.5091 26.3074 25.0114 26.3011C24.5777 31.9986 25.3074 45.7807 41.7947 49.5889C40.0999 44.37 37.3211 39.2523 31.9281 34.0587C40.1332 35.7794 48.6343 47.01 48.6052 57.0977L45.1822 56.7076C12.6099 52.9964 19.0618 22.6341 19.0806 22.5456L19.5621 20.1417L21.9699 19.9498C31.3695 19.2097 39.0826 21.8476 45.2552 26.8514C53.3227 33.3966 58.5592 43.9419 61.3526 56.1425C64.0793 68.0458 64.4921 81.5854 62.9516 94.4671C61.017 110.611 55.9514 125.852 48.4405 135.788C60.9232 134.736 72.7576 135.191 82.8681 136.224C75.1716 126.299 69.9872 110.847 68.0234 94.4671C66.4829 81.5875 66.8957 68.0458 69.6224 56.1425C72.4137 43.9419 77.6503 33.3966 85.7178 26.8514C91.8903 21.8476 99.6014 19.2097 109.003 19.9498L111.411 20.1417L111.892 22.5456C111.913 22.6341 118.363 52.9964 85.7907 56.7076L82.3636 57.0977C82.3344 47.01 90.8397 35.7794 99.0406 34.0587C93.6498 39.2502 90.8709 44.37 89.1741 49.5889C105.663 45.7807 106.393 31.9986 105.962 26.3011C99.4617 26.3074 94.0792 28.357 89.7223 31.8932C82.8639 37.4579 78.3361 46.7296 75.8512 57.5869C73.7958 66.574 73.1475 76.6048 73.7353 86.5428C78.7593 69.1634 91.8549 48.6737 125.999 55.3708L128.467 55.8558L128.592 58.3946C128.601 58.5084 131.002 97.6553 88.4236 99.5847L84.7526 99.7513C86.9706 84.2359 96.7204 72.8957 108.276 70.7238C101.336 75.3122 94.6066 84.9487 92.2843 92.778C118.421 89.6066 121.807 68.6531 122.182 61.2686C77.2229 54.346 76.9811 105.025 77.004 107.992C80.3123 121.038 85.8449 132.028 93.0911 137.532C105.999 139.501 114.231 142.002 114.231 142.002H16.8334C24.0858 139.632 31.4195 138 38.6406 136.927C45.5366 131.231 50.8065 120.515 53.9981 107.88V107.878Z" fill="white" fill-opacity="0.1"/>
<mask id="mask0_910_490" style="mask-type:luminance" maskUnits="userSpaceOnUse" x="2" y="0" width="127" height="143">
<path d="M62.1927 38.6598C62.6409 37.9513 63.7375 36.9328 63.9584 36.5997C67.5773 31.0814 75.6699 18.6362 63.7917 7.85047C60.6626 10.7583 54.9508 17.7779 60.2895 26.7418C63.9188 23.3848 63.8229 14.9334 63.8875 14.9081C67.2667 23.2267 65.8992 30.5057 60.9086 37.266L58.405 34.4678C41.4278 15.4774 61.9968 1.33266 62.0552 1.2926L63.8896 0L65.6678 1.37694C84.6859 16.11 73.8646 32.7134 69.072 40.0199L66.8394 43.2819L62.1907 38.6598H62.1927ZM53.9981 107.878C54.0106 103.964 53.3081 54.4156 8.82006 61.2665C9.1932 68.651 12.5766 89.6045 38.7136 92.7759C36.3913 84.9465 29.6642 75.308 22.7245 70.7217C34.2796 72.8915 44.0273 84.2317 46.2454 99.7492L42.5806 99.5826C1.66893e-06 97.6532 2.40149 58.5063 2.40775 58.3925L2.53491 55.8536L5.00311 55.3687C39.093 48.68 52.2011 69.0959 57.2376 86.4627C57.8255 76.5521 57.1751 66.5508 55.1217 57.5869C52.6368 46.7275 48.109 37.4558 41.2506 31.8932C36.8958 28.357 31.5091 26.3074 25.0114 26.3011C24.5777 31.9986 25.3074 45.7807 41.7947 49.5889C40.0999 44.37 37.3211 39.2523 31.9281 34.0587C40.1332 35.7794 48.6343 47.01 48.6052 57.0977L45.1822 56.7076C12.6099 52.9964 19.0618 22.6341 19.0806 22.5456L19.5621 20.1417L21.9699 19.9498C31.3695 19.2097 39.0826 21.8476 45.2552 26.8514C53.3227 33.3966 58.5592 43.9419 61.3526 56.1425C64.0793 68.0458 64.4921 81.5854 62.9516 94.4671C61.017 110.611 55.9514 125.852 48.4405 135.788C60.9232 134.736 72.7576 135.191 82.8681 136.224C75.1716 126.299 69.9872 110.847 68.0234 94.4671C66.4829 81.5875 66.8957 68.0458 69.6224 56.1425C72.4137 43.9419 77.6503 33.3966 85.7178 26.8514C91.8903 21.8476 99.6014 19.2097 109.003 19.9498L111.411 20.1417L111.892 22.5456C111.913 22.6341 118.363 52.9964 85.7907 56.7076L82.3636 57.0977C82.3344 47.01 90.8397 35.7794 99.0406 34.0587C93.6498 39.2502 90.8709 44.37 89.1741 49.5889C105.663 45.7807 106.393 31.9986 105.962 26.3011C99.4617 26.3074 94.0792 28.357 89.7223 31.8932C82.8639 37.4579 78.3361 46.7296 75.8512 57.5869C73.7958 66.574 73.1475 76.6048 73.7353 86.5428C78.7593 69.1634 91.8549 48.6737 125.999 55.3708L128.467 55.8558L128.592 58.3946C128.601 58.5084 131.002 97.6553 88.4236 99.5847L84.7526 99.7513C86.9706 84.2359 96.7204 72.8957 108.276 70.7238C101.336 75.3122 94.6066 84.9487 92.2843 92.778C118.421 89.6066 121.807 68.6531 122.182 61.2686C77.2229 54.346 76.9811 105.025 77.004 107.992C80.3123 121.038 85.8449 132.028 93.0911 137.532C105.999 139.501 114.231 142.002 114.231 142.002H16.8334C24.0858 139.632 31.4195 138 38.6406 136.927C45.5366 131.231 50.8065 120.515 53.9981 107.88V107.878Z" fill="white"/>
</mask>
<g mask="url(#mask0_910_490)">
<path d="M131 0H0V142H131V0Z" fill="white" fill-opacity="0.1"/>
</g>
</g>
<defs>
<clipPath id="clip0_910_490">
<rect width="131" height="130" fill="white"/>
</clipPath>
</defs>
</svg>
