<svg width="253" height="153" viewBox="0 0 253 153" fill="none" xmlns="http://www.w3.org/2000/svg">
<g clip-path="url(#clip0_914_54)">
<path opacity="0.9" d="M0.381719 101.987L18.4442 106.262L18.2302 107.283L0 103.797L0.381719 101.987ZM4.88684 86.2278L20.3905 91.6793L20.5247 91.308L5.12594 85.5696L4.89104 86.2278H4.88684ZM11.6361 70.5401L28.264 78.827L28.7422 77.903L12.4877 68.8987L11.6361 70.5401ZM21.0365 54.9367L34.5099 64.3797L34.7364 64.0591L21.4392 54.3671L21.0365 54.9367ZM31.7372 41.654L45.5378 54.1308L46.2467 53.3713L32.9998 40.3038L31.7414 41.654H31.7372ZM58.8141 19.27L68.7681 35.0211L69.6532 34.481L60.3871 18.3122L58.8141 19.27ZM125.98 18.6582H127.016L127.419 0H125.577L125.98 18.6582ZM108.626 1.24895L111.005 17.5949L111.395 17.5401L109.318 1.15612L108.631 1.25316L108.626 1.24895ZM74.8924 10.8228L81.5536 25.9198L81.9144 25.7637L75.5342 10.5443L74.8966 10.8228H74.8924ZM44.9631 29.173L55.4164 41.9114L55.7226 41.6624L45.5085 28.73L44.9673 29.1688L44.9631 29.173ZM122.662 0.0590717L123.174 13.8228L123.53 13.8143L123.295 0.0421941L122.662 0.0590717ZM119.151 0.21097L120.036 13.9578L120.392 13.9367L119.784 0.177215L119.151 0.21097ZM115.644 0.459916L116.898 14.1772L117.255 14.1477L116.277 0.409283L115.644 0.459916ZM112.146 0.805907L113.773 14.481L114.13 14.443L112.779 0.738397L112.146 0.805907ZM105.182 1.78059L107.548 15.346L107.901 15.2869L105.812 1.67511L105.182 1.78059ZM101.722 2.4135L104.453 15.9114L104.805 15.8439L102.347 2.29536L101.722 2.41772V2.4135ZM98.2822 3.13924L101.378 16.557L101.726 16.481L98.903 3.00422L98.2822 3.14346V3.13924ZM94.8593 3.95781L98.3157 17.2869L98.6639 17.1983L95.4759 3.80169L94.8593 3.95781ZM88.0932 5.87764L92.2669 18.9958L92.6067 18.8903L88.7014 5.68776L88.0932 5.87764ZM84.75 6.97468L89.2761 19.9747L89.6159 19.8608L85.354 6.77215L84.75 6.9789V6.97468ZM81.4404 8.16456L86.3146 21.0338L86.6502 20.9072L82.036 7.94093L81.4404 8.16456ZM78.1643 9.44304L83.3867 22.1772L83.7181 22.0422L78.7516 9.20675L78.1601 9.44304H78.1643ZM71.717 12.27L77.619 24.6962L77.942 24.5443L72.2917 12L71.717 12.27ZM68.5542 13.8143L74.7918 26.0759L75.1106 25.9156L69.1205 13.5274L68.55 13.8143H68.5542ZM65.4333 15.443L72.0023 27.5274L72.3169 27.3586L65.9954 15.1392L65.4333 15.4388V15.443ZM69.5609 28.8819L62.9123 16.8439L62.3586 17.1603L69.2505 29.0633L69.5609 28.8861V28.8819ZM56.356 20.8354L63.8813 32.3418L64.1833 32.1477L56.8929 20.4895L56.3602 20.8354H56.356ZM53.4281 22.7975L61.2638 34.0928L61.5574 33.8903L53.9524 22.4346L53.4281 22.7932V22.7975ZM50.5589 24.8397L58.6966 35.9156L58.9861 35.7046L51.0748 24.4641L50.5589 24.8397ZM47.7442 26.9578L56.1798 37.8101L56.465 37.5907L48.2518 26.5696L47.7484 26.9578H47.7442ZM42.2911 31.4219L51.3014 41.7932L51.574 41.5612L42.7777 31.0084L42.2953 31.4262L42.2911 31.4219ZM39.6568 33.7637L48.9439 43.8861L49.2082 43.6456L40.1266 33.3376L39.6568 33.7679V33.7637ZM37.0855 36.1772L46.641 46.0422L46.9011 45.7932L37.5469 35.7342L37.0855 36.1772ZM44.6527 48.0042L35.0301 38.2068L34.5812 38.6624L44.401 48.2616L44.6527 48.0042ZM29.7825 43.8312L40.1057 52.8776L40.3448 52.6076L30.2061 43.3502L29.7825 43.827V43.8312ZM27.488 46.5105L38.0544 55.27L38.2852 54.9958L27.899 46.0211L27.488 46.5105ZM25.269 49.2532L36.0662 57.7215L36.2885 57.4388L25.6633 48.7511L25.269 49.2532ZM34.3631 59.9367L23.5072 51.5443L23.1255 52.0549L34.1492 60.2236L34.3631 59.9367ZM19.065 57.8312L30.5165 65.384L30.7137 65.0844L19.4173 57.2996L19.065 57.8312ZM17.1564 60.7975L28.8051 68.0338L28.9981 67.73L17.4962 60.2574L17.1564 60.7975ZM27.3495 70.4262L15.6505 63.27L15.3275 63.8186L27.1692 70.7342L27.3537 70.4262H27.3495ZM25.7765 73.1603L13.8887 66.3291L13.5783 66.8861L25.6045 73.4768L25.7807 73.1646L25.7765 73.1603ZM10.3358 73.1646L22.6976 79.0844L22.8528 78.7595L10.6126 72.5865L10.3316 73.1603L10.3358 73.1646ZM8.84665 76.3629L21.3637 81.9409L21.5105 81.6118L9.10672 75.7764L8.84246 76.3586L8.84665 76.3629ZM20.2437 84.5105L7.68472 79.0169L7.43723 79.6076L20.1011 84.8439L20.2395 84.5105H20.2437ZM19.0566 87.4388L6.35499 82.2911L6.12428 82.8861L18.9265 87.7722L19.0566 87.4388ZM16.9173 93.384L3.95562 88.9409L3.75846 89.5485L16.8082 93.7257L16.9215 93.384H16.9173ZM15.9693 96.3966L2.89435 92.308L2.71398 92.9198L15.8686 96.7384L15.9693 96.3924V96.3966ZM15.1052 99.4346L1.92118 95.7089L1.75339 96.3249L15.0087 99.7806L15.101 99.4346H15.1052ZM14.3208 102.498L1.04448 99.1308L0.893474 99.7511L14.2369 102.844L14.3208 102.494V102.498ZM90.8827 5.03376L96.2603 22.8987L97.2586 22.6203L92.657 4.54008L90.8827 5.03797V5.03376ZM252.618 101.987L234.556 106.262L234.77 107.283L253 103.797L252.618 101.987ZM247.878 85.5696L232.479 91.308L232.614 91.6793L248.117 86.2278L247.882 85.5696H247.878ZM240.508 68.8987L224.254 77.903L224.732 78.827L241.36 70.5401L240.508 68.8987ZM231.557 54.3671L218.259 64.0591L218.486 64.3797L231.959 54.9367L231.557 54.3671ZM220.004 40.3038L206.757 53.3713L207.466 54.1308L221.263 41.654L220.004 40.3038ZM192.609 18.3122L183.343 34.481L184.228 35.0211L194.182 19.27L192.609 18.3122ZM141.605 17.5401L141.991 17.5949L144.369 1.24895L143.682 1.1519L141.605 17.5359V17.5401ZM177.466 10.5485L171.086 25.7679L171.446 25.924L178.108 10.827L177.47 10.5485H177.466ZM207.496 28.73L197.282 41.6624L197.588 41.9114L208.041 29.173L207.5 28.7342L207.496 28.73ZM129.466 13.8101L129.822 13.8186L130.334 0.0548523L129.701 0.0379747L129.466 13.8101ZM132.607 13.9367L132.964 13.9578L133.849 0.21097L133.216 0.177215L132.607 13.9367ZM135.745 14.1477L136.102 14.1772L137.356 0.459916L136.723 0.409283L135.745 14.1477ZM138.874 14.443L139.231 14.481L140.858 0.805907L140.225 0.738397L138.874 14.443ZM145.099 15.2911L145.452 15.3502L147.818 1.78481L147.188 1.67932L145.099 15.2911ZM150.653 2.29114L148.195 15.8397L148.547 15.9072L151.278 2.40928L150.653 2.28692V2.29114ZM154.097 3L151.274 16.4768L151.622 16.5527L154.718 3.13502L154.097 2.99578V3ZM157.52 3.80591L154.332 17.2025L154.68 17.2911L158.137 3.96203L157.52 3.80591ZM164.299 5.68776L160.393 18.8903L160.733 18.9958L164.907 5.87764L164.299 5.68776ZM167.646 6.77215L163.384 19.8608L163.724 19.9747L168.25 6.97468L167.646 6.76793V6.77215ZM170.964 7.94515L166.35 20.9114L166.685 21.038L171.56 8.16878L170.964 7.94515ZM174.248 9.20675L169.282 22.0422L169.613 22.1772L174.836 9.44304L174.244 9.20675H174.248ZM180.704 12L175.054 24.5443L175.377 24.6962L181.279 12.27L180.704 12ZM183.875 13.5274L177.885 25.9156L178.204 26.0759L184.442 13.8143L183.871 13.5274H183.875ZM187.005 15.1435L180.683 27.3629L180.998 27.5316L187.567 15.4473L187.005 15.1477V15.1435ZM183.749 29.0591L190.641 17.1561L190.088 16.8397L183.439 28.8776L183.749 29.0549V29.0591ZM196.111 20.4895L188.821 32.1477L189.123 32.3418L196.648 20.8354L196.115 20.4895H196.111ZM199.048 22.4388L191.443 33.8945L191.736 34.097L199.572 22.8017L199.048 22.443V22.4388ZM201.925 24.4641L194.014 35.7046L194.303 35.9156L202.441 24.8397L201.925 24.4641ZM204.752 26.5696L196.539 37.5907L196.824 37.8101L205.26 26.9578L204.757 26.5696H204.752ZM210.226 31.0042L201.43 41.557L201.703 41.789L210.713 31.4177L210.231 31L210.226 31.0042ZM212.873 33.3376L203.792 43.6456L204.056 43.8861L213.343 33.7637L212.873 33.3333V33.3376ZM215.453 35.7384L206.099 45.7975L206.359 46.0464L215.915 36.1814L215.453 35.7384ZM208.595 48.2616L218.415 38.6624L217.966 38.2068L208.343 48.0042L208.595 48.2616ZM222.794 43.3502L212.655 52.6076L212.894 52.8776L223.218 43.8312L222.794 43.3544V43.3502ZM225.101 46.0211L214.715 54.9958L214.946 55.27L225.512 46.5105L225.101 46.0211ZM227.333 48.7511L216.707 57.4388L216.93 57.7215L227.727 49.2532L227.333 48.7511ZM218.851 60.2236L229.875 52.0549L229.493 51.5443L218.637 59.9367L218.851 60.2236ZM233.578 57.2996L222.282 65.0844L222.479 65.384L233.931 57.8312L233.578 57.2996ZM235.504 60.2574L224.002 67.73L224.195 68.0338L235.844 60.7975L235.504 60.2574ZM225.831 70.7342L237.672 63.8186L237.35 63.27L225.65 70.4262L225.835 70.7342H225.831ZM227.395 73.4768L239.422 66.8861L239.111 66.3291L227.223 73.1603L227.4 73.4726L227.395 73.4768ZM242.383 72.5865L230.143 78.7595L230.298 79.0844L242.66 73.1646L242.379 72.5907L242.383 72.5865ZM243.889 75.7848L231.485 81.6203L231.632 81.9494L244.149 76.3713L243.885 75.789L243.889 75.7848ZM232.895 84.8397L245.559 79.6034L245.311 79.0127L232.752 84.5063L232.891 84.8397H232.895ZM234.073 87.7722L246.876 82.8861L246.645 82.2911L233.943 87.4388L234.073 87.7722ZM236.192 93.7257L249.242 89.5485L249.044 88.9409L236.083 93.384L236.196 93.7257H236.192ZM237.131 96.7426L250.286 92.924L250.106 92.3122L237.031 96.4008L237.131 96.7468V96.7426ZM237.987 99.7848L251.242 96.3291L251.075 95.7131L237.891 99.4388L237.983 99.7848H237.987ZM238.763 102.848L252.107 99.7553L251.956 99.135L238.679 102.502L238.763 102.852V102.848ZM160.343 4.53586L155.741 22.616L156.74 22.8945L162.117 5.02954L160.343 4.53165V4.53586Z" fill="url(#paint0_radial_914_54)"/>
<path d="M213.733 113.139V112.211C213.733 112.122 213.767 112.055 213.834 111.979C214.715 111.093 215.495 110.177 216.229 109.38C216.825 108.717 217.232 108.131 217.232 107.722C217.232 107.203 216.837 106.835 216.242 106.835C215.646 106.835 215.252 107.203 215.252 107.743V107.962C215.252 108.084 215.185 108.152 215.063 108.152H213.876C213.754 108.152 213.687 108.084 213.687 107.962V107.498C213.754 106.27 214.832 105.494 216.238 105.494C217.832 105.494 218.8 106.477 218.8 107.684C218.8 108.325 218.461 108.966 217.878 109.688C217.316 110.384 216.602 111.106 215.843 111.911C215.801 111.945 215.822 111.987 215.877 111.987H218.759C218.88 111.987 218.947 112.055 218.947 112.177V113.139C218.947 113.262 218.88 113.329 218.759 113.329H213.918C213.796 113.329 213.729 113.262 213.729 113.139H213.733Z" fill="#5E5E5E"/>
<path d="M219.904 110.916V107.996C219.904 106.46 220.906 105.498 222.521 105.498C224.136 105.498 225.147 106.46 225.147 107.996V110.916C225.147 112.477 224.136 113.447 222.521 113.447C220.906 113.447 219.904 112.473 219.904 110.916ZM223.595 110.992V107.949C223.595 107.266 223.176 106.831 222.517 106.831C221.858 106.831 221.452 107.262 221.452 107.949V110.992C221.452 111.679 221.871 112.11 222.517 112.11C223.163 112.11 223.595 111.679 223.595 110.992Z" fill="#5E5E5E"/>
<path d="M226.171 110.916V107.996C226.171 106.46 227.173 105.498 228.788 105.498C230.403 105.498 231.414 106.46 231.414 107.996V110.916C231.414 112.477 230.403 113.447 228.788 113.447C227.173 113.447 226.171 112.473 226.171 110.916ZM229.862 110.992V107.949C229.862 107.266 229.442 106.831 228.784 106.831C228.125 106.831 227.718 107.262 227.718 107.949V110.992C227.718 111.679 228.138 112.11 228.784 112.11C229.43 112.11 229.862 111.679 229.862 110.992Z" fill="#5E5E5E"/>
<path d="M208.477 79.5401H209.719C209.841 79.5401 209.908 79.6076 209.908 79.73V87.0971C209.908 87.2194 209.841 87.2869 209.719 87.2869H208.544C208.423 87.2869 208.356 87.2194 208.356 87.0971V81.0675C208.356 81.0211 208.322 80.9916 208.28 81L207.311 81.1983C207.19 81.2194 207.101 81.1519 207.101 81.0338V80.1941C207.101 80.0928 207.148 80.0169 207.244 79.9831L208.247 79.5865C208.322 79.5528 208.389 79.5443 208.477 79.5443V79.5401Z" fill="#5E5E5E"/>
<path d="M216.032 85.0295C216.032 85.5148 215.931 85.8608 215.78 86.1561C215.394 86.8987 214.572 87.3713 213.473 87.3713C212.45 87.3713 211.602 86.9494 211.187 86.1308C211.011 85.789 210.923 85.4346 210.923 85.0127C210.923 84.557 211.032 84.1603 211.174 83.8608C211.317 83.5949 211.506 83.384 211.737 83.2194C211.779 83.1857 211.779 83.1519 211.737 83.1308C211.527 82.9747 211.363 82.789 211.229 82.5781C211.065 82.2996 210.965 81.9705 210.965 81.5696C210.965 81.1055 211.095 80.6962 211.326 80.3629C211.753 79.7426 212.534 79.3882 213.482 79.3882C214.539 79.3882 215.352 79.7764 215.759 80.5696C215.881 80.8017 216.011 81.1688 216.011 81.5781C216.011 81.9536 215.91 82.2743 215.734 82.5527C215.592 82.7637 215.415 82.9494 215.206 83.1181C215.164 83.1392 215.164 83.173 215.206 83.2068C215.449 83.3629 215.646 83.5738 215.789 83.8692C215.944 84.1772 216.032 84.5527 216.032 85.0211V85.0295ZM212.504 81.7637C212.504 81.9831 212.559 82.1941 212.659 82.3502C212.823 82.6287 213.121 82.7722 213.486 82.7722C213.88 82.7722 214.178 82.616 214.342 82.3418C214.442 82.1772 214.484 81.9662 214.484 81.7553C214.484 81.557 214.451 81.3797 214.375 81.2363C214.211 80.9156 213.901 80.7384 213.486 80.7384C213.071 80.7384 212.773 80.9156 212.617 81.2152C212.542 81.3713 212.508 81.5696 212.508 81.7679L212.504 81.7637ZM214.484 84.8734C214.484 84.6624 214.438 84.4515 214.375 84.2996C214.22 83.9451 213.914 83.7468 213.486 83.7468C213.058 83.7468 212.794 83.9451 212.63 84.2869C212.555 84.4515 212.508 84.6751 212.508 84.8945C212.508 85.2025 212.576 85.4473 212.685 85.6371C212.848 85.903 213.125 86.0591 213.486 86.0591C213.847 86.0591 214.111 85.9156 214.279 85.6709C214.409 85.4726 214.488 85.2067 214.488 84.8734H214.484Z" fill="#5E5E5E"/>
<path d="M216.967 84.8734V81.9536C216.967 80.4177 217.97 79.4557 219.585 79.4557C221.2 79.4557 222.211 80.4177 222.211 81.9536V84.8734C222.211 86.4346 221.2 87.4051 219.585 87.4051C217.97 87.4051 216.967 86.4304 216.967 84.8734ZM220.659 84.9494V81.9072C220.659 81.2194 220.239 80.789 219.581 80.789C218.922 80.789 218.515 81.2194 218.515 81.9072V84.9494C218.515 85.6329 218.935 86.0675 219.581 86.0675C220.227 86.0675 220.659 85.6371 220.659 84.9494Z" fill="#5E5E5E"/>
<path d="M192.995 56.8524H194.236C194.358 56.8524 194.425 56.9199 194.425 57.0422V64.4093C194.425 64.5317 194.358 64.5992 194.236 64.5992H193.062C192.94 64.5992 192.873 64.5317 192.873 64.4093V58.3798C192.873 58.3376 192.839 58.3038 192.797 58.3123L191.828 58.5106C191.707 58.5317 191.619 58.4684 191.619 58.346V57.5064C191.619 57.4051 191.665 57.3291 191.761 57.2954L192.764 56.8988C192.839 56.865 192.907 56.8524 192.995 56.8524Z" fill="#5E5E5E"/>
<path d="M200.57 62.1182C200.57 62.5612 200.495 62.9494 200.361 63.2701C199.987 64.1308 199.152 64.6751 198.041 64.6751C196.929 64.6751 196.048 64.1224 195.688 63.1941C195.558 62.8734 195.49 62.4979 195.49 62.1097V58.7806C195.49 57.5654 196.501 56.7679 197.965 56.7679C199.429 56.7679 200.386 57.5654 200.386 58.7468V59C200.386 59.1224 200.319 59.1899 200.197 59.1899H199.018C198.897 59.1899 198.829 59.135 198.829 59.0675V58.9578C198.829 58.4726 198.477 58.1055 197.961 58.1055C197.445 58.1055 197.038 58.4726 197.038 58.9916V60.0085C197.038 60.0633 197.072 60.0844 197.114 60.0422C197.466 59.7553 197.881 59.6667 198.301 59.6667C199.169 59.6667 199.907 60.076 200.302 60.8523C200.491 61.2068 200.566 61.6371 200.566 62.1224L200.57 62.1182ZM199.018 62.1393C199.018 61.8861 198.964 61.6076 198.842 61.4093C198.666 61.1224 198.402 60.9663 198.041 60.9663C197.647 60.9663 197.37 61.1224 197.214 61.422C197.093 61.6329 197.051 61.9198 197.051 62.1646C197.051 62.4093 197.097 62.6498 197.194 62.8397C197.349 63.1477 197.621 63.3249 198.028 63.3249C198.435 63.3249 198.699 63.135 198.855 62.8397C198.964 62.6498 199.018 62.4093 199.018 62.1435V62.1393Z" fill="#5E5E5E"/>
<path d="M201.434 62.1815V59.2616C201.434 57.7258 202.437 56.7637 204.052 56.7637C205.667 56.7637 206.678 57.7258 206.678 59.2616V62.1815C206.678 63.7426 205.667 64.7131 204.052 64.7131C202.437 64.7131 201.434 63.7384 201.434 62.1815ZM205.13 62.2616V59.2194C205.13 58.5317 204.71 58.1013 204.052 58.1013C203.393 58.1013 202.986 58.5317 202.986 59.2194V62.2616C202.986 62.9494 203.406 63.3798 204.052 63.3798C204.698 63.3798 205.13 62.9494 205.13 62.2616Z" fill="#5E5E5E"/>
<path d="M172.625 39.751H173.867C173.988 39.751 174.055 39.8186 174.055 39.9409V47.308C174.055 47.4304 173.988 47.4979 173.867 47.4979H172.692C172.571 47.4979 172.503 47.4304 172.503 47.308V41.2785C172.503 41.2363 172.47 41.2025 172.428 41.211L171.459 41.4093C171.337 41.4304 171.249 41.3671 171.249 41.2447V40.405C171.249 40.3038 171.295 40.2278 171.392 40.1941L172.394 39.7975C172.47 39.7637 172.537 39.751 172.625 39.751Z" fill="#5E5E5E"/>
<path d="M180.792 44.308V45.3164C180.792 45.4388 180.725 45.5063 180.603 45.5063H180.209C180.167 45.5063 180.142 45.5274 180.142 45.5738V47.3122C180.142 47.4346 180.075 47.5021 179.953 47.5021H178.775C178.653 47.5021 178.586 47.4346 178.586 47.3122V45.5738C178.586 45.5316 178.565 45.5063 178.519 45.5063H175.196C175.075 45.5063 175.008 45.4388 175.008 45.3164V44.519C175.008 44.4304 175.02 44.3755 175.05 44.2869L177.009 39.8945C177.055 39.8059 177.13 39.751 177.227 39.751H178.481C178.624 39.751 178.678 39.8523 178.624 39.9704L176.82 44.0422C176.799 44.097 176.832 44.1181 176.874 44.1181H178.514C178.556 44.1181 178.582 44.097 178.582 44.0506V42.7468C178.582 42.6245 178.649 42.5569 178.77 42.5569H179.949C180.071 42.5569 180.138 42.6245 180.138 42.7468V44.0506C180.138 44.0844 180.159 44.1181 180.205 44.1181H180.599C180.721 44.1181 180.788 44.1856 180.788 44.308H180.792Z" fill="#5E5E5E"/>
<path d="M181.816 45.0802V42.1603C181.816 40.6245 182.818 39.6624 184.433 39.6624C186.048 39.6624 187.059 40.6245 187.059 42.1603V45.0802C187.059 46.6413 186.048 47.6118 184.433 47.6118C182.818 47.6118 181.816 46.6371 181.816 45.0802ZM185.511 45.1603V42.1181C185.511 41.4304 185.092 41 184.433 41C183.775 41 183.368 41.4304 183.368 42.1181V45.1603C183.368 45.8481 183.787 46.2785 184.433 46.2785C185.079 46.2785 185.511 45.8481 185.511 45.1603Z" fill="#5E5E5E"/>
<path d="M148.245 27.6498H149.487C149.609 27.6498 149.676 27.7173 149.676 27.8397V35.2067C149.676 35.3291 149.609 35.3966 149.487 35.3966H148.313C148.191 35.3966 148.124 35.3291 148.124 35.2067V29.1772C148.124 29.135 148.09 29.1013 148.048 29.1097L147.079 29.308C146.958 29.3291 146.87 29.2658 146.87 29.1435V28.3038C146.87 28.2025 146.916 28.1266 147.012 28.0928L148.015 27.6962C148.09 27.6624 148.157 27.654 148.245 27.654V27.6498Z" fill="#5E5E5E"/>
<path d="M150.775 35.2025V34.2742C150.775 34.1856 150.808 34.1181 150.875 34.0422C151.756 33.1561 152.537 32.2405 153.271 31.443C153.866 30.7806 154.273 30.1941 154.273 29.7848C154.273 29.2658 153.879 28.8987 153.283 28.8987C152.688 28.8987 152.293 29.2658 152.293 29.8059V30.0253C152.293 30.1477 152.226 30.2152 152.105 30.2152H150.917C150.796 30.2152 150.729 30.1477 150.729 30.0253V29.5612C150.796 28.3333 151.874 27.5569 153.279 27.5569C154.873 27.5569 155.842 28.5401 155.842 29.7468C155.842 30.3882 155.502 31.0295 154.919 31.751C154.357 32.4472 153.644 33.1688 152.885 33.9747C152.843 34.0084 152.864 34.0506 152.918 34.0506H155.8C155.922 34.0506 155.989 34.1181 155.989 34.2405V35.2025C155.989 35.3249 155.922 35.3924 155.8 35.3924H150.959C150.838 35.3924 150.771 35.3249 150.771 35.2025H150.775Z" fill="#5E5E5E"/>
<path d="M156.941 32.9789V30.059C156.941 28.5232 157.944 27.5612 159.559 27.5612C161.174 27.5612 162.184 28.5232 162.184 30.059V32.9789C162.184 34.5401 161.174 35.5105 159.559 35.5105C157.944 35.5105 156.941 34.5358 156.941 32.9789ZM160.637 33.0548V30.0126C160.637 29.3249 160.217 28.8945 159.559 28.8945C158.9 28.8945 158.493 29.3249 158.493 30.0126V33.0548C158.493 33.7426 158.913 34.173 159.559 34.173C160.205 34.173 160.637 33.7426 160.637 33.0548Z" fill="#5E5E5E"/>
<path d="M120.208 22.5105H121.45C121.571 22.5105 121.638 22.578 121.638 22.7004V30.0675C121.638 30.1899 121.571 30.2574 121.45 30.2574H120.275C120.153 30.2574 120.086 30.1899 120.086 30.0675V24.038C120.086 23.9958 120.053 23.962 120.011 23.9704L119.042 24.1688C118.92 24.1899 118.832 24.1266 118.832 24.0042V23.1645C118.832 23.0633 118.878 22.9873 118.975 22.9536L119.977 22.5569C120.053 22.5232 120.12 22.5147 120.208 22.5147V22.5105Z" fill="#5E5E5E"/>
<path d="M122.746 27.8439V24.924C122.746 23.3882 123.748 22.4261 125.363 22.4261C126.978 22.4261 127.989 23.3882 127.989 24.924V27.8439C127.989 29.405 126.978 30.3755 125.363 30.3755C123.748 30.3755 122.746 29.4008 122.746 27.8439ZM126.441 27.9198V24.8776C126.441 24.1899 126.022 23.7595 125.363 23.7595C124.705 23.7595 124.298 24.1899 124.298 24.8776V27.9198C124.298 28.6076 124.717 29.038 125.363 29.038C126.009 29.038 126.441 28.6076 126.441 27.9198Z" fill="#5E5E5E"/>
<path d="M129.013 27.8439V24.924C129.013 23.3882 130.015 22.4261 131.63 22.4261C133.245 22.4261 134.256 23.3882 134.256 24.924V27.8439C134.256 29.405 133.245 30.3755 131.63 30.3755C130.015 30.3755 129.013 29.4008 129.013 27.8439ZM132.708 27.9198V24.8776C132.708 24.1899 132.289 23.7595 131.63 23.7595C130.972 23.7595 130.565 24.1899 130.565 24.8776V27.9198C130.565 28.6076 130.984 29.038 131.63 29.038C132.276 29.038 132.708 28.6076 132.708 27.9198Z" fill="#5E5E5E"/>
<path d="M98.924 32.0549C98.924 32.5401 98.8233 32.8861 98.6723 33.1814C98.2864 33.9241 97.4642 34.3966 96.3652 34.3966C95.3417 34.3966 94.4943 33.9747 94.0791 33.1561C93.9029 32.8144 93.8148 32.4599 93.8148 32.038C93.8148 31.5865 93.9239 31.1857 94.0665 30.8861C94.2091 30.6203 94.3979 30.4093 94.6286 30.2447C94.6705 30.211 94.6705 30.1772 94.6286 30.1561C94.4188 30 94.2552 29.8144 94.121 29.6034C93.9574 29.3249 93.8567 28.9958 93.8567 28.5949C93.8567 28.1308 93.9868 27.7215 94.2175 27.3882C94.6453 26.7679 95.4256 26.4135 96.3736 26.4135C97.4306 26.4135 98.2444 26.8017 98.6513 27.5949C98.7729 27.827 98.903 28.1941 98.903 28.6034C98.903 28.9789 98.8023 29.2996 98.6261 29.5781C98.4835 29.789 98.3073 29.9747 98.0976 30.1435C98.0556 30.1646 98.0556 30.1983 98.0976 30.2321C98.3409 30.3882 98.538 30.5992 98.6807 30.8945C98.8359 31.2025 98.924 31.5823 98.924 32.0464V32.0549ZM95.3962 28.7933C95.3962 29.0127 95.4507 29.2236 95.5514 29.3798C95.715 29.6582 96.0128 29.8017 96.3778 29.8017C96.7721 29.8017 97.0699 29.6456 97.2335 29.3713C97.3342 29.2068 97.3761 28.9958 97.3761 28.7848C97.3761 28.5865 97.3425 28.4093 97.267 28.2658C97.1034 27.9452 96.793 27.7679 96.3778 27.7679C95.9625 27.7679 95.6647 27.9452 95.5095 28.2447C95.434 28.4009 95.4004 28.5992 95.4004 28.7975L95.3962 28.7933ZM97.3761 31.903C97.3761 31.692 97.33 31.481 97.267 31.3291C97.1118 30.9747 96.8056 30.7764 96.3778 30.7764C95.9499 30.7764 95.6856 30.9747 95.522 31.3165C95.4465 31.481 95.4004 31.7047 95.4004 31.9241C95.4004 32.2321 95.4675 32.4768 95.5766 32.6667C95.7402 32.9325 96.017 33.0886 96.3778 33.0886C96.7385 33.0886 97.0028 32.9452 97.1706 32.7004C97.3006 32.5021 97.3803 32.2363 97.3803 31.903H97.3761Z" fill="#5E5E5E"/>
<path d="M99.8594 31.903V28.9832C99.8594 27.4473 100.862 26.4853 102.477 26.4853C104.092 26.4853 105.103 27.4473 105.103 28.9832V31.903C105.103 33.4642 104.092 34.4346 102.477 34.4346C100.862 34.4346 99.8594 33.4599 99.8594 31.903ZM103.555 31.9789V28.9367C103.555 28.249 103.135 27.8186 102.477 27.8186C101.818 27.8186 101.411 28.249 101.411 28.9367V31.9789C101.411 32.6667 101.831 33.0971 102.477 33.0971C103.123 33.0971 103.555 32.6667 103.555 31.9789Z" fill="#5E5E5E"/>
<path d="M72.6189 44.1645C72.6189 44.6076 72.5434 44.9958 72.4092 45.3164C72.0358 46.1772 71.2011 46.7215 70.0895 46.7215C68.9779 46.7215 68.097 46.1688 67.7362 45.2405C67.6062 44.9198 67.5391 44.5443 67.5391 44.1561V40.827C67.5391 39.6118 68.55 38.8143 70.014 38.8143C71.4779 38.8143 72.4343 39.6118 72.4343 40.7932V41.0464C72.4343 41.1688 72.3672 41.2363 72.2456 41.2363H71.0668C70.9452 41.2363 70.8781 41.1814 70.8781 41.1139V41.0042C70.8781 40.519 70.5257 40.1519 70.0098 40.1519C69.4938 40.1519 69.0869 40.519 69.0869 41.038V42.0548C69.0869 42.1097 69.1205 42.1308 69.1625 42.0886C69.5148 41.8017 69.9343 41.7131 70.3496 41.7131C71.2179 41.7131 71.9561 42.1223 72.3504 42.8987C72.5392 43.2531 72.6147 43.6835 72.6147 44.1688L72.6189 44.1645ZM71.0668 44.1856C71.0668 43.9325 71.0123 43.654 70.8907 43.4557C70.7145 43.1688 70.4502 43.0126 70.0895 43.0126C69.6952 43.0126 69.4183 43.1688 69.2631 43.4683C69.1415 43.6793 69.0995 43.9662 69.0995 44.211C69.0995 44.4557 69.1457 44.6962 69.2422 44.8861C69.3974 45.1941 69.67 45.3713 70.0769 45.3713C70.4838 45.3713 70.7481 45.1814 70.9033 44.8861C71.0123 44.6962 71.0668 44.4557 71.0668 44.1899V44.1856Z" fill="#5E5E5E"/>
<path d="M73.4872 44.2321V41.3122C73.4872 39.7764 74.4897 38.8143 76.1047 38.8143C77.7197 38.8143 78.7306 39.7764 78.7306 41.3122V44.2321C78.7306 45.7932 77.7197 46.7637 76.1047 46.7637C74.4897 46.7637 73.4872 45.789 73.4872 44.2321ZM77.1786 44.308V41.2658C77.1786 40.578 76.7591 40.1477 76.1005 40.1477C75.4419 40.1477 75.0351 40.578 75.0351 41.2658V44.308C75.0351 44.9958 75.4545 45.4261 76.1005 45.4261C76.7465 45.4261 77.1786 44.9958 77.1786 44.308Z" fill="#5E5E5E"/>
<path d="M51.7082 60.9958V62.0042C51.7082 62.1266 51.6411 62.1941 51.5195 62.1941H51.1252C51.0832 62.1941 51.0581 62.2152 51.0581 62.2616V64C51.0581 64.1224 50.9909 64.1899 50.8693 64.1899H49.6906C49.5689 64.1899 49.5018 64.1224 49.5018 64V62.2616C49.5018 62.2194 49.4809 62.1941 49.4347 62.1941H46.1125C45.9909 62.1941 45.9237 62.1266 45.9237 62.0042V61.2067C45.9237 61.1181 45.9363 61.0633 45.9657 60.9747L47.9246 56.5823C47.9708 56.4937 48.0463 56.4388 48.1427 56.4388H49.397C49.5396 56.4388 49.5941 56.5401 49.5396 56.6582L47.7359 60.73C47.7149 60.7848 47.7484 60.8059 47.7904 60.8059H49.4305C49.4725 60.8059 49.4976 60.7848 49.4976 60.7384V59.4346C49.4976 59.3122 49.5647 59.2447 49.6864 59.2447H50.8651C50.9868 59.2447 51.0539 59.3122 51.0539 59.4346V60.7384C51.0539 60.7721 51.0748 60.8059 51.121 60.8059H51.5153C51.6369 60.8059 51.7041 60.8734 51.7041 60.9958H51.7082Z" fill="#5E5E5E"/>
<path d="M52.7276 61.7722V58.8523C52.7276 57.3165 53.7301 56.3544 55.3451 56.3544C56.96 56.3544 57.971 57.3165 57.971 58.8523V61.7722C57.971 63.3333 56.96 64.3038 55.3451 64.3038C53.7301 64.3038 52.7276 63.3291 52.7276 61.7722ZM56.4231 61.8481V58.8059C56.4231 58.1181 56.0036 57.6878 55.3451 57.6878C54.6865 57.6878 54.2796 58.1181 54.2796 58.8059V61.8481C54.2796 62.5359 54.6991 62.9662 55.3451 62.9662C55.9911 62.9662 56.4231 62.5359 56.4231 61.8481Z" fill="#5E5E5E"/>
<path d="M31.7456 85.7089V84.7806C31.7456 84.692 31.7792 84.6245 31.8463 84.5485C32.7272 83.6625 33.5074 82.7468 34.2415 81.9494C34.8371 81.2869 35.244 80.7004 35.244 80.2911C35.244 79.7722 34.8497 79.4051 34.254 79.4051C33.6584 79.4051 33.2641 79.7722 33.2641 80.3122V80.5317C33.2641 80.654 33.197 80.7215 33.0753 80.7215H31.8882C31.7666 80.7215 31.6995 80.654 31.6995 80.5317V80.0675C31.7666 78.8397 32.8446 78.0633 34.2498 78.0633C35.8438 78.0633 36.8128 79.0464 36.8128 80.2532C36.8128 80.8945 36.473 81.5359 35.89 82.2574C35.3279 82.9536 34.6148 83.6751 33.8555 84.481C33.8136 84.5148 33.8346 84.557 33.8891 84.557H36.7709C36.8925 84.557 36.9596 84.6245 36.9596 84.7468V85.7089C36.9596 85.8312 36.8925 85.8987 36.7709 85.8987H31.9302C31.8085 85.8987 31.7414 85.8312 31.7414 85.7089H31.7456Z" fill="#5E5E5E"/>
<path d="M37.916 83.4895V80.5696C37.916 79.0338 38.9186 78.0717 40.5335 78.0717C42.1485 78.0717 43.1594 79.0338 43.1594 80.5696V83.4895C43.1594 85.0506 42.1485 86.0211 40.5335 86.0211C38.9186 86.0211 37.916 85.0464 37.916 83.4895ZM41.6074 83.5654V80.5232C41.6074 79.8355 41.1879 79.4051 40.5293 79.4051C39.8708 79.4051 39.4639 79.8355 39.4639 80.5232V83.5654C39.4639 84.249 39.8833 84.6836 40.5293 84.6836C41.1753 84.6836 41.6074 84.2532 41.6074 83.5654Z" fill="#5E5E5E"/>
<path d="M22.5466 110.236V107.316C22.5466 105.781 23.5491 104.819 25.1641 104.819C26.7791 104.819 27.79 105.781 27.79 107.316V110.236C27.79 111.797 26.7791 112.768 25.1641 112.768C23.5491 112.768 22.5466 111.793 22.5466 110.236ZM26.2421 110.312V107.27C26.2421 106.587 25.8227 106.152 25.1641 106.152C24.5055 106.152 24.0986 106.582 24.0986 107.27V110.312C24.0986 111 24.5181 111.43 25.1641 111.43C25.8101 111.43 26.2421 111 26.2421 110.312Z" fill="#5E5E5E"/>
<path d="M126.496 153C125.573 152.954 124.633 152.958 123.723 152.823C122.393 152.62 121.101 152.388 119.814 151.992C117.364 151.245 115.065 150.127 112.985 148.62C108.87 145.641 105.816 141.376 104.323 136.502C102.75 131.363 103.052 125.89 104.994 120.899C106.764 116.342 110.132 112.363 114.268 109.802C117.045 108.08 120.086 107.042 123.291 106.544C127.331 105.916 131.592 106.511 135.355 108.076C139.856 109.945 143.858 113.283 146.328 117.527C149.009 122.131 150.25 127.494 149.5 132.814C148.782 137.92 146.421 142.692 142.759 146.304C140.947 148.089 138.845 149.603 136.551 150.7C135.447 151.228 134.302 151.658 133.132 152.013C131.84 152.405 130.539 152.633 129.21 152.835C128.32 152.97 127.402 152.958 126.504 153.004L126.496 153ZM126.496 153C127.549 152.945 128.597 152.911 129.642 152.751C131.03 152.536 132.373 152.232 133.706 151.789C136.328 150.916 138.732 149.561 140.863 147.797C145.166 144.228 147.985 139.135 148.828 133.595C149.235 130.924 149.126 128.16 148.581 125.519C148.006 122.73 146.823 120.165 145.33 117.759C142.981 113.983 139.285 111.165 135.296 109.35C132.779 108.207 130.003 107.726 127.263 107.591C124.935 107.477 122.653 107.827 120.405 108.405C116.345 109.443 112.582 111.937 109.776 115.017C106.105 119.042 103.916 124.536 103.903 130.008C103.89 135.447 105.77 140.878 109.302 145.021C111.068 147.093 113.224 148.882 115.602 150.194C118.06 151.553 120.741 152.346 123.501 152.776C124.491 152.932 125.493 152.949 126.496 153.004V153Z" fill="url(#paint1_linear_914_54)"/>
<path d="M137.091 140.54C142.939 134.658 142.939 125.12 137.091 119.237C131.243 113.355 121.761 113.355 115.913 119.237C110.065 125.12 110.065 134.658 115.913 140.54C121.761 146.423 131.243 146.423 137.091 140.54Z" fill="url(#paint2_radial_914_54)"/>
<g style="mix-blend-mode:multiply" opacity="0.9">
<path opacity="0.1" d="M96.2897 139.177L113.819 132.603C119.801 130.359 119.344 127.325 123.937 125.43C128.698 123.464 130.678 126.025 136.387 123.831C136.387 123.831 245.781 81.3713 245.798 81.3671C248.621 80.4051 250.785 83.0295 246.943 84.8354C246.926 84.8439 141.559 133.43 141.559 133.43C136.278 135.768 136.085 139.232 131.588 141.089C126.878 143.034 125.242 140.481 119.373 143.131L102.301 150.835C92.2585 155.523 87.5646 142.253 96.2855 139.173L96.2897 139.177Z" fill="white"/>
<path opacity="0.11" d="M96.2603 139.181L113.874 132.57C119.839 130.333 119.386 127.308 123.954 125.422C128.685 123.468 130.661 126.017 136.358 123.831C136.358 123.831 245.533 81.4388 245.806 81.3418C248.583 80.3334 250.764 83.038 246.943 84.7848C246.674 84.9072 141.878 133.207 141.521 133.38C136.223 135.726 136.056 139.173 131.563 141.03C126.861 142.975 125.221 140.426 119.352 143.072C119.285 143.097 102.267 150.789 102.267 150.789C92.2669 155.456 87.594 142.241 96.2603 139.186V139.181Z" fill="#FDFDFD"/>
<path opacity="0.12" d="M96.2309 139.181L113.933 132.532C119.881 130.3 119.436 127.287 123.975 125.409C128.677 123.468 130.649 126.004 136.328 123.823C136.328 123.823 245.286 81.4979 245.814 81.308C248.562 80.308 250.718 83 246.943 84.7215C246.427 84.9578 142.192 132.97 141.479 133.312C136.165 135.671 136.022 139.097 131.529 140.958C126.84 142.903 125.191 140.359 119.327 143C119.197 143.055 102.225 150.726 102.225 150.726C92.2627 155.367 87.6192 142.215 96.2267 139.177L96.2309 139.181Z" fill="#FBFBFB"/>
<path opacity="0.14" d="M96.2016 139.181L113.991 132.498C119.923 130.274 119.482 127.27 123.996 125.405C128.669 123.477 130.64 126 136.303 123.827C136.303 123.827 245.043 81.5696 245.831 81.2827C248.549 80.2954 250.684 82.9663 246.951 84.6667C246.188 85.0169 142.52 132.738 141.45 133.257C136.118 135.624 136.001 139.034 131.513 140.899C126.831 142.84 125.174 140.304 119.314 142.937C119.117 143.017 102.2 150.675 102.2 150.675C92.2753 155.295 87.6569 142.203 96.2058 139.181H96.2016Z" fill="#F8F8F8"/>
<path opacity="0.15" d="M96.1722 139.186L114.046 132.464C119.96 130.245 119.524 127.249 124.013 125.397C128.656 123.481 130.623 125.992 136.269 123.823C136.269 123.823 244.791 81.6329 245.835 81.2532C248.524 80.2743 250.634 82.9283 246.947 84.6076C245.932 85.0717 142.83 132.506 141.408 133.194C136.06 135.574 135.967 138.966 131.479 140.831C126.806 142.772 125.145 140.241 119.285 142.869C119.021 142.975 102.154 150.616 102.154 150.616C92.2669 155.211 87.6737 142.181 96.168 139.181L96.1722 139.186Z" fill="#F6F6F6"/>
<path opacity="0.16" d="M96.1428 139.186L114.105 132.426C120.002 130.215 119.575 127.228 124.033 125.388C128.652 123.485 130.611 125.983 136.244 123.823C136.244 123.823 244.543 81.7004 245.848 81.2278C248.507 80.2574 250.596 82.8945 246.951 84.557C245.689 85.1308 143.153 132.278 141.37 133.143C136.009 135.536 135.938 138.907 131.454 140.776C126.794 142.717 125.124 140.19 119.264 142.814C118.933 142.945 102.116 150.57 102.116 150.57C92.2669 155.143 87.6989 142.169 96.1386 139.19L96.1428 139.186Z" fill="#F4F4F4"/>
<path opacity="0.17" d="M96.1135 139.186L114.163 132.392C120.049 130.186 119.621 127.211 124.054 125.38C128.644 123.485 130.602 125.975 136.215 123.819C136.215 123.819 244.296 81.7637 245.856 81.1983C248.486 80.2405 250.55 82.8566 246.951 84.4979C245.437 85.1857 143.472 132.046 141.333 133.08C135.955 135.481 135.909 138.835 131.425 140.709C126.773 142.65 125.095 140.122 119.243 142.747C118.849 142.907 102.083 150.515 102.083 150.515C92.2753 155.068 87.7283 142.152 96.1135 139.19V139.186Z" fill="#F2F2F2"/>
<path opacity="0.18" d="M96.0883 139.19L114.222 132.359C120.09 130.156 119.671 127.194 124.075 125.371C128.635 123.489 130.59 125.966 136.19 123.819C136.19 123.819 244.053 81.8312 245.869 81.1688C248.47 80.2194 250.513 82.8186 246.955 84.4388C245.194 85.2405 143.791 131.81 141.299 133.021C135.905 135.435 135.884 138.768 131.404 140.641C126.76 142.582 125.078 140.059 119.226 142.675C118.765 142.861 102.049 150.451 102.049 150.451C92.2795 154.979 87.7576 142.127 96.0841 139.186L96.0883 139.19Z" fill="#F0F0F0"/>
<path opacity="0.19" d="M96.059 139.19L114.281 132.321C120.132 130.127 119.717 127.173 124.096 125.363C128.627 123.494 130.581 125.958 136.165 123.819C136.165 123.819 243.809 81.8988 245.886 81.1435C248.457 80.2068 250.475 82.7848 246.968 84.384C244.959 85.2996 144.122 131.582 141.27 132.962C135.858 135.384 135.863 138.705 131.383 140.578C126.752 142.515 125.061 140 119.21 142.612C118.681 142.823 102.015 150.401 102.015 150.401C92.2837 154.907 87.787 142.114 96.059 139.19Z" fill="#EDEDED"/>
<path opacity="0.21" d="M96.0296 139.19L114.34 132.287C120.174 130.097 119.763 127.152 124.117 125.354C128.618 123.498 130.569 125.949 136.135 123.814C136.135 123.814 243.562 81.962 245.894 81.1139C248.44 80.1857 250.433 82.7468 246.968 84.3249C244.707 85.3544 144.441 131.346 141.232 132.899C135.804 135.333 135.829 138.633 131.357 140.511C126.735 142.447 125.036 139.937 119.189 142.544C118.593 142.785 101.982 150.342 101.982 150.342C92.2879 154.823 87.8163 142.089 96.0338 139.186L96.0296 139.19Z" fill="#EBEBEB"/>
<path opacity="0.22" d="M96.0002 139.194L114.394 132.253C120.212 130.072 119.809 127.135 124.134 125.35C128.606 123.506 130.552 125.945 136.106 123.819C136.106 123.819 243.314 82.0338 245.903 81.0886C248.419 80.1688 250.387 82.7131 246.968 84.2743C244.46 85.4177 144.755 131.122 141.19 132.848C135.745 135.291 135.795 138.574 131.324 140.456C126.714 142.392 125.007 139.886 119.159 142.489C118.501 142.755 101.936 150.3 101.936 150.3C92.2795 154.759 87.8331 142.084 95.996 139.203L96.0002 139.194Z" fill="#E9E9E9"/>
<path opacity="0.23" d="M95.9709 139.194L114.453 132.215C120.258 130.038 119.856 127.114 124.155 125.338C128.597 123.506 130.544 125.933 136.077 123.81C136.077 123.81 243.067 82.0928 245.911 81.0549C248.398 80.1477 250.345 82.6709 246.968 84.211C244.208 85.4684 145.074 130.882 141.152 132.781C135.691 135.236 135.766 138.498 131.299 140.384C126.697 142.321 124.986 139.819 119.142 142.414C118.417 142.705 101.902 150.232 101.902 150.232C92.2879 154.667 87.8625 142.055 95.9667 139.19L95.9709 139.194Z" fill="#E7E7E7"/>
<path opacity="0.24" d="M95.9415 139.198L114.511 132.186C120.3 130.017 119.906 127.101 124.176 125.333C128.589 123.511 130.531 125.928 136.051 123.814C136.051 123.814 242.824 82.1646 245.923 81.0338C248.382 80.135 250.303 82.6414 246.972 84.1604C243.965 85.5317 145.393 130.658 141.119 132.73C135.644 135.194 135.741 138.439 131.274 140.329C126.68 142.266 124.961 139.768 119.121 142.359C118.329 142.675 101.869 150.19 101.869 150.19C92.2921 154.603 87.8918 142.051 95.9415 139.203V139.198Z" fill="#E4E4E4"/>
<path opacity="0.25" d="M95.9121 139.198L114.566 132.148C120.338 129.983 119.948 127.076 124.193 125.325C128.576 123.515 130.519 125.92 136.018 123.81C136.018 123.81 242.572 82.2278 245.932 81.0042C248.361 80.1181 250.261 82.6076 246.972 84.1013C243.713 85.5823 145.712 130.422 141.077 132.667C135.586 135.143 135.707 138.371 131.244 140.257C126.664 142.194 124.935 139.7 119.096 142.287C118.241 142.633 101.827 150.127 101.827 150.127C92.2879 154.515 87.917 142.021 95.9079 139.198H95.9121Z" fill="#E2E2E2"/>
<path opacity="0.27" d="M95.887 139.198L114.629 132.11C120.384 129.949 119.998 127.055 124.218 125.312C128.572 123.515 130.51 125.907 135.997 123.806C135.997 123.806 242.333 82.2954 245.949 80.9705C248.348 80.0928 250.223 82.5654 246.981 84.0422C243.474 85.6371 146.039 130.19 141.047 132.608C135.54 135.093 135.686 138.304 131.223 140.194C126.651 142.127 124.919 139.637 119.08 142.224C118.157 142.595 101.797 150.076 101.797 150.076C92.2963 154.443 87.9506 142.008 95.887 139.203V139.198Z" fill="#E0E0E0"/>
<path opacity="0.28" d="M95.8576 139.203L114.688 132.08C120.426 129.928 120.049 127.042 124.239 125.312C128.568 123.527 130.498 125.907 135.967 123.81C135.967 123.81 242.081 82.3671 245.957 80.9494C248.327 80.0844 250.181 82.5359 246.981 83.9916C243.226 85.7004 146.354 129.962 141.01 132.553C135.485 135.051 135.657 138.241 131.198 140.135C126.638 142.068 124.893 139.582 119.063 142.16C118.073 142.557 101.764 150.021 101.764 150.021C92.3005 154.367 87.9799 141.992 95.8618 139.203H95.8576Z" fill="#DEDEDE"/>
<path opacity="0.29" d="M95.8282 139.203L114.746 132.042C120.468 129.895 120.095 127.021 124.264 125.3C128.564 123.527 130.493 125.895 135.946 123.806C135.946 123.806 241.842 82.4304 245.974 80.9198C248.319 80.0633 250.143 82.4979 246.989 83.9325C242.983 85.7553 146.681 129.73 140.976 132.489C135.435 135 135.632 138.169 131.173 140.068C126.622 142 124.872 139.519 119.042 142.093C117.985 142.519 101.726 149.966 101.726 149.966C92.3047 154.287 88.0051 141.975 95.8282 139.207V139.203Z" fill="#DCDCDC"/>
<path opacity="0.3" d="M95.7989 139.203L114.801 132.004C120.51 129.865 120.141 127 124.281 125.287C128.551 123.527 130.477 125.882 135.913 123.797C135.913 123.797 241.59 82.4894 245.982 80.8861C248.298 80.0422 250.101 82.4557 246.989 83.8692C242.736 85.8059 146.995 129.489 140.938 132.426C135.38 134.945 135.603 138.101 131.148 140C126.605 141.932 124.851 139.456 119.021 142.025C117.901 142.477 101.692 149.907 101.692 149.907C92.3089 154.207 88.0345 141.949 95.8031 139.203H95.7989Z" fill="#D9D9D9"/>
<path opacity="0.31" d="M95.7695 139.207L114.86 131.97C120.552 129.835 120.187 126.979 124.302 125.283C128.543 123.532 130.468 125.878 135.888 123.802C135.888 123.802 241.347 82.5612 245.995 80.8608C248.281 80.0253 250.06 82.422 246.993 83.8144C242.488 85.865 147.318 129.262 140.905 132.367C135.33 134.899 135.577 138.034 131.123 139.937C126.592 141.869 124.826 139.397 119 141.962C117.813 142.439 101.655 149.857 101.655 149.857C92.3089 154.131 88.0596 141.937 95.7737 139.207H95.7695Z" fill="#D7D7D7"/>
<path opacity="0.33" d="M95.7401 139.207L114.918 131.937C120.594 129.81 120.233 126.962 124.323 125.274C128.534 123.536 130.456 125.869 135.858 123.797C135.858 123.797 241.1 82.6245 246.003 80.8312C248.26 80.0042 250.018 82.384 246.997 83.7595C242.245 85.9241 147.641 129.03 140.867 132.312C135.28 134.852 135.544 137.97 131.097 139.878C126.575 141.806 124.805 139.342 118.979 141.899C117.725 142.401 101.617 149.802 101.617 149.802C92.3089 154.055 88.0848 141.92 95.7443 139.211L95.7401 139.207Z" fill="#D5D5D5"/>
<path opacity="0.34" d="M95.7108 139.207L114.973 131.899C120.632 129.776 120.279 126.941 124.34 125.266C128.522 123.54 130.439 125.861 135.829 123.797C135.829 123.797 240.852 82.692 246.012 80.8059C248.239 79.9916 249.971 82.3502 246.997 83.7046C241.997 85.9789 147.956 128.802 140.829 132.253C135.225 134.806 135.514 137.903 131.068 139.81C126.555 141.738 124.78 139.278 118.958 141.831C117.641 142.363 101.583 149.743 101.583 149.743C92.3131 153.97 88.1142 141.899 95.715 139.207H95.7108Z" fill="#D3D3D3"/>
<path opacity="0.35" d="M95.6814 139.211L115.032 131.865C120.674 129.747 120.325 126.924 124.361 125.257C128.513 123.544 130.43 125.852 135.8 123.793C135.8 123.793 240.605 82.7553 246.02 80.7764C248.218 79.9705 249.929 82.3123 246.997 83.6456C241.746 86.0338 148.275 128.565 140.791 132.194C135.17 134.755 135.485 137.835 131.043 139.747C126.542 141.675 124.759 139.215 118.937 141.768C117.553 142.325 101.546 149.692 101.546 149.692C92.3173 153.899 88.1393 141.882 95.6856 139.211H95.6814Z" fill="#D1D1D1"/>
<path opacity="0.36" d="M95.6562 139.211L115.095 131.831C120.72 129.722 120.38 126.903 124.386 125.249C128.509 123.549 130.422 125.848 135.779 123.793C135.779 123.793 240.366 82.827 246.041 80.7469C248.21 79.9536 249.896 82.2743 247.01 83.5865C241.511 86.0886 148.602 128.333 140.762 132.131C135.124 134.705 135.464 137.768 131.022 139.679C126.529 141.608 124.738 139.152 118.92 141.7C117.469 142.283 101.512 149.633 101.512 149.633C92.3215 153.814 88.1687 141.861 95.6604 139.211H95.6562Z" fill="#CECECE"/>
<path opacity="0.37" d="M95.6269 139.215L115.149 131.797C120.762 129.692 120.422 126.886 124.403 125.245C128.497 123.557 130.409 125.844 135.745 123.793C135.745 123.793 240.114 82.8945 246.045 80.7215C248.189 79.9367 249.85 82.2405 247.006 83.5316C241.255 86.1477 148.917 128.105 140.72 132.072C135.066 134.654 135.431 137.7 130.993 139.616C126.513 141.544 124.713 139.093 118.895 141.633C117.376 142.245 101.474 149.578 101.474 149.578C92.3215 153.738 88.1939 141.844 95.6311 139.211L95.6269 139.215Z" fill="#CCCCCC"/>
<path opacity="0.38" d="M95.5975 139.215L115.208 131.76C120.804 129.662 120.468 126.865 124.424 125.232C128.492 123.553 130.397 125.831 135.72 123.789C135.72 123.789 239.871 82.9578 246.058 80.692C248.172 79.9198 249.808 82.2025 247.01 83.4768C241.011 86.2068 149.24 127.873 140.687 132.017C135.015 134.612 135.405 137.637 130.967 139.557C126.496 141.481 124.692 139.038 118.878 141.574C117.297 142.211 101.441 149.527 101.441 149.527C92.3256 153.662 88.2274 141.831 95.6017 139.215H95.5975Z" fill="#CACACA"/>
<path opacity="0.4" d="M95.5682 139.215L115.267 131.726C120.846 129.633 120.518 126.848 124.445 125.228C128.484 123.561 130.384 125.827 135.691 123.789C135.691 123.789 239.623 83.0253 246.066 80.6667C248.151 79.9029 249.766 82.1688 247.01 83.4219C240.76 86.2616 149.554 127.646 140.645 131.958C134.957 134.561 135.372 137.57 130.938 139.494C126.475 141.418 124.663 138.979 118.853 141.511C117.204 142.173 101.403 149.477 101.403 149.477C92.3256 153.591 88.2526 141.814 95.5724 139.224L95.5682 139.215Z" fill="#C8C8C8"/>
<path opacity="0.41" d="M95.5388 139.219L115.321 131.692C120.883 129.608 120.56 126.831 124.461 125.219C128.472 123.565 130.372 125.819 135.661 123.789C135.661 123.789 239.376 83.0971 246.075 80.6372C248.13 79.8819 249.72 82.1308 247.01 83.3629C240.512 86.3165 149.873 127.409 140.607 131.899C134.906 134.515 135.342 137.506 130.909 139.426C126.458 141.35 124.638 138.916 118.828 141.443C117.112 142.131 101.361 149.418 101.361 149.418C92.3257 153.511 88.2736 141.793 95.5388 139.219Z" fill="#C6C6C6"/>
<path opacity="0.42" d="M95.5094 139.219L115.38 131.654C120.925 129.574 120.611 126.806 124.482 125.207C128.463 123.565 130.359 125.806 135.632 123.781C135.632 123.781 239.128 83.1561 246.087 80.6034C248.113 79.8608 249.682 82.0886 247.014 83.2996C240.265 86.3671 150.196 127.173 140.569 131.831C134.852 134.46 135.313 137.43 130.883 139.354C126.441 141.278 124.617 138.848 118.807 141.367C117.024 142.084 101.323 149.354 101.323 149.354C92.3256 153.422 88.2987 141.768 95.5094 139.211V139.219Z" fill="#C3C3C3"/>
<path opacity="0.43" d="M95.4801 139.219L115.439 131.62C120.967 129.544 120.657 126.789 124.503 125.203C128.455 123.574 130.351 125.802 135.607 123.785C135.607 123.785 238.885 83.2279 246.1 80.5823C248.096 79.8481 249.64 82.0591 247.018 83.2532C240.022 86.4346 150.515 126.949 140.536 131.785C134.801 134.422 135.284 137.376 130.858 139.304C126.429 141.228 124.591 138.802 118.786 141.316C116.94 142.059 101.29 149.312 101.29 149.312C92.3299 153.359 88.3281 141.764 95.4801 139.228V139.219Z" fill="#C1C1C1"/>
<path opacity="0.44" d="M95.4549 139.224L115.497 131.586C121.013 129.519 120.703 126.772 124.524 125.194C128.446 123.578 130.338 125.793 135.577 123.781C135.577 123.781 238.637 83.2911 246.108 80.5527C248.075 79.8312 249.598 82.0211 247.023 83.1941C239.778 86.4895 150.838 126.717 140.502 131.722C134.751 134.371 135.259 137.304 130.837 139.236C126.416 141.156 124.575 138.734 118.773 141.249C116.861 142.017 101.26 149.257 101.26 149.257C92.3382 153.278 88.3617 141.747 95.4591 139.228L95.4549 139.224Z" fill="#BFBFBF"/>
<path opacity="0.46" d="M95.4255 139.224L115.556 131.549C121.055 129.485 120.753 126.751 124.545 125.186C128.438 123.578 130.326 125.785 135.552 123.781C135.552 123.781 238.394 83.3629 246.121 80.5232C248.059 79.8101 249.556 81.9831 247.027 83.135C239.531 86.5401 151.157 126.481 140.464 131.658C134.696 134.316 135.229 137.232 130.808 139.169C126.395 141.089 124.549 138.671 118.748 141.181C116.768 141.979 101.218 149.198 101.218 149.198C92.334 153.198 88.3826 141.722 95.4255 139.224Z" fill="#BDBDBD"/>
<path opacity="0.47" d="M95.3962 139.224L115.615 131.515C121.097 129.46 120.799 126.73 124.566 125.177C128.43 123.582 130.317 125.776 135.523 123.776C135.523 123.776 238.147 83.4262 246.129 80.4937C248.042 79.7933 249.514 81.9452 247.027 83.076C239.283 86.595 151.475 126.249 140.426 131.599C134.642 134.27 135.2 137.169 130.783 139.106C126.383 141.025 124.524 138.612 118.727 141.114C116.684 141.937 101.185 149.143 101.185 149.143C92.3424 153.118 88.412 141.705 95.4004 139.224H95.3962Z" fill="#BABABA"/>
<path opacity="0.48" d="M95.3668 139.228L115.669 131.481C121.135 129.43 120.846 126.713 124.583 125.173C128.417 123.591 130.3 125.772 135.493 123.781C135.493 123.781 237.899 83.4979 246.142 80.4726C248.025 79.7806 249.472 81.9156 247.031 83.0295C239.036 86.6625 151.798 126.025 140.393 131.549C134.596 134.228 135.175 137.11 130.758 139.046C126.366 140.966 124.503 138.557 118.706 141.055C116.596 141.903 101.147 149.093 101.147 149.093C92.3424 153.046 88.4372 141.692 95.3668 139.232V139.228Z" fill="#B8B8B8"/>
<path opacity="0.49" d="M95.3375 139.228L115.728 131.443C121.177 129.401 120.892 126.692 124.604 125.16C128.409 123.591 130.288 125.76 135.464 123.772C135.464 123.772 237.652 83.5612 246.15 80.4388C248.004 79.7553 249.43 81.8777 247.031 82.9663C238.788 86.7131 152.113 125.789 140.351 131.485C134.537 134.177 135.141 137.038 130.728 138.979C126.345 140.899 124.478 138.494 118.685 140.987C116.508 141.861 101.109 149.038 101.109 149.038C92.3424 152.966 88.4623 141.675 95.3375 139.232V139.228Z" fill="#B6B6B6"/>
<path opacity="0.5" d="M95.3081 139.232L115.787 131.409C121.219 129.371 120.938 126.675 124.625 125.152C128.404 123.595 130.279 125.751 135.439 123.772C135.439 123.772 237.408 83.6287 246.163 80.4093C247.987 79.7384 249.388 81.8397 247.035 82.9072C238.541 86.7637 152.436 125.553 140.317 131.422C134.487 134.122 135.116 136.966 130.703 138.911C126.332 140.831 124.453 138.43 118.664 140.92C116.42 141.823 101.076 148.979 101.076 148.979C92.3466 152.886 88.4917 141.65 95.3123 139.228L95.3081 139.232Z" fill="#B4B4B4"/>
<path opacity="0.51" d="M95.2787 139.232L115.841 131.376C121.261 129.342 120.984 126.658 124.642 125.148C128.392 123.599 130.263 125.747 135.405 123.772C135.405 123.772 237.157 83.7004 246.167 80.384C247.962 79.7215 249.342 81.8059 247.031 82.8523C238.289 86.8228 152.746 125.325 140.275 131.367C134.428 134.08 135.082 136.907 130.674 138.852C126.311 140.768 124.428 138.376 118.639 140.857C116.332 141.785 101.034 148.924 101.034 148.924C92.3424 152.806 88.5168 141.633 95.2787 139.232Z" fill="#B2B2B2"/>
<path opacity="0.53" d="M95.2494 139.232L115.9 131.338C121.303 129.312 121.03 126.633 124.663 125.135C128.383 123.599 130.254 125.734 135.38 123.768C135.38 123.768 236.913 83.7637 246.179 80.3544C247.945 79.7047 249.3 81.7679 247.035 82.7933C238.042 86.8776 153.069 125.089 140.238 131.304C134.373 134.025 135.053 136.835 130.644 138.785C126.294 140.7 124.403 138.308 118.614 140.789C116.24 141.743 100.996 148.869 100.996 148.869C92.3466 152.73 88.542 141.616 95.2494 139.232Z" fill="#AFAFAF"/>
<path opacity="0.54" d="M95.2242 139.236L115.963 131.304C121.349 129.283 121.085 126.616 124.688 125.131C128.379 123.608 130.246 125.73 135.355 123.768C135.355 123.768 236.67 83.8354 246.196 80.3291C247.933 79.6878 249.267 81.7342 247.044 82.7426C237.803 86.9367 153.397 124.865 140.208 131.253C134.327 133.987 135.032 136.776 130.628 138.73C126.286 140.646 124.386 138.257 118.601 140.734C116.16 141.717 100.967 148.823 100.967 148.823C92.355 152.662 88.5756 141.608 95.2242 139.241V139.236Z" fill="#ADADAD"/>
<path opacity="0.55" d="M95.1948 139.236L116.017 131.27C121.387 129.257 121.127 126.599 124.705 125.122C128.367 123.612 130.229 125.722 135.326 123.768C135.326 123.768 236.422 83.903 246.205 80.2996C247.916 79.6709 249.221 81.6962 247.043 82.6836C237.551 86.9916 153.711 124.629 140.171 131.19C134.273 133.937 134.998 136.705 130.598 138.658C126.265 140.574 124.361 138.19 118.58 140.662C116.076 141.671 100.929 148.764 100.929 148.764C92.355 152.578 88.6007 141.582 95.1948 139.241V139.236Z" fill="#ABABAB"/>
<path opacity="0.56" d="M95.1655 139.236L116.076 131.232C121.429 129.224 121.173 126.578 124.726 125.11C128.358 123.612 130.221 125.709 135.296 123.76C135.296 123.76 236.179 83.9663 246.213 80.2658C247.895 79.6456 249.179 81.654 247.048 82.6203C237.308 87.0422 154.034 124.392 140.133 131.122C134.222 133.878 134.969 136.629 130.573 138.587C126.253 140.502 124.34 138.122 118.559 140.587C115.988 141.62 100.895 148.696 100.895 148.696C92.3592 152.489 88.6301 141.553 95.1697 139.228L95.1655 139.236Z" fill="#A9A9A9"/>
<path opacity="0.57" d="M95.1361 139.241L116.135 131.198C121.471 129.198 121.223 126.557 124.747 125.106C128.35 123.62 130.208 125.705 135.271 123.764C135.271 123.764 235.936 84.038 246.226 80.2447C247.878 79.6372 249.137 81.6245 247.052 82.5696C237.06 87.1013 154.353 124.165 140.099 131.072C134.172 133.84 134.944 136.574 130.548 138.532C126.236 140.443 124.315 138.072 118.538 140.532C115.9 141.591 100.858 148.654 100.858 148.654C92.3592 152.422 88.6553 141.549 95.1403 139.241H95.1361Z" fill="#A7A7A7"/>
<path opacity="0.59" d="M95.1068 139.241L116.189 131.165C121.512 129.169 121.265 126.54 124.763 125.097C128.337 123.62 130.196 125.696 135.238 123.76C135.238 123.76 235.684 84.1055 246.23 80.211C247.853 79.6118 249.091 81.5823 247.048 82.5064C236.808 87.1519 154.668 123.928 140.057 131.004C134.113 133.781 134.91 136.498 130.519 138.46C126.219 140.371 124.289 138.004 118.513 140.46C115.808 141.549 100.816 148.591 100.816 148.591C92.355 152.338 88.6763 141.523 95.1026 139.236L95.1068 139.241Z" fill="#A4A4A4"/>
<path opacity="0.6" d="M95.0774 139.241L116.248 131.127C121.554 129.135 121.315 126.519 124.784 125.089C128.329 123.624 130.183 125.688 135.212 123.76C135.212 123.76 235.441 84.1772 246.246 80.1857C247.84 79.5949 249.053 81.5485 247.056 82.4557C236.565 87.2152 154.995 123.705 140.024 130.954C134.063 133.743 134.885 136.439 130.493 138.405C126.202 140.316 124.268 137.954 118.496 140.405C115.728 141.519 100.786 148.549 100.786 148.549C92.3676 152.27 88.7098 141.515 95.0816 139.249L95.0774 139.241Z" fill="#A2A2A2"/>
<path opacity="0.61" d="M95.048 139.245L116.307 131.093C121.596 129.11 121.361 126.502 124.805 125.08C128.325 123.629 130.17 125.679 135.187 123.755C135.187 123.755 235.198 84.2447 246.259 80.1561C247.824 79.5781 249.015 81.5106 247.06 82.3966C236.322 87.2658 155.313 123.468 139.99 130.89C134.013 133.688 134.86 136.367 130.472 138.338C126.19 140.249 124.252 137.89 118.48 140.333C115.644 141.473 100.753 148.485 100.753 148.485C92.3718 152.186 88.7392 141.489 95.0564 139.241L95.048 139.245Z" fill="#A0A0A0"/>
<path opacity="0.62" d="M95.0228 139.245L116.37 131.059C121.643 129.08 121.412 126.485 124.83 125.072C128.32 123.633 130.166 125.671 135.162 123.755C135.162 123.755 234.954 84.3123 246.272 80.1308C247.807 79.5612 248.973 81.4768 247.064 82.3418C236.074 87.3249 155.636 123.241 139.952 130.835C133.958 133.646 134.831 136.308 130.443 138.274C126.173 140.186 124.222 137.827 118.455 140.27C115.552 141.439 100.711 148.435 100.711 148.435C92.3676 152.11 88.7601 141.477 95.0228 139.249V139.245Z" fill="#9E9E9E"/>
<path opacity="0.63" d="M94.9935 139.249L116.424 131.025C121.68 129.055 121.458 126.464 124.847 125.068C128.308 123.641 130.149 125.667 135.133 123.755C135.133 123.755 234.711 84.384 246.28 80.1013C247.79 79.5443 248.927 81.4388 247.064 82.2827C235.827 87.3755 155.955 123.004 139.915 130.772C133.904 133.591 134.801 136.236 130.418 138.207C126.156 140.114 124.201 137.764 118.434 140.203C115.464 141.397 100.677 148.376 100.677 148.376C92.3718 152.03 88.7895 141.456 94.9935 139.245V139.249Z" fill="#9C9C9C"/>
<path opacity="0.64" d="M94.9641 139.249L116.483 130.987C121.726 129.021 121.504 126.443 124.868 125.055C128.3 123.641 130.141 125.654 135.103 123.751C135.103 123.751 234.464 84.4515 246.288 80.0718C247.769 79.5232 248.885 81.4009 247.064 82.2279C235.575 87.4346 156.27 122.776 139.877 130.713C133.853 133.544 134.772 136.169 130.388 138.143C126.135 140.051 124.176 137.705 118.408 140.139C115.376 141.359 100.635 148.325 100.635 148.325C92.3676 151.954 88.8147 141.439 94.9599 139.249H94.9641Z" fill="#999999"/>
<path opacity="0.66" d="M94.9348 139.249L116.542 130.954C121.768 128.992 121.554 126.426 124.889 125.051C128.291 123.646 130.128 125.65 135.078 123.751C135.078 123.751 234.22 84.5232 246.305 80.0464C247.757 79.5106 248.847 81.3671 247.073 82.173C235.336 87.4937 156.597 122.544 139.843 130.658C133.803 133.498 134.747 136.106 130.368 138.084C126.127 139.992 124.155 137.65 118.396 140.076C115.296 141.321 100.61 148.27 100.61 148.27C92.3844 151.878 88.8524 141.422 94.9432 139.253L94.9348 139.249Z" fill="#979797"/>
<path opacity="0.67" d="M94.9054 139.253L116.596 130.92C121.806 128.966 121.596 126.409 124.906 125.042C128.279 123.65 130.112 125.641 135.045 123.751C135.045 123.751 233.969 84.5949 246.309 80.0211C247.731 79.4937 248.801 81.3333 247.069 82.1182C235.08 87.5485 156.907 122.316 139.801 130.599C133.744 133.451 134.709 136.038 130.334 138.021C126.101 139.928 124.126 137.591 118.366 140.013C115.199 141.287 100.564 148.215 100.564 148.215C92.376 151.802 88.8692 141.405 94.9054 139.253Z" fill="#959595"/>
<path opacity="0.68" d="M94.876 139.253L116.655 130.882C121.848 128.933 121.643 126.384 124.927 125.03C128.27 123.65 130.103 125.629 135.019 123.743C135.019 123.743 233.725 84.6582 246.322 79.9831C247.715 79.4641 248.759 81.2869 247.073 82.0506C234.833 87.595 157.23 122.072 139.768 130.532C133.694 133.397 134.684 135.966 130.313 137.949C126.093 139.857 124.109 137.523 118.35 139.941C115.12 141.241 100.531 148.156 100.531 148.156C92.3802 151.717 88.8986 141.384 94.876 139.249V139.253Z" fill="#939393"/>
<path opacity="0.69" d="M94.8467 139.253L116.714 130.844C121.89 128.903 121.693 126.363 124.948 125.021C128.262 123.654 130.091 125.62 134.99 123.743C134.99 123.743 233.482 84.73 246.33 79.9578C247.694 79.4515 248.717 81.2532 247.077 81.9958C234.589 87.6498 157.553 121.844 139.73 130.473C133.639 133.346 134.655 135.899 130.284 137.882C126.072 139.785 124.08 137.46 118.324 139.873C115.027 141.198 100.493 148.097 100.493 148.097C92.3802 151.637 88.9237 141.359 94.8467 139.249V139.253Z" fill="#909090"/>
<path opacity="0.7" d="M94.8173 139.257L116.768 130.814C121.928 128.878 121.735 126.35 124.965 125.017C128.249 123.662 130.078 125.616 134.961 123.743C134.961 123.743 233.235 84.8017 246.339 79.9325C247.673 79.4346 248.671 81.2194 247.077 81.9452C234.338 87.7089 157.868 121.616 139.692 130.422C133.585 133.308 134.625 135.84 130.258 137.827C126.055 139.73 124.059 137.405 118.308 139.814C114.944 141.169 100.459 148.051 100.459 148.051C92.3844 151.565 88.9531 141.35 94.8215 139.257H94.8173Z" fill="#8E8E8E"/>
<path opacity="0.72" d="M94.7922 139.257L116.831 130.776C121.978 128.848 121.789 126.329 124.99 125.008C128.245 123.667 130.07 125.608 134.936 123.743C134.936 123.743 232.991 84.8734 246.356 79.9072C247.664 79.4219 248.637 81.1857 247.085 81.8903C234.099 87.7679 158.195 121.388 139.663 130.363C133.539 133.257 134.604 135.772 130.237 137.764C126.047 139.667 124.042 137.346 118.291 139.751C114.86 141.131 100.426 147.996 100.426 147.996C92.3928 151.489 88.9825 141.333 94.7964 139.257H94.7922Z" fill="#8C8C8C"/>
<path opacity="0.73" d="M94.7628 139.257L116.89 130.738C122.02 128.814 121.835 126.308 125.011 124.996C128.241 123.662 130.057 125.595 134.91 123.734C134.91 123.734 232.752 84.9409 246.368 79.8692C247.648 79.3924 248.596 81.1392 247.09 81.8228C233.851 87.8101 158.514 121.143 139.625 130.291C133.488 133.198 134.575 135.696 130.212 137.688C126.03 139.591 124.017 137.274 118.27 139.675C114.776 141.08 100.392 147.933 100.392 147.933C92.397 151.401 89.0118 141.308 94.7712 139.253L94.7628 139.257Z" fill="#8A8A8A"/>
<path opacity="0.74" d="M94.7334 139.262L116.944 130.709C122.058 128.789 121.877 126.291 125.028 124.992C128.228 123.671 130.045 125.591 134.877 123.738C134.877 123.738 232.5 85.0169 246.372 79.8481C247.622 79.384 248.549 81.1139 247.085 81.7722C233.595 87.8692 158.829 120.92 139.583 130.241C133.43 133.156 134.541 135.637 130.179 137.633C126.009 139.536 123.987 137.224 118.241 139.62C114.679 141.051 100.346 147.886 100.346 147.886C92.3886 151.333 89.0286 141.295 94.7292 139.262H94.7334Z" fill="#888888"/>
<path opacity="0.75" d="M94.7041 139.262L117.003 130.671C122.1 128.76 121.928 126.27 125.049 124.983C128.22 123.675 130.032 125.587 134.852 123.734C134.852 123.734 232.261 85.0844 246.385 79.8186C247.606 79.3629 248.507 81.076 247.09 81.7173C233.352 87.9283 159.152 120.688 139.55 130.181C133.379 133.11 134.516 135.57 130.158 137.57C125.997 139.473 123.971 137.165 118.224 139.553C114.595 141.013 100.312 147.831 100.312 147.831C92.3928 151.253 89.058 141.279 94.7041 139.262Z" fill="#858585"/>
<path opacity="0.76" d="M94.6747 139.266L117.062 130.637C122.142 128.73 121.974 126.253 125.07 124.975C128.211 123.679 130.024 125.578 134.822 123.734C134.822 123.734 232.014 85.1603 246.393 79.7932C247.585 79.3502 248.465 81.0422 247.09 81.6624C233.1 87.9831 159.466 120.46 139.508 130.127C133.321 133.063 134.483 135.506 130.124 137.511C125.971 139.409 123.937 137.11 118.199 139.494C114.507 140.979 100.275 147.781 100.275 147.781C92.3928 151.181 89.0831 141.266 94.6747 139.27V139.266Z" fill="#838383"/>
<path opacity="0.78" d="M94.6453 139.266L117.116 130.603C122.179 128.705 122.02 126.236 125.086 124.97C128.199 123.688 130.007 125.574 134.793 123.734C134.793 123.734 231.771 85.2363 246.406 79.7637C247.568 79.3291 248.424 81.0042 247.094 81.6034C232.853 88.0337 159.789 120.224 139.474 130.063C133.27 133.013 134.457 135.435 130.103 137.439C125.963 139.338 123.92 137.042 118.182 139.422C114.423 140.932 100.241 147.722 100.241 147.722C92.4011 151.097 89.1167 141.245 94.6495 139.266H94.6453Z" fill="#818181"/>
<path opacity="0.79" d="M94.616 139.266L117.175 130.565C122.226 128.671 122.066 126.211 125.107 124.958C128.19 123.688 129.994 125.561 134.764 123.73C134.764 123.73 231.523 85.3038 246.414 79.7342C247.547 79.308 248.382 80.9662 247.094 81.5443C232.601 88.0844 160.104 119.992 139.437 130.004C133.216 132.962 134.424 135.371 130.074 137.376C125.942 139.274 123.895 136.983 118.157 139.359C114.331 140.899 100.203 147.667 100.203 147.667C92.4012 151.021 89.1419 141.224 94.616 139.266Z" fill="#7F7F7F"/>
<path opacity="0.8" d="M94.5908 139.27L117.238 130.532C122.272 128.646 122.117 126.194 125.133 124.949C128.186 123.688 129.99 125.553 134.743 123.726C134.743 123.726 231.288 85.3755 246.431 79.7046C247.538 79.2911 248.344 80.9283 247.102 81.4852C232.362 88.135 160.431 119.755 139.403 129.941C133.165 132.911 134.399 135.3 130.053 137.308C125.93 139.207 123.874 136.916 118.14 139.287C114.247 140.852 100.17 147.608 100.17 147.608C92.4054 150.941 89.1712 141.203 94.5908 139.266V139.27Z" fill="#7D7D7D"/>
<path opacity="0.81" d="M94.5614 139.27L117.293 130.498C122.309 128.616 122.163 126.177 125.149 124.945C128.174 123.696 129.973 125.549 134.709 123.73C134.709 123.73 231.036 85.4557 246.435 79.6836C247.513 79.2785 248.298 80.8987 247.102 81.4388C232.11 88.1983 160.75 119.536 139.365 129.89C133.115 132.873 134.369 135.241 130.024 137.253C125.913 139.152 123.849 136.865 118.119 139.232C114.163 140.823 100.132 147.561 100.132 147.561C92.4054 150.869 89.1964 141.194 94.5614 139.274V139.27Z" fill="#7A7A7A"/>
<path opacity="0.82" d="M94.5321 139.27L117.351 130.46C122.351 128.582 122.209 126.156 125.17 124.933C128.165 123.696 129.961 125.536 134.684 123.722C134.684 123.722 230.797 85.5232 246.448 79.6456C247.497 79.2532 248.256 80.8523 247.106 81.3713C231.863 88.2405 161.069 119.291 139.327 129.823C133.061 132.814 134.34 135.165 129.998 137.181C125.896 139.076 123.828 136.797 118.098 139.16C114.075 140.776 100.098 147.502 100.098 147.502C92.4095 150.789 89.2257 141.173 94.5363 139.27H94.5321Z" fill="#787878"/>
<path opacity="0.83" d="M94.5027 139.274L117.41 130.426C122.393 128.557 122.259 126.139 125.191 124.928C128.157 123.705 129.952 125.532 134.655 123.726C134.655 123.726 230.554 85.6076 246.46 79.6245C247.48 79.2405 248.218 80.8228 247.111 81.3207C231.615 88.2996 161.392 119.068 139.294 129.768C133.01 132.772 134.315 135.106 129.973 137.122C125.883 139.017 123.803 136.743 118.077 139.101C113.987 140.747 100.061 147.451 100.061 147.451C92.4138 150.713 89.2509 141.156 94.5027 139.279V139.274Z" fill="#767676"/>
<path opacity="0.85" d="M94.4734 139.274L117.465 130.392C122.431 128.527 122.301 126.118 125.208 124.92C128.149 123.709 129.935 125.523 134.625 123.722C134.625 123.722 230.311 85.6793 246.469 79.5949C247.459 79.2236 248.172 80.7848 247.111 81.2616C231.364 88.346 161.71 118.835 139.256 129.709C132.956 132.722 134.285 135.038 129.948 137.055C125.867 138.949 123.782 136.679 118.056 139.03C113.899 140.7 100.023 147.388 100.023 147.388C92.4138 150.629 89.2761 141.131 94.4734 139.27V139.274Z" fill="#747474"/>
<path opacity="0.86" d="M94.444 139.274L117.523 130.354C122.477 128.498 122.347 126.097 125.229 124.907C128.14 123.709 129.927 125.511 134.596 123.717C134.596 123.717 230.063 85.7553 246.477 79.5654C247.438 79.2025 248.13 80.7468 247.111 81.2068C231.112 88.4009 162.025 118.603 139.214 129.65C132.897 132.675 134.252 134.97 129.914 136.992C125.841 138.886 123.752 136.62 118.027 138.966C113.807 140.662 99.981 147.338 99.981 147.338C92.4096 150.553 89.2971 141.118 94.4398 139.274H94.444Z" fill="#727272"/>
<path opacity="0.87" d="M94.4146 139.278L117.582 130.321C122.519 128.468 122.398 126.08 125.25 124.903C128.132 123.713 129.914 125.506 134.571 123.717C134.571 123.717 229.824 85.8312 246.49 79.5359C247.421 79.1814 248.088 80.7089 247.115 81.1477C230.864 88.4473 162.348 118.371 139.181 129.591C132.847 132.624 134.227 134.903 129.894 136.928C125.833 138.823 123.736 136.561 118.014 138.903C113.727 140.629 99.9516 147.283 99.9516 147.283C92.4179 150.477 89.3306 141.101 94.4188 139.278H94.4146Z" fill="#6F6F6F"/>
<path opacity="0.88" d="M94.3853 139.278L117.637 130.287C122.557 128.443 122.44 126.063 125.267 124.895C128.119 123.717 129.898 125.498 134.537 123.717C134.537 123.717 229.577 85.9114 246.494 79.5106C247.4 79.1688 248.042 80.6751 247.111 81.0928C230.609 88.4979 162.658 118.139 139.139 129.532C132.792 132.578 134.193 134.84 129.86 136.865C125.808 138.755 123.702 136.498 117.985 138.84C113.631 140.591 99.9055 147.232 99.9055 147.232C92.4096 150.401 89.3474 141.084 94.3769 139.283L94.3853 139.278Z" fill="#6D6D6D"/>
<path opacity="0.89" d="M94.3601 139.283L117.699 130.253C122.603 128.414 122.494 126.042 125.292 124.89C128.115 123.726 129.893 125.494 134.516 123.717C134.516 123.717 229.342 85.9916 246.515 79.4852C247.392 79.1519 248.008 80.6414 247.123 81.038C230.369 88.5528 162.99 117.911 139.109 129.477C132.746 132.532 134.172 134.776 129.843 136.806C125.804 138.696 123.69 136.443 117.972 138.776C113.555 140.553 99.8803 147.177 99.8803 147.177C92.4263 150.325 89.3851 141.068 94.3601 139.283Z" fill="#6B6B6B"/>
<path opacity="0.91" d="M94.3307 139.283L117.758 130.215C122.645 128.38 122.54 126.021 125.313 124.878C128.107 123.726 129.881 125.481 134.487 123.713C134.487 123.713 229.103 86.0717 246.523 79.4515C247.371 79.1308 247.966 80.5992 247.123 80.9747C230.114 88.5907 163.309 117.671 139.072 129.409C132.691 132.477 134.139 134.7 129.814 136.734C125.783 138.624 123.664 136.376 117.947 138.705C113.463 140.506 99.8384 147.118 99.8384 147.118C92.4221 150.245 89.4103 141.046 94.3265 139.283H94.3307Z" fill="#696969"/>
<path opacity="0.92" d="M94.3014 139.283L117.817 130.177C122.687 128.35 122.586 126 125.334 124.865C128.098 123.726 129.873 125.468 134.462 123.705C134.462 123.705 228.864 86.1477 246.536 79.4177C247.354 79.1055 247.924 80.557 247.127 80.9156C229.866 88.6372 163.627 117.439 139.038 129.346C132.641 132.422 134.113 134.629 129.793 136.662C125.77 138.553 123.643 136.308 117.93 138.633C113.379 140.464 99.809 147.055 99.809 147.055C92.4305 150.156 89.4439 141.021 94.3056 139.274L94.3014 139.283Z" fill="#666666"/>
<path opacity="0.93" d="M94.272 139.287L117.871 130.148C122.729 128.325 122.632 125.987 125.351 124.865C128.086 123.738 129.856 125.468 134.428 123.713C134.428 123.713 228.616 86.2405 246.54 79.4009C247.329 79.1013 247.878 80.5317 247.127 80.8692C229.61 88.692 163.946 117.215 138.996 129.3C132.582 132.388 134.08 134.574 129.759 136.612C125.749 138.502 123.614 136.262 117.905 138.582C113.287 140.439 99.7671 147.017 99.7671 147.017C92.4263 150.097 89.4648 141.017 94.2678 139.291L94.272 139.287Z" fill="#646464"/>
<path opacity="0.94" d="M94.2426 139.287L117.93 130.11C122.771 128.295 122.679 125.966 125.372 124.852C128.077 123.734 129.843 125.456 134.403 123.709C134.403 123.709 228.381 86.3207 246.553 79.3713C247.312 79.0802 247.836 80.4937 247.132 80.8101C229.363 88.7342 164.265 116.983 138.962 129.236C132.532 132.338 134.055 134.506 129.738 136.544C125.737 138.43 123.597 136.198 117.888 138.511C113.207 140.392 99.7335 146.954 99.7335 146.954C92.4305 150.008 89.4942 140.992 94.2426 139.287Z" fill="#626262"/>
<path opacity="0.95" d="M94.2133 139.287L117.989 130.072C122.813 128.262 122.729 125.941 125.393 124.844C128.073 123.738 129.835 125.447 134.373 123.705C134.373 123.705 228.138 86.4009 246.565 79.3376C247.295 79.0591 247.799 80.4515 247.136 80.7469C229.111 88.7722 164.588 116.743 138.929 129.173C132.482 132.283 134.03 134.435 129.713 136.477C125.72 138.363 123.572 136.135 117.867 138.443C113.119 140.354 99.7 146.899 99.7 146.899C92.4389 149.933 89.5236 140.975 94.2175 139.287H94.2133Z" fill="#606060"/>
<path opacity="0.96" d="M94.1839 139.291L118.043 130.042C122.851 128.241 122.771 125.928 125.409 124.84C128.06 123.747 129.818 125.443 134.344 123.709C134.344 123.709 227.899 86.4979 246.574 79.3165C247.278 79.0464 247.752 80.4219 247.136 80.7004C228.855 88.8228 164.907 116.523 138.887 129.122C132.427 132.245 133.996 134.376 129.684 136.422C125.703 138.308 123.547 136.084 117.842 138.388C113.027 140.325 99.658 146.852 99.658 146.852C92.4347 149.861 89.5446 140.966 94.1839 139.295V139.291Z" fill="#5E5E5E"/>
<path opacity="0.98" d="M94.1546 139.291L118.102 130.004C122.893 128.207 122.817 125.907 125.43 124.827C128.052 123.747 129.81 125.43 134.315 123.7C134.315 123.7 227.66 86.5781 246.582 79.2827C247.257 79.0211 247.71 80.3797 247.136 80.6371C228.595 88.8565 165.221 116.283 138.849 129.059C132.373 132.19 133.967 134.304 129.654 136.354C125.682 138.241 123.522 136.017 117.821 138.321C112.943 140.283 99.6203 146.797 99.6203 146.797C92.4347 149.785 89.5697 140.949 94.1546 139.3V139.291Z" fill="#5B5B5B"/>
<path opacity="0.99" d="M94.1294 139.291L118.165 129.966C122.943 128.173 122.872 125.886 125.456 124.819C128.048 123.751 129.801 125.422 134.294 123.7C134.294 123.7 227.442 86.6962 246.599 79.2574C247.245 79.0085 247.673 80.346 247.144 80.5823C228.335 88.8692 165.549 116.055 138.82 129C132.326 132.143 133.946 134.241 129.638 136.287C125.678 138.173 123.505 135.954 117.809 138.249C112.863 140.236 99.5951 146.734 99.5951 146.734C92.4473 149.696 89.6075 140.92 94.1336 139.291H94.1294Z" fill="#595959"/>
<path d="M94.1 139.295L118.22 129.937C122.981 128.152 122.914 125.869 125.472 124.814C128.035 123.76 129.784 125.418 134.264 123.7C134.264 123.7 227.194 86.7679 246.611 79.2279C247.228 78.9874 247.635 80.3122 247.148 80.5232C228.092 88.9198 165.867 115.819 138.782 128.937C132.272 132.089 133.916 134.169 129.608 136.219C125.657 138.105 123.48 135.89 117.783 138.181C112.771 140.198 99.5531 146.679 99.5531 146.679C92.4431 149.62 89.6285 140.903 94.1 139.291V139.295Z" fill="#575757"/>
</g>
<path d="M128.926 136.166C132.373 134.823 134.086 130.922 132.751 127.454C131.416 123.986 127.538 122.263 124.09 123.606C120.642 124.949 118.93 128.85 120.265 132.318C121.6 135.786 125.478 137.509 128.926 136.166Z" fill="url(#paint3_radial_914_54)"/>
<path d="M129.285 136.599C130.682 136.013 131.836 135.114 132.696 134.034C134.449 131.823 136.685 129.979 139.319 128.797L248.113 80.4979C248.667 80.2321 248.902 79.4894 248.633 78.789C248.352 78.0548 247.635 77.6456 247.023 77.865L136.307 121.523C133.623 122.57 130.745 122.869 127.947 122.565C126.58 122.414 125.128 122.608 123.736 123.19C122.381 123.759 121.248 124.624 120.401 125.667C118.61 127.869 116.152 129.519 113.442 130.549L95.6772 137.321C95.5598 137.363 95.4297 137.418 95.3123 137.464C92.3047 138.764 90.7904 141.949 91.9901 144.549C93.1898 147.148 96.6043 148.089 99.5573 146.684L116.848 138.768C119.482 137.561 122.381 136.966 125.195 137.236C126.529 137.363 127.939 137.169 129.294 136.599H129.285Z" fill="url(#paint4_linear_914_54)"/>
<path style="mix-blend-mode:multiply" opacity="0.6" d="M129.285 136.599C130.682 136.013 131.836 135.114 132.696 134.034C134.449 131.823 136.685 129.979 139.319 128.797L248.113 80.4979C248.667 80.2321 248.902 79.4894 248.633 78.789C248.352 78.0548 247.635 77.6456 247.023 77.865L136.307 121.523C133.623 122.57 130.745 122.869 127.947 122.565C126.58 122.414 125.128 122.608 123.736 123.19C122.381 123.759 121.248 124.624 120.401 125.667C118.61 127.869 116.152 129.519 113.442 130.549L95.6772 137.321C95.5598 137.363 95.4297 137.418 95.3123 137.464C92.3047 138.764 90.7904 141.949 91.9901 144.549C93.1898 147.148 96.6043 148.089 99.5573 146.684L116.848 138.768C119.482 137.561 122.381 136.966 125.195 137.236C126.529 137.363 127.939 137.169 129.294 136.599H129.285Z" fill="url(#paint5_linear_914_54)"/>
<path d="M126.504 133.764C128.631 133.764 130.355 132.029 130.355 129.89C130.355 127.751 128.631 126.017 126.504 126.017C124.377 126.017 122.653 127.751 122.653 129.89C122.653 132.029 124.377 133.764 126.504 133.764Z" fill="url(#paint6_radial_914_54)"/>
<g style="mix-blend-mode:multiply">
<path d="M126.504 126.498C128.551 126.498 130.216 128.105 130.342 130.131C130.347 130.051 130.355 129.97 130.355 129.89C130.355 127.751 128.631 126.017 126.504 126.017C124.377 126.017 122.653 127.751 122.653 129.89C122.653 129.97 122.662 130.051 122.666 130.131C122.788 128.105 124.457 126.498 126.504 126.498Z" fill="#C2C2C2"/>
</g>
</g>
<defs>
<radialGradient id="paint0_radial_914_54" cx="0" cy="0" r="1" gradientUnits="userSpaceOnUse" gradientTransform="translate(126.5 130.371) scale(130.477 131.245)">
<stop offset="0.85" stop-color="#2E2E2E"/>
<stop offset="0.88" stop-color="#494949"/>
<stop offset="0.9" stop-color="#636363"/>
<stop offset="0.93" stop-color="#757575"/>
<stop offset="0.96" stop-color="#808080"/>
<stop offset="1" stop-color="#848484"/>
</radialGradient>
<linearGradient id="paint1_linear_914_54" x1="126.508" y1="152.312" x2="126.508" y2="104.211" gradientUnits="userSpaceOnUse">
<stop stop-color="#959595"/>
<stop offset="0.21" stop-color="#AAAAAA"/>
<stop offset="0.48" stop-color="#BFBFBF"/>
<stop offset="0.75" stop-color="#CCCCCC"/>
<stop offset="1" stop-color="#D1D1D1"/>
</linearGradient>
<radialGradient id="paint2_radial_914_54" cx="0" cy="0" r="1" gradientUnits="userSpaceOnUse" gradientTransform="translate(126.291 133.729) scale(18.0289 18.135)">
<stop offset="0.16" stop-color="#E9E9E9"/>
<stop offset="0.39" stop-color="#E5E5E5"/>
<stop offset="0.56" stop-color="#DBDBDB"/>
<stop offset="0.72" stop-color="#CBCBCB"/>
<stop offset="0.87" stop-color="#B4B4B4"/>
<stop offset="1" stop-color="#9A9A9A"/>
</radialGradient>
<radialGradient id="paint3_radial_914_54" cx="0" cy="0" r="1" gradientUnits="userSpaceOnUse" gradientTransform="translate(126.506 129.887) scale(6.69476 6.73417)">
<stop offset="0.32" stop-color="#9C0000"/>
<stop offset="0.65" stop-color="#9A0000"/>
<stop offset="0.77" stop-color="#930000"/>
<stop offset="0.85" stop-color="#870000"/>
<stop offset="0.92" stop-color="#760000"/>
<stop offset="0.98" stop-color="#600000"/>
<stop offset="1" stop-color="#590000"/>
</radialGradient>
<linearGradient id="paint4_linear_914_54" x1="229.297" y1="86.8196" x2="94.9782" y2="142.431" gradientUnits="userSpaceOnUse">
<stop stop-color="#E53A3A"/>
<stop offset="0.03" stop-color="#E22020"/>
<stop offset="0.05" stop-color="#DF0E0E"/>
<stop offset="0.08" stop-color="#DE0303"/>
<stop offset="0.11" stop-color="#DE0000"/>
<stop offset="0.46" stop-color="#DB0000"/>
<stop offset="0.65" stop-color="#D30000"/>
<stop offset="0.79" stop-color="#C60000"/>
<stop offset="0.92" stop-color="#B30000"/>
<stop offset="1" stop-color="#A20000"/>
</linearGradient>
<linearGradient id="paint5_linear_914_54" x1="167.277" y1="104.489" x2="172.005" y2="115.562" gradientUnits="userSpaceOnUse">
<stop offset="0.63" stop-color="white"/>
<stop offset="0.65" stop-color="#F2E3E3"/>
<stop offset="0.71" stop-color="#D09D9D"/>
<stop offset="0.79" stop-color="#9C2E2E"/>
<stop offset="0.82" stop-color="#860000"/>
</linearGradient>
<radialGradient id="paint6_radial_914_54" cx="0" cy="0" r="1" gradientUnits="userSpaceOnUse" gradientTransform="translate(126.609 131.755) scale(4.76939 4.79746)">
<stop offset="0.45" stop-color="#EBEBEB"/>
<stop offset="0.58" stop-color="#E7E7E7"/>
<stop offset="0.68" stop-color="#DDDDDD"/>
<stop offset="0.77" stop-color="#CDCDCD"/>
<stop offset="0.86" stop-color="#B5B5B5"/>
<stop offset="0.94" stop-color="#979797"/>
<stop offset="1" stop-color="#7A7A7A"/>
</radialGradient>
<clipPath id="clip0_914_54">
<rect width="253" height="153" fill="white"/>
</clipPath>
</defs>
</svg>
